<svg width="16" height="28" viewBox="0 0 16 28" fill="none" xmlns="http://www.w3.org/2000/svg">
<path d="M10.7308 0.0380521C8.09545 0.0921264 7.43336 0.146203 7.23863 0.308426C6.92706 0.578798 2.82469 6.27012 2.56505 6.81086C2.3054 7.32457 2.39628 7.79772 2.79872 8.08161C2.95451 8.18976 3.52573 8.3655 4.058 8.48717C5.58989 8.81161 5.61586 8.81162 5.61586 9.05495C5.61586 9.41995 5.03166 10.1229 2.7468 12.5427C1.55244 13.8 0.513861 14.9896 0.44895 15.1789C0.176325 16.017 0.630701 16.3279 2.5261 16.5848C3.51274 16.72 3.87625 16.8146 4.00607 17.0039C4.23975 17.3418 4.23975 18.2611 3.9801 19.2615C3.72046 20.3024 2.24049 23.5334 1.16297 25.4124C-0.0184082 27.4673 -0.109283 27.6836 0.0724671 27.8728C0.371057 28.1838 0.708594 27.981 2.13663 26.6291C4.75903 24.1282 5.00569 23.9119 7.49827 21.7489C11.2112 18.5315 11.7175 18.0043 11.7175 17.3283C11.7175 16.7605 11.2891 16.5442 9.75717 16.355C9.03017 16.2604 8.40702 16.1252 8.38106 16.0441C8.3551 15.9765 9.39367 14.8409 10.7049 13.5431C13.0936 11.1638 15.3265 8.68995 15.7679 7.94643C16.0795 7.40568 16.0795 6.71623 15.7549 6.52697C15.6121 6.45938 14.7683 6.39179 13.8595 6.39179C11.5747 6.39179 11.5617 6.48642 13.9894 3.62048C15.4823 1.84954 15.9367 1.11954 15.8198 0.64639C15.6641 -0.0160212 15.2876 -0.056578 10.7308 0.0380521Z" fill="#FFC400"/>
</svg>
