<svg width="11" height="39" viewBox="0 0 11 39" fill="none" xmlns="http://www.w3.org/2000/svg">
<path id="Vector" d="M2.07748 33.5396C3.03514 35.3387 4.98814 37.0711 7.07986 38.0122C8.49222 38.6303 9.21616 38.5051 8.51149 37.7859C8.2766 37.5462 7.59393 37.024 6.96329 36.629C5.64107 35.8014 3.91721 34.0878 3.44974 33.1205C2.61886 31.4402 3.01103 30.3769 4.82677 29.3542C5.37921 29.0487 6.17862 28.5827 6.62382 28.3335C7.06903 28.0843 7.66934 27.5297 7.97798 27.0742C8.48155 26.3309 8.50426 26.1954 8.31955 25.2187C8.01768 23.701 7.32754 22.6034 5.05743 20.0642C2.85072 17.5845 2.30447 16.7589 2.60333 16.2158C2.87215 15.7426 4.19726 15.24 5.59885 15.0836C8.38333 14.7727 9.62866 13.725 9.42828 11.93C9.27031 10.6844 8.63867 9.60238 7.21065 8.16605C5.48435 6.43056 4.6138 5.24228 4.53561 4.54178C4.40854 3.40349 5.82695 2.38079 8.37165 1.78644C9.09315 1.63941 9.81866 1.35896 9.96731 1.16506C10.2394 0.890888 10.2321 0.825216 9.95495 0.545871C9.42666 0.0507639 6.43576 0.20733 5.30974 0.798451C3.54029 1.72736 2.54465 3.65588 3.00579 5.24447C3.33354 6.31604 3.76435 6.95501 5.17613 8.41532C7.33728 10.6563 8.19489 12.0677 7.68069 12.5462C7.57833 12.6463 6.5091 12.8986 5.30662 13.1437C2.00951 13.7777 0.761736 14.8035 0.976772 16.7298C1.11117 17.9338 1.681 18.8011 3.97224 21.36C5.98144 23.5958 6.5724 24.4829 6.68236 25.4679C6.75322 26.1028 6.39254 26.4311 4.56947 27.3882C1.7788 28.83 0.829585 31.1745 2.07748 33.5396Z" fill="#F59E0B"/>
</svg>
