<svg width="100" height="40" viewBox="0 0 100 40" fill="none" xmlns="http://www.w3.org/2000/svg">
<path d="M68.582 3.98446L68.5598 3.7702L68.2127 3.79989L68.2348 4.01395L68.582 3.98446ZM70.9158 9.59735L70.9232 9.71552L71.167 9.69344C71.1596 9.61962 71.1891 9.50145 71.2408 9.3538L71.2186 9.13954C71.1152 9.14696 71.0117 9.30204 70.9158 9.59735ZM61.8094 16.6653C61.7947 16.4659 61.1742 15.6905 59.9482 14.3241C59.9262 14.0731 60.3471 13.6964 61.2111 13.2016L63.6779 11.0524C64.2318 10.3507 64.5568 9.21337 64.6529 7.6329L64.6233 7.27098C64.5274 6.17801 63.7371 5.29911 62.2379 4.62704C61.3516 4.0288 59.7563 3.69637 57.452 3.63739C55.5465 3.79989 53.0576 4.47919 49.9926 5.68309C49.1506 6.28876 48.1906 6.89442 47.1123 7.49989L47.127 7.68466C47.1936 7.67723 47.2969 7.64032 47.415 7.55907C47.5406 7.54423 47.6145 7.60341 47.6219 7.72157L47.8064 7.62548L47.8951 7.61805L47.9025 7.6993C47.91 7.7954 47.2451 8.31981 45.901 9.2577L46.0045 9.44969L45.9158 9.45712L45.6941 9.37587C45.7016 9.44227 45.6057 9.48661 45.4209 9.50145L45.4283 9.5827L45.6426 9.84852C45.5762 9.85594 45.4727 9.82645 45.3324 9.77469C45.0221 9.80419 44.7193 9.96669 44.4166 10.2768L44.5422 9.73036C44.9926 7.78798 45.3027 6.06708 45.4652 4.57528L45.4432 4.47919C45.133 4.27977 44.8301 3.99911 44.5494 3.64462C44.5568 3.41571 44.5568 3.2829 44.5494 3.25321L44.5274 3.17196L44.4387 3.19423C43.4639 4.65653 41.5879 7.15282 38.8035 10.6831C36.684 13.1942 35.5908 14.5901 35.5244 14.8708C34.6604 15.7643 34.2467 16.3036 34.291 16.4882C34.0621 16.6358 33.966 16.7835 34.0029 16.946C33.9365 16.9608 33.8922 16.9388 33.8773 16.8722C33.5082 17.4704 32.9615 17.8544 32.2305 18.0243L31.4623 18.2016C31.359 18.2237 31.3072 18.2975 31.3147 18.4231L31.3367 18.5192L31.6248 18.4526L31.6471 18.5339L30.9971 18.785L29.8449 19.0509L29.2393 19.0878C29.1506 19.1765 29.7193 19.0806 29.4979 19.1321L28.7445 19.3095C28.2865 19.4128 28.0356 19.3759 27.9912 19.1913L27.9025 19.2134C27.9174 19.2946 27.9246 19.3538 27.91 19.4054L27.8656 19.2208L27.26 19.361C27.2156 19.0806 26.3959 18.0612 24.808 16.3036C24.7785 15.9638 25.3397 15.4688 26.4846 14.8265L29.7193 11.9829C30.4432 11.0524 30.8715 9.56044 31.0119 7.50731L30.9676 7.02723C30.842 5.57977 29.7932 4.41278 27.8213 3.5118C26.6543 2.72157 24.5568 2.30048 21.5289 2.23407C19.0178 2.44833 15.7385 3.34188 11.7061 4.90028C10.5982 5.70516 9.33536 6.50282 7.91739 7.29305L7.93946 7.54423C8.03555 7.5368 8.16094 7.48524 8.31602 7.39657C8.47852 7.38173 8.56719 7.45555 8.58204 7.60341L8.83301 7.46298L8.9586 7.45555L8.96602 7.57372C8.97344 7.69188 8.09454 8.3788 6.31465 9.63426L6.45489 9.85594L6.3295 9.86337L6.05606 9.76727C6.06348 9.8411 5.9379 9.89286 5.6795 9.91493L5.69415 10.0479L5.98965 10.3729C5.89376 10.3804 5.76075 10.3507 5.59083 10.2917C5.01485 10.3434 4.45352 10.7569 3.89962 11.5399L4.03985 11.7614C4.51993 11.3182 4.80059 11.0968 4.88184 11.0893L4.91133 11.4513C4.83008 11.4587 4.7045 11.5102 4.53477 11.5989L4.83751 12.0569C5.4094 11.4387 6.05711 10.8952 6.76524 10.4393C7.11231 10.528 7.29688 10.6388 7.3043 10.7569L7.57012 10.7349C9.47559 9.32411 11.359 8.30497 13.2275 7.67723L13.2496 7.92821C12.9025 8.4452 12.6662 8.71122 12.5406 8.72587C12.5555 8.90321 12.6145 9.05829 12.7252 9.1913C12.7549 9.50887 11.9055 11.6507 10.1846 15.6093C6.27774 24.8116 2.99844 31.621 0.332428 36.0229C0.339655 36.1114 0.391412 36.2296 0.487506 36.3774C1.14473 36.2224 1.5584 36.0599 1.73555 35.9046L1.87598 35.8899L1.89805 36.1411L2.1418 36.1188L2.39297 35.9786C2.4004 36.0524 2.48165 36.0893 2.65137 36.0745L2.67364 36.3257C2.69571 36.5694 2.55547 36.9386 2.25997 37.4483C1.99415 37.7511 1.70606 38.3862 1.40333 39.3538L1.41055 39.472L1.6543 39.4497C2.71797 38.2606 3.52286 37.0936 4.07676 35.9563C7.17872 35.0479 9.54219 34.1544 11.1816 33.2755C12.8287 33.135 14.0842 32.6993 14.941 31.9829L14.9262 31.8501L14.3059 32.0347L14.1654 32.0495L14.1506 31.9165C15.3619 31.7319 16.1965 31.4659 16.6617 31.0968C19.0178 29.2798 20.7977 27.9948 22.0016 27.2341C24.4756 25.4173 26.0857 23.6446 26.8168 21.9239C26.9551 21.8938 27.093 21.8617 27.2305 21.8278C27.5775 21.8132 27.7695 21.8057 27.8213 21.7909C27.8065 21.7245 27.8361 21.6876 27.9025 21.6727C28.4565 21.6138 28.1906 21.7097 28.5451 21.6284L29.4756 21.4143C29.4166 21.429 29.3943 21.4587 29.4092 21.5177L29.5494 21.429C29.5199 21.429 29.4979 21.4218 29.4756 21.4143L29.6307 21.3774L29.5568 21.4218C29.6604 21.4364 29.7711 21.429 29.8967 21.3995L29.9631 21.6727L25.7313 28.4011L24.7932 29.5753L24.3354 31.1114L24.424 31.0893L24.8818 30.8974L24.7342 31.4956L24.7785 31.6727L24.9039 31.8278C24.8449 31.8427 24.8229 31.8796 24.8375 31.946L24.8598 32.0421L25.0518 31.9977C25.3324 31.754 25.4506 31.5325 25.4063 31.3331C25.709 31.3847 25.9084 31.4069 26.0119 31.3774L26.034 31.4733C25.8494 31.5177 25.7533 31.6653 25.7385 31.9165L25.7607 32.0126L25.8641 31.9903C27.4004 30.3138 31.167 24.5753 34.1877 20.6831C34.0916 20.2622 35.6647 19.6786 38.9143 18.9253L39.0178 18.9032C39.1359 19.4128 38.8848 20.6462 38.2645 22.6034C37.8656 23.785 37.6736 24.435 37.7031 24.5384C37.1861 26.1114 36.9424 26.9608 36.9719 27.0938L35.8197 30.8677C35.0738 32.8028 34.5053 34.8339 34.1065 36.9757C34.1729 36.9608 34.2762 36.9683 34.424 37.0052L34.5863 36.8647C34.6012 36.9313 34.6455 36.9534 34.7119 36.9386L34.6455 36.6653L35.1477 36.6507C35.2953 36.6138 35.4209 36.429 35.5244 36.0893C35.5022 35.5798 35.6057 35.3065 35.8346 35.2474C36.1447 34.0362 36.3367 33.4306 36.4033 33.4083C36.6912 32.2046 36.9055 31.5177 37.0457 31.3477C37.4816 29.7821 37.799 28.977 38.0059 28.9253L38.0502 29.1175L37.7326 29.9372C37.1787 32.3966 36.6174 34.339 36.0488 35.7643L36.2113 36.4733L36.3147 36.4513C37.6883 33.497 39.6676 27.6477 42.2451 18.9032C42.3191 18.135 42.6883 17.5368 43.3457 17.1159L43.1979 16.9608L43.1758 16.8796C43.4713 16.8132 43.6779 16.695 43.7961 16.5325C43.7815 16.4659 43.5229 16.37 43.0207 16.237L44.3059 10.7274C44.5863 10.4763 44.7488 10.3434 44.8006 10.3434L44.8229 10.6241C44.7563 10.6313 44.6529 10.6682 44.5348 10.7495L44.7785 11.0968C45.2215 10.6167 45.7016 10.203 46.226 9.85594C46.4918 9.92977 46.6248 10.0184 46.6397 10.1071L46.8316 10.0923C48.294 9.02137 49.7268 8.25321 51.1373 7.78798L51.1522 7.97255C50.8938 8.36395 50.7164 8.56337 50.6203 8.57079C50.6352 8.7038 50.6721 8.82196 50.7385 8.92528C50.7607 9.16903 50.1256 10.7938 48.8258 13.8071C45.8566 20.7864 43.3678 25.9489 41.3442 29.302C41.3516 29.3684 41.3959 29.4571 41.4772 29.5753C41.9719 29.4571 42.2895 29.3315 42.415 29.2134L42.5037 29.2059L42.5186 29.3907L42.7252 29.3759L42.91 29.2798C42.9172 29.3315 42.9838 29.3538 43.1094 29.3464L43.124 29.5458C43.1389 29.7229 43.0356 30.0036 42.8065 30.3876C42.5924 30.6167 42.3707 31.0968 42.1344 31.8278L42.1418 31.9239L42.3338 31.9091C43.1389 31.0081 43.7518 30.1218 44.1729 29.2503C46.5287 28.5561 48.3234 27.8841 49.5643 27.2192C50.8272 27.1085 51.7799 26.7835 52.4299 26.237L52.4225 26.1411L51.9424 26.2813L51.8391 26.2888L51.8316 26.1927C52.7475 26.0599 53.39 25.853 53.7371 25.5798C55.5244 24.2059 56.876 23.2237 57.7918 22.6477C60.6426 20.5723 61.9719 18.5782 61.8094 16.6653ZM61.3221 16.7909L61.3885 17.5368C61.2998 17.7216 61.2039 17.8175 61.1152 17.8249L61.0045 16.5546C61.2111 16.6284 61.3147 16.7022 61.3221 16.7909ZM5.39883 10.7792L5.27325 10.7864L5.25118 10.5575L5.76075 10.5132L5.76817 10.6313C5.68692 10.6388 5.56133 10.6831 5.39883 10.7792ZM2.90997 35.6757C2.61446 35.5429 2.34864 35.4911 2.11973 35.5132L2.09005 35.1513C2.0754 35.011 2.15665 34.9149 2.3338 34.878C2.4963 34.8634 2.59239 34.9815 2.60704 35.2179C3.03555 34.6934 3.27188 34.4276 3.31622 34.4202L3.58946 34.5309C3.50079 35.2696 3.27188 35.6462 2.90997 35.6757ZM29.5053 7.85438C29.3797 7.86923 29.1285 7.47782 28.7666 6.70223L28.7445 6.47333C28.9809 6.45126 29.2246 6.83524 29.483 7.62548L29.5053 7.85438ZM29.1506 5.09969L29.0473 5.34344L25.4357 3.8368C27.8434 3.91805 29.0842 4.33895 29.1506 5.09969ZM13.8996 18.1942L13.39 18.2386L13.3678 18.0095L13.8773 17.9653L13.8996 18.1942ZM13.4859 10.3286L13.6115 10.3212L13.641 10.6831C13.5229 10.6905 13.3678 10.8677 13.1758 11.2075L13.1535 10.9563C13.3826 10.6831 13.5008 10.4763 13.4859 10.3286ZM12.415 12.8544L12.4594 13.3345L12.3338 13.3419L12.2895 12.8618L12.415 12.8544ZM11.8537 13.7556L12.0975 13.7333C12.0754 14.1321 11.9647 14.3464 11.7652 14.361L11.6397 14.3684C11.7947 14.1026 11.8686 13.8958 11.8537 13.7556ZM11.4328 15.011L11.5731 14.9962L11.5805 15.1143L11.3516 15.4985L11.1078 15.5206L11.1004 15.4024C11.3441 15.3804 11.4549 15.2548 11.4328 15.011ZM11.0191 16.1411L10.9453 16.7466L10.8197 16.754L10.7682 16.1557L11.0191 16.1411ZM6.87598 27.921C6.71348 28.7481 6.53614 29.169 6.35157 29.1839L6.34415 29.0657C6.29981 28.6595 6.47715 28.2755 6.87598 27.921ZM6.11524 29.5679L6.12266 29.686C6.13731 29.8485 6.06348 29.9446 5.90098 29.9518L5.89376 29.8337C5.87891 29.6934 5.95274 29.6048 6.11524 29.5679ZM5.89376 32.9874L6.27774 32.9505L6.29239 33.0835C6.19649 33.0907 6.0709 33.1425 5.91583 33.2311L5.67208 33.2532C5.65723 33.1278 5.73848 33.0317 5.89356 32.9874H5.89376ZM16.8242 29.6122C14.6676 30.6757 13.3973 31.3995 13.0207 31.7761C10.6869 32.5886 9.52735 33.0907 9.54942 33.2901C7.47423 34.1101 6.10782 34.7157 5.45059 35.0923C5.29551 35.1071 5.07383 35.0479 4.77852 34.9149C4.74161 34.494 4.9336 34.1544 5.33965 33.8811C5.70157 33.8515 6.04864 33.9032 6.38106 34.0434C6.76524 33.844 7.43731 33.6225 8.39005 33.3862L8.36778 33.135L7.59981 33.2016C7.69571 33.0686 8.43419 32.7216 9.82266 32.1602L10.2068 32.1233L10.2143 32.2415C9.55684 32.3005 9.19493 32.4927 9.11368 32.8397C9.12852 32.9948 9.21719 33.0612 9.37969 33.0466C9.87442 32.7362 10.1182 32.5516 10.1107 32.4999C11.0488 32.3227 13.641 30.9638 17.8877 28.4306L17.91 28.6595C17.9174 28.7702 17.5555 29.0804 16.8242 29.6122ZM10.3102 31.754C10.9307 31.7022 11.4623 31.4513 11.9055 31.0155C12.0826 31.0007 12.1787 31.0671 12.1861 31.2222C11.8832 31.2518 11.2998 31.5028 10.4506 31.9903L10.325 31.9977L10.3102 31.754ZM20.8197 23.6815L17.5627 26.2593C15.1402 27.8472 13.8404 28.6446 13.6559 28.6595C9.80059 30.7792 7.4004 31.8796 6.46973 31.9608L6.3295 31.9755C6.44766 31.5399 8.16094 28.0317 11.4846 21.429C12.9469 21.3034 15.2512 20.6241 18.39 19.3833L19.158 19.3167C20.7459 19.1765 21.935 19.4866 22.718 20.2253L22.7621 20.7052C22.1713 22.404 21.5215 23.3936 20.8197 23.6815ZM14.4535 20.0997L14.9779 20.0554L14.9852 20.1735L14.4609 20.2179L14.4535 20.0997ZM21.8168 18.8515L22.201 18.8145C22.5555 18.9845 22.74 19.1321 22.7549 19.2651L22.7621 19.3833C22.4225 19.4128 22.1049 19.2356 21.8168 18.8515ZM22.8582 12.921C22.5186 13.327 21.5879 14.0214 20.0664 14.9962C19.5643 15.0405 17.6957 15.7643 14.4609 17.1823C14.2992 17.1084 14.121 17.0779 13.944 17.0938L13.9217 16.8647C13.8848 16.3995 14.0916 15.8161 14.5494 15.1071C14.8006 13.7776 15.0738 13.0169 15.3768 12.8323L18.0725 6.76884C18.0428 6.39208 18.6189 6.10399 19.8006 5.90458L20.1846 5.86766L20.2143 6.21493C21.3736 6.03759 22.0975 5.93427 22.3781 5.912C24.5199 5.72743 25.6352 6.16317 25.7238 7.20458L25.9676 7.18231L25.9158 6.56942L26.1816 6.54716C26.8094 6.89442 27.1492 7.31532 27.1936 7.81005C27.2231 8.14989 27.0385 8.57079 26.6469 9.07313C26.4846 9.08778 26.3885 8.96962 26.3736 8.73329L26.1078 8.75555L26.0488 9.49403C24.9631 11.1188 24.1729 11.9534 23.6854 11.9977C23.2422 12.6108 22.969 12.9136 22.8582 12.921ZM24.5125 17.1677C24.291 17.0198 24.1137 16.9534 23.9809 16.9608L23.9512 16.5989L24.1949 16.5768L24.7342 16.8944C24.7563 17.0641 24.6824 17.1528 24.5125 17.1677ZM26.226 19.1985C26.4623 19.2946 26.6027 19.3979 26.6322 19.494L26.5141 19.5235L26.5215 19.5309C26.4992 19.5309 26.4697 19.5384 26.4475 19.5458L26.2703 19.686L26.226 19.1985ZM26.3885 20.2179L26.3664 20.1218L26.6766 20.0479L26.6986 20.144L26.3885 20.2179ZM27.1344 21.0524C27.452 21.0007 27.607 20.9786 28.1979 20.8456L28.2201 20.9417L27.0975 21.2001C27.1123 21.1483 27.127 21.0968 27.1344 21.0524ZM28.2275 21.5177C27.7549 21.562 27.8582 21.5028 27.1049 21.6727L27.0826 21.5768L28.0207 21.2739L28.4713 21.1706L28.5154 21.3477C28.316 21.3921 28.4639 21.3921 28.2275 21.5177ZM29.2246 21.2813C29.1137 21.3108 29.0252 21.2593 28.9734 21.1337L29.2615 21.0671C29.3869 21.0376 29.4682 21.0893 29.4979 21.2149L29.2246 21.2813ZM31.9275 18.3714L31.9055 18.2755L32.3707 18.1647L32.415 18.3419L31.9275 18.3714ZM34.8154 36.0819C34.8449 35.9489 34.8523 35.853 34.8375 35.7864L34.941 35.7643C35.0664 35.7349 35.1402 35.7792 35.1699 35.8974L35.192 35.9933L34.8154 36.0819ZM36.8391 19.1321L36.6322 19.0952C36.2998 19.2282 36.0191 19.3241 35.7902 19.3759L35.5982 19.4202C35.4875 19.4497 35.3988 19.4054 35.3545 19.2872L36.7061 18.977L37.1492 18.7702L37.2969 18.9401C37.0826 18.9845 36.9275 19.0509 36.8391 19.1321ZM37.8803 18.7997L37.8582 18.7038C37.9246 18.689 38.0133 18.6374 38.1094 18.5413L39.0693 18.3198L39.0916 18.4157C38.582 18.5413 38.1758 18.6669 37.8803 18.7997ZM38.0281 16.8573C37.9615 16.8722 37.8731 16.9313 37.7621 17.0198C37.7475 16.9534 37.6145 16.9534 37.3633 17.0126C37.3191 16.8278 38.0281 16.5694 39.4979 16.2296L39.7045 16.1852L39.7488 16.3626C38.7149 16.6653 38.1389 16.8352 38.0281 16.8573ZM40.6131 14.0657C40.5096 15.2399 40.0961 15.9048 39.3649 16.0745L39.3428 15.9786L38.6928 16.2296L38.4047 16.2962C38.257 16.3331 38.124 16.3257 38.0059 16.2888L37.9469 16.0302C37.9246 15.9343 38.8627 14.6343 40.7682 12.138L40.9897 12.1751C41.0709 12.5147 40.9453 13.1425 40.6131 14.0657ZM45.1846 10.1513L45.0961 10.1587L45.0813 9.97411L45.4652 9.93719L45.4727 10.0331C45.4063 10.0479 45.3102 10.0849 45.1846 10.1513ZM43.3014 29.0657C43.0797 28.9622 42.8803 28.9181 42.7106 28.9327L42.6883 28.652C42.6809 28.5561 42.74 28.4895 42.8656 28.4526C42.9912 28.438 43.065 28.5265 43.0797 28.7186C43.3973 28.3124 43.5746 28.1056 43.6115 28.1056L43.8109 28.1868C43.7371 28.7481 43.5672 29.0434 43.3014 29.0657ZM63.4934 7.94305C63.3973 7.95048 63.2127 7.65497 62.9246 7.05673L62.91 6.87216C63.0945 6.85731 63.2865 7.1454 63.4785 7.73622L63.4934 7.94305ZM63.2275 5.83075L63.1389 6.02274L60.4063 4.87802C62.2305 4.93719 63.1758 5.25477 63.2275 5.83075ZM51.6397 15.7792L51.2555 15.8161L51.2408 15.6313L51.6248 15.6018L51.6397 15.7792ZM51.3221 9.80419L51.4254 9.79677L51.4475 10.0774C51.3516 10.0849 51.2334 10.2179 51.093 10.4763L51.0783 10.2917C51.2482 10.0774 51.3293 9.91493 51.3221 9.80419ZM50.517 11.7245L50.5465 12.0864L50.4432 12.0938L50.4135 11.7319L50.517 11.7245ZM50.0813 12.4114L50.2732 12.3966C50.2512 12.7067 50.1699 12.8692 50.0295 12.8841L49.9262 12.8913C50.0369 12.6847 50.0887 12.5222 50.0813 12.4114ZM49.7711 13.3567L49.8598 13.3493L49.867 13.4452L49.6973 13.7407L49.5051 13.7556L49.4979 13.6595C49.6973 13.6446 49.7858 13.5413 49.7711 13.3567ZM49.4609 14.2134L49.3943 14.686L49.3057 14.6934L49.2688 14.2282L49.4609 14.2134ZM46.3072 23.172C46.1816 23.7925 46.0488 24.11 45.9084 24.1247L45.901 24.0434C45.8789 23.7333 46.0117 23.438 46.3072 23.172ZM45.7238 24.4202L45.7311 24.5015C45.7459 24.6343 45.6869 24.7083 45.5539 24.7155L45.5465 24.6196C45.5391 24.5235 45.5983 24.4571 45.7238 24.4202ZM45.5613 27.0198L45.8566 26.9977L45.8641 27.0936C45.7977 27.1011 45.6941 27.138 45.576 27.2046L45.384 27.2192C45.3766 27.1159 45.4357 27.0495 45.5613 27.0198ZM53.8553 24.4571C52.2305 25.2622 51.2629 25.8087 50.9602 26.0893C49.1875 26.7097 48.3088 27.0938 48.3234 27.2489C46.7504 27.8766 45.7164 28.327 45.2289 28.6151C45.1108 28.6225 44.9408 28.5782 44.7193 28.4749C44.6898 28.1573 44.8375 27.8987 45.1477 27.7067C45.4283 27.6847 45.6941 27.7216 45.9379 27.8249C46.2334 27.6772 46.743 27.5147 47.4668 27.3302L47.452 27.1454L46.8463 27.1897C46.9203 27.0864 47.4889 26.8204 48.5451 26.3921L48.8404 26.37L48.8479 26.4513C48.3457 26.4956 48.065 26.6433 48.0059 26.9091C48.0133 27.0272 48.0871 27.0864 48.2127 27.0716C48.582 26.8278 48.7592 26.6876 48.7592 26.6433C49.4682 26.5177 51.4328 25.4837 54.6604 23.5487L54.675 23.7333C54.6824 23.8145 54.4092 24.0509 53.8553 24.4571ZM48.907 26.0819C49.3869 26.0376 49.7932 25.853 50.133 25.528C50.2584 25.5132 50.3324 25.5724 50.3397 25.6905C50.1182 25.7126 49.6824 25.8974 49.025 26.2518L48.9217 26.2593L48.907 26.0819ZM56.8981 19.9446L54.4387 21.9239C52.5996 23.1276 51.6027 23.7333 51.4475 23.7481C48.5229 25.3581 46.7061 26.1927 45.9897 26.2518L45.8863 26.2593C45.9748 25.9268 47.2822 23.2606 49.808 18.2532C50.9084 18.1573 52.6514 17.6329 55.0443 16.6876L55.6426 16.6358C56.8463 16.5325 57.7475 16.7688 58.3383 17.3374L58.3678 17.6993C57.9172 18.9696 57.4299 19.7155 56.8981 19.9446ZM52.068 17.2266L52.452 17.1897L52.4594 17.2858L52.0754 17.3227L52.068 17.2266ZM57.6588 16.2739L57.9543 16.2518C58.2275 16.3847 58.3678 16.503 58.3752 16.5989L58.3826 16.6802C58.124 16.7022 57.8803 16.5694 57.6588 16.2739ZM58.4342 11.7763C58.1758 12.0864 57.4742 12.6181 56.3295 13.3567C55.9453 13.3936 54.5274 13.9401 52.0754 15.0036C51.9572 14.9593 51.8242 14.9446 51.6838 14.952L51.6691 14.7673C51.6397 14.4128 51.7947 13.9696 52.1344 13.4306C52.3264 12.4114 52.5406 11.8427 52.7621 11.7097L54.8227 7.10106C54.8006 6.82782 55.2363 6.60634 56.1227 6.43641L56.418 6.41434L56.4402 6.69501C57.3117 6.55458 57.8582 6.47333 58.0797 6.45126C59.7045 6.31083 60.5539 6.63583 60.6203 7.43348L60.8123 7.41864L60.7754 6.97548L60.9676 6.96083C61.4402 7.21923 61.6912 7.52958 61.7209 7.89872C61.743 8.16473 61.61 8.48954 61.3293 8.8663C61.2039 8.88094 61.1301 8.79247 61.1152 8.60048L60.9232 8.61512L60.8641 9.16903C60.0443 10.4173 59.4461 11.0599 59.0693 11.0893C58.7371 11.5399 58.5303 11.7688 58.4342 11.7763ZM59.2984 14.8485L59.2762 14.5679L59.4682 14.5532L59.8818 14.8042C59.8893 14.9224 59.8301 14.989 59.7045 15.0036C59.5274 14.8929 59.3943 14.8411 59.2984 14.8485ZM24.9188 32.788L24.7268 32.8323L24.5643 32.9725C24.5938 33.0907 24.6676 33.135 24.7932 33.1056C24.9188 33.0761 24.9705 33.0022 24.941 32.8841L24.9188 32.788ZM24.1877 31.3331L24.2098 31.429C24.3354 31.3995 24.3869 31.3257 24.3574 31.2075L24.3354 31.1114C24.2172 31.1411 24.1654 31.2149 24.1877 31.3331ZM29.3869 18.9622L29.6086 18.9106L29.5643 18.7186L29.3428 18.7702L29.3869 18.9622ZM96.4033 24.5901C94.158 25.0923 93.8773 25.0036 93.4047 25.0405L93.4195 25.2253L93.6264 25.2104L93.7371 25.203L93.7076 25.1809L93.9512 25.0849C96.1742 24.8411 96.4328 24.9298 96.4106 24.6786L96.4033 24.5901ZM84.3131 26.1927L84.3279 26.3774H84.3574L84.3428 26.1927H84.3131ZM82.9246 21.3257L82.7252 21.2593C82.5627 21.695 82.4815 21.9534 82.4889 22.0272L82.4963 22.1085C82.6514 22.1011 82.7918 21.8352 82.9246 21.3257ZM96.8611 24.5532L96.876 24.7378L97.2008 24.7968L97.1861 24.6122L96.8611 24.5532ZM81.5805 26.4216L81.0783 26.3626L80.9897 26.5546L80.9971 26.6507L83.9881 26.3995L83.9734 26.2149L81.5805 26.4216ZM80.2215 19.8708L80.2143 19.7747L80.1107 19.7821L79.9262 19.9003L80.0295 20.0774C80.1699 20.0628 80.2363 19.9962 80.2215 19.8708ZM98.2791 23.1942L98.4195 23.1794C98.5008 23.172 98.5377 23.1056 98.5303 22.9874L98.449 22.81C97.9395 22.8544 97.7031 22.8766 97.2895 23.1056L97.282 23.0097L96.6692 23.0686C96.6543 22.8841 96.6027 22.788 96.5215 22.7954L96.2039 22.8249C95.8346 22.8544 95.6572 22.8397 95.4727 22.98C95.4652 22.9136 95.4432 22.8841 95.4063 22.8841L95.0518 22.9136L94.8449 23.0317C94.8375 22.9653 94.8154 22.9356 94.7783 22.9356L94.6529 23.0466L94.6455 22.9505L94.1506 22.9136L94.0324 22.921L94.0473 23.1056L94.2984 23.172L94.5348 23.1573C94.616 23.2091 94.7045 23.2237 94.808 23.2163L95.0149 23.113L95.0221 23.1942C93.8627 23.4823 93.8699 23.4306 93.0723 23.5636C92.9838 23.5044 92.9172 23.4749 92.8729 23.4823L92.8582 23.497C92.7695 23.4895 92.7178 23.4306 92.7106 23.3345L93.124 23.2829C93.1535 23.2829 93.1758 23.3124 93.4047 23.3567C93.7371 23.1942 93.7518 23.1276 93.9291 23.113L93.9143 22.9282C92.777 23.1499 93.2348 23.0022 91.8094 23.1276L91.743 23.135L91.7281 22.9505C93.5598 22.729 92.9469 22.8544 93.5746 22.6772C93.582 22.7436 93.6041 22.7731 93.641 22.7731C93.7083 22.7044 93.7968 22.6602 93.8922 22.6477L94.0178 22.6403C94.6602 22.5886 94.8744 22.7141 96.1447 22.3597L96.1522 22.4409L96.359 22.3374L96.551 22.3227C96.5361 22.138 96.8168 22.1085 96.9129 22.1011L96.8981 21.9016C94.6676 22.3522 94.0842 22.2266 93.4639 22.404L93.4565 22.3227C92.8731 22.4261 92.8508 22.3817 92.7031 22.3891C92.6588 22.3966 92.5924 22.4335 92.5184 22.5073C92.5111 22.4409 92.4889 22.4112 92.4445 22.4112C92.4225 22.4112 92.415 22.4186 92.4076 22.4186L90.517 22.7288C90.5096 22.6772 90.4875 22.6477 90.4432 22.655C89.4609 22.8618 89.7268 22.8987 88.4121 23.0169C88.3529 23.0243 88.2719 23.0538 88.1684 23.1204C88.1609 23.0686 88.1315 23.0391 88.065 23.0464L87.26 23.113L86.7209 23.2458C86.7135 23.1942 86.684 23.1647 86.6174 23.172C86.3147 23.2532 86.0488 23.305 85.8346 23.3198H85.8197C85.6869 23.3345 85.8863 23.2829 85.7828 23.2386L85.6203 23.3345C85.384 23.3567 85.5096 23.3198 84.6973 23.327C83.2719 23.5044 83.427 23.5265 83.2719 23.5339L82.74 23.497C82.7475 23.5487 82.718 23.5856 82.6588 23.5856C82.0531 23.5044 81.743 23.4083 81.7355 23.2975C81.8168 22.7216 81.9572 22.4261 82.1566 22.4112L82.26 22.404L82.1713 22.596L82.2748 22.5886C82.4668 22.4852 82.5555 22.3891 82.548 22.3005L82.5332 22.1011L82.3412 22.1159L82.3264 21.9313C82.3117 21.7909 82.3338 21.6653 82.3856 21.562L82.8213 20.8604L82.8361 21.045L83.0428 21.0302L83.0281 20.8456L82.91 20.6757C83.065 20.5429 83.1832 20.4688 83.2791 20.4616L83.2719 20.3655L82.9912 20.3878L82.9689 20.1071C83.5303 18.9401 83.7961 18.2606 83.7814 18.0686L83.9809 18.1499C84.1065 18.1425 84.1654 18.0686 84.158 17.9356L83.966 17.9505L83.9586 17.8692C83.9451 17.7344 83.9707 17.5985 84.0324 17.4778C84.3354 17.1602 84.4756 16.8427 84.4461 16.5102C84.5053 16.5028 84.5348 16.5325 84.5422 16.5989C84.8006 16.4513 85 16.0599 85.1477 15.4099C85.6057 14.5827 86.2555 12.9284 87.1049 10.4542C88.7297 6.08192 88.6633 5.61669 88.8922 4.5827L88.7002 4.59735C88.7149 4.73036 88.6854 4.85594 88.6264 4.97411C88.4934 4.92235 88.39 4.89286 88.3162 4.90028L88.3088 4.81903C88.2791 4.44227 88.4344 3.99188 88.7889 3.46005L88.8773 3.45262L89.0398 4.08778L89.2318 4.07313C89.2246 4.0288 89.2762 3.77762 89.3797 3.31239C89.3723 3.2163 89.2984 3.15731 89.1506 3.14989L88.966 3.26805C88.9514 3.13505 88.9586 2.78798 88.9809 2.23407L88.8848 2.24149C88.7223 2.07899 88.641 1.94598 88.6336 1.83524L87.5775 1.93856C87.5701 1.86473 87.5332 1.75399 87.4594 1.61376C87.452 1.51766 87.6883 1.42157 88.1758 1.32567L88.39 1.40692L88.5895 1.28876C88.5967 1.35516 88.6336 1.38466 88.7074 1.37743L88.9068 1.25927C88.9143 1.32567 88.9512 1.35516 89.0252 1.34774L89.1211 1.34052L89.1063 1.12626C88.9586 1.1411 88.5672 1.1411 87.9469 1.11884L87.7475 1.25184L87.74 1.13368C82.7844 1.53973 79.9705 1.76884 79.2984 1.83524C79.2098 1.84266 78.8627 1.83524 78.2496 1.8204C78.257 1.90165 78.1832 1.94598 78.0356 1.96083L77.8213 1.86473L77.0975 2.0495C76.9276 2.06415 76.6397 2.05673 76.2408 2.01259C76.1301 2.10106 75.9971 2.15282 75.8346 2.16766C75.7459 2.17489 76.8906 2.10848 77.9541 2.03466C77.8434 2.12333 77.6736 2.17489 77.4373 2.19716C77.2748 2.212 77.1344 2.18973 77.0162 2.12333C76.8537 2.19716 76.3295 2.31532 75.4506 2.49247L75.2363 2.41141L71.7799 2.94305C71.6469 2.87665 71.4918 2.85438 71.3147 2.86923C71.1299 2.88407 70.8197 2.95048 70.3914 3.06864L68.7223 3.76278L68.8479 3.96962C68.9291 3.96219 69.0473 3.91805 69.1875 3.8368L69.7785 3.88837L69.7045 4.44227C69.158 4.68602 68.8404 5.04794 68.7518 5.50594C67.932 5.86766 67.5258 6.12626 67.5258 6.28134L67.5332 6.37743L67.6588 6.37001L67.8803 6.25184L68.1389 6.562L68.1758 6.99032C68.1904 7.12333 66.8094 10.0259 64.0473 15.6979C61.6543 21.1632 60.3988 24.1544 60.2807 24.6934C59.4609 24.9223 58.9881 25.2548 58.8479 25.6979C58.8627 25.8382 59.1063 25.9343 59.5789 25.9712L59.6012 26.1852L59.3869 26.5397L59.4238 26.9683C59.4461 27.1897 60.0443 27.3597 61.2186 27.4778C61.2111 27.404 61.2483 27.3597 61.3293 27.3522C61.3516 27.6181 61.2777 28.135 61.1078 28.9032L61.2334 28.8958C61.7207 28.2311 61.9498 27.7731 61.9275 27.5222L62.0311 27.5147C62.1492 27.5073 62.2748 27.6403 62.4225 27.9282C62.2748 27.9874 61.7578 29.1616 60.8715 31.4587L60.9971 31.6653L61.1227 31.6581C62.2082 28.9106 62.8877 27.3891 63.1684 27.1011C64.5938 26.9755 67.0606 26.7245 70.5613 26.3477L70.7828 26.2149C70.7902 26.2888 70.8346 26.3257 70.9158 26.3183L71.1447 26.2962L71.3664 26.1632C71.3736 26.237 71.418 26.2739 71.4992 26.2665L74.1506 26.0376C74.8523 25.9786 75.1846 25.7643 75.1551 25.4024C75.1477 25.3065 75.5613 25.1956 76.3959 25.0774C76.4772 25.07 76.5953 25.0923 76.7578 25.144C76.7504 25.0774 77.1713 25.011 78.0133 24.9372C78.0356 24.494 78.1758 24.2577 78.427 24.2356L78.4047 24.0214C78.1684 24.0434 77.9025 24.1026 77.5924 24.2059C77.0385 24.1765 76.684 24.1321 76.5361 24.0804C76.3885 24.1616 76.2777 24.2059 76.1965 24.2134L74.35 24.2725L74.1285 24.3907C74.1211 24.3241 74.0768 24.2946 73.9955 24.302L73.8922 24.3095L73.6559 24.4276C73.6484 24.361 73.4565 24.3095 73.0723 24.2577L72.8361 24.3979L72.3781 24.4349L72.3707 24.3167C74.7488 24.0583 75.9232 23.7333 75.8936 23.3493C76.0488 23.3345 76.1301 23.4083 76.1447 23.5636L76.8391 23.3862L76.8168 23.172L71.1227 23.327C71.1299 23.4011 71.093 23.4452 71.0119 23.4526L70.3176 23.3936C70.1402 23.4083 69.9926 23.46 69.8744 23.5487L69.616 23.4526C68.8996 23.5118 68.3678 23.6005 68.0133 23.7112C67.5258 23.6743 66.9867 23.6815 66.3885 23.7333L65.1107 23.844L64.5199 23.7776C64.4904 23.4011 65.2215 21.5472 66.7281 18.2237C67.1641 17.1011 67.5627 16.3995 67.9469 16.1337C68.0281 16.1263 68.1463 16.1557 68.3088 16.2222L69.2172 15.912L69.6824 15.9858C70.4652 15.9194 71.3736 15.6979 72.415 15.3138C72.6736 15.2917 72.8656 15.3065 73.0059 15.3655L73.7002 15.203L75.7682 15.0259C76.6469 14.952 77.5996 14.7599 78.6336 14.4423L78.6115 14.2282C78.2275 14.2651 78.0281 14.1987 78.0133 14.0434C77.9912 13.7556 77.7106 13.6374 77.1713 13.6815L77.1492 13.4675L77.718 13.305L79.2098 13.1794L79.1875 12.9653C79.1285 12.9725 78.8258 12.9653 78.2645 12.9431L78.2422 12.7141L78.8184 12.6624C78.9734 12.6477 79.0399 12.5737 79.0252 12.4261C78.2496 12.4483 77.8582 12.4114 77.8508 12.3079C72.4445 12.5737 69.7342 12.6255 69.7193 12.4556C69.6381 12.463 69.5274 12.5147 69.3797 12.6034L69.2393 12.3817C70.6721 9.33895 71.5141 7.80282 71.7578 7.78055C71.765 7.89872 71.7061 8.09071 71.5731 8.3493L71.5805 8.4452L71.8094 8.42313C72.3781 7.06415 72.8582 6.36259 73.257 6.33309C74.9557 6.18524 73.0207 6.0745 76.6543 5.50594C76.8022 5.57235 76.9055 5.60184 76.9793 5.59442C78.4047 5.30653 80.3914 5.0036 82.9395 4.69344L82.9246 4.47919L81.5656 4.60477L81.551 4.39071C81.7135 4.37587 81.8463 4.32411 81.9572 4.23563L81.9645 4.3538C82.0385 4.34637 82.1418 4.29462 82.2748 4.20594C82.5111 4.18387 82.6883 4.20595 82.8139 4.27255C83.2865 4.14696 83.6705 4.07313 83.9512 4.04345L84.8006 3.96219C85.0074 3.82938 85.1033 3.71122 85.0961 3.60048L85.0887 3.50438C84.8744 3.52645 84.6307 3.5118 84.3428 3.46005C84.3354 3.34188 84.3943 3.26063 84.5348 3.22372L86.1152 3.07606L86.8391 2.8913C86.8463 2.97255 86.8834 3.00223 86.9424 3.00223C87.0162 2.99481 87.1197 2.94305 87.2525 2.85438C87.2895 2.8618 87.3338 2.8618 87.3707 2.86923C87.2748 3.06864 87.1639 3.35673 87.0531 3.73329L86.8463 3.74813C86.8316 3.6077 86.7947 3.48231 86.7281 3.37137L86.6248 3.3788C84.7045 8.72587 83.8479 11.2149 82.0754 15.3212C81.7504 16.37 81.4772 16.9534 81.2408 17.079C81.2483 17.1972 81.3221 17.2561 81.4477 17.2415C81.4918 17.7585 81.3736 18.2681 81.0857 18.7702C80.2658 21.1337 79.7193 22.4261 79.4387 22.6624L79.6232 23.7776C79.6307 23.8958 79.5717 23.9622 79.4461 23.977L79.2541 23.9919C79.2244 23.6815 79.1137 23.5339 78.9143 23.5561L78.8109 23.5636C78.5598 23.955 78.3678 24.4054 78.2422 24.9298L78.4342 24.9149C78.6928 24.7452 78.8109 24.5458 78.7887 24.3167L79.1729 24.2798L79.3943 24.361C79.2172 24.6417 79.1359 24.8634 79.1506 25.0331L79.2541 25.2104L79.0029 25.8013L79.0104 25.8974C79.2318 25.8751 79.4756 25.9489 79.7342 26.104C79.9113 26.0893 80.1033 26.0081 80.3176 25.8677C80.5391 25.8456 81.3662 25.8382 82.7918 25.8382L83.508 25.5944C84.3797 25.587 84.5199 25.6093 85.2732 25.5429L85.5834 25.5132L85.7459 25.4024L85.7533 25.4985C86.5436 25.4319 86.5953 25.4837 87.2156 25.5575L87.2231 25.6536L86.7873 25.6905L86.802 25.8751C86.935 25.8604 87.0531 25.8233 87.1492 25.7423C87.26 25.7348 87.3264 25.7938 87.3338 25.9268C87.1566 25.9417 86.9572 25.9858 86.7355 26.0599L86.5436 25.9932C86.2408 26.0745 86.3072 26.0968 86.1004 26.1114L85.7977 26.0524C85.8051 26.104 85.7754 26.1409 85.7238 26.1409C85.7311 26.2593 85.7977 26.3183 85.9084 26.3108L86.2186 26.2813L87.8359 26.1409L88.449 26.0081C88.4565 26.0598 88.4785 26.0893 88.5303 26.0819L88.8256 25.9712L89.3797 25.9268C89.808 25.8899 89.8006 25.8604 90.7311 25.7126C90.7238 25.6536 90.7459 25.6313 90.7902 25.6241L90.7977 25.7052C92.3117 25.4468 92.4076 25.4319 92.6514 25.3507L92.6734 25.395C93.0502 25.3065 92.8359 25.3286 92.9395 25.2548C92.9469 25.3212 92.969 25.3507 93.0059 25.3507L93.2717 25.3286L93.257 25.1292L92.7178 25.1218L92.7106 25.1071C92.6883 25.1143 92.6734 25.1143 92.6514 25.1218H92.5775V25.1366C92.2156 25.2104 92.2082 25.1587 91.9719 25.1809L90.6203 25.2548L90.6129 25.1587L91.3662 25.0554L91.6395 25.0331L91.7947 24.9224L91.802 25.0184C92.8656 24.9298 93.2422 25.1956 98.1609 24.147C98.4268 24.1247 98.4047 23.9032 98.5746 23.4452C98.4845 23.4514 98.3946 23.4309 98.316 23.3862C97.91 23.5413 97.6957 23.4675 96.9129 23.5931C96.8463 23.6005 96.7947 23.5413 96.7725 23.4231L96.765 23.3419L97.5184 23.364C97.6588 23.3493 97.932 23.327 98.3383 23.0981C98.3383 23.1647 98.1904 23.2016 98.2791 23.1942ZM61.9129 23.7776L61.5656 23.8071C61.551 23.6669 61.7356 23.135 62.1195 22.2266L62.3486 22.2046C62.3561 22.4186 62.2156 22.9431 61.9129 23.7776ZM62.3338 22.0938L62.3264 21.9977C62.319 21.8796 62.393 21.7983 62.5555 21.7614L62.5627 21.8573C62.5701 21.9977 62.4963 22.079 62.3338 22.0938ZM66.9498 25.661L66.9572 25.7569L66.3811 25.8087L66.3736 25.7126L66.9498 25.661ZM66.2555 25.6018C66.2629 25.72 66.0857 25.853 65.7016 25.9858L64.9926 25.9343L64.7637 25.9563L64.7416 25.7423L66.2555 25.6018ZM70.9232 4.11747L70.576 4.14696L70.5688 4.0288C70.5613 3.91063 70.6277 3.82938 70.7754 3.79247L70.901 3.78505L71.1373 3.88094C71.1447 4.02137 71.0783 4.10262 70.9232 4.11747ZM76.2039 3.08348L76.3147 3.07606L76.3293 3.29012L76.0117 3.31981C76.0045 3.20165 76.0635 3.1204 76.2039 3.08348ZM74.8744 3.54872L74.35 3.48954L74.3426 3.39364C75.0295 3.33446 75.2584 3.26063 75.6795 3.14247C75.6869 3.22372 75.7607 3.25321 75.8936 3.23856L75.9084 3.45262L75.7016 3.47489C75.5391 3.48954 75.3988 3.46747 75.2807 3.40106C75.1551 3.48231 75.0221 3.53387 74.8744 3.54872ZM75.5318 5.46161L75.5244 5.36552L76.3736 5.28427L76.3811 5.38036L75.5318 5.46161ZM76.4402 4.72294L76.4328 4.60477L76.8463 4.56786L76.8537 4.68602L76.4402 4.72294ZM76.5361 3.27548L76.4254 3.2829L76.5215 3.0538L77.4668 2.96532L77.4742 3.08348C77.2305 3.10555 76.9129 3.17196 76.5361 3.27548ZM77.0162 5.31376L77.0014 5.09969L77.415 5.06278C77.5555 5.04794 77.6293 5.11434 77.6367 5.2622L77.0162 5.31376ZM79.5199 1.90165L78.9881 2.0495L78.8922 2.05673C78.641 2.07899 78.316 2.07157 77.932 2.03466C78.6189 1.99032 79.2762 1.93856 79.5199 1.90165ZM78.9512 4.26512L78.9586 4.36102L78.2275 4.42762L78.2201 4.33153L78.9512 4.26512ZM80.1477 4.83368C80.1402 4.7452 80 4.68602 79.7119 4.65653L78.9809 4.86337L78.4195 4.88544C78.294 4.79677 78.2275 4.73778 78.2201 4.69344L78.8701 4.73036L80.3324 4.49403L81.0783 4.52352L81.0857 4.64169C80.7164 4.6786 80.4063 4.7452 80.1477 4.83368ZM87.6736 2.8913C87.7621 2.89872 87.8213 2.89872 87.8434 2.89872C88.102 2.64774 88.39 2.44833 88.7223 2.3079C88.4565 3.47489 88.0428 4.33895 87.4742 4.90028L87.0606 4.64911C87.4076 3.7702 87.6145 3.1868 87.6736 2.8913ZM86.4033 5.0702L86.5066 5.06278C86.3662 5.3286 86.2408 5.46884 86.1373 5.47626L86.1152 5.19559C86.1816 5.19559 86.2777 5.15126 86.4033 5.0702ZM85.5834 7.02723C85.7828 6.22958 85.9748 5.77919 86.1522 5.66102L86.1596 5.75692C86.0561 6.49559 85.8936 6.887 85.6795 6.91649L85.7164 7.38173C85.5391 7.6329 85.4578 7.82489 85.4652 7.97255L85.3619 7.97997L85.3027 7.33739C85.4209 7.32274 85.517 7.21923 85.5834 7.02723ZM85.2658 8.09071C85.2732 8.20165 85.1994 8.46005 85.0518 8.85887L84.9482 8.8663L84.9262 8.58563C85.0664 8.26063 85.1846 8.09813 85.2658 8.09071ZM79.3059 25.3876L79.2984 25.3065L79.4904 25.2917L79.5125 25.5724C79.4092 25.5798 79.3354 25.5206 79.3059 25.3876ZM87.8213 25.6093C87.8139 25.5429 87.7844 25.5132 87.718 25.5206L87.2379 25.5649L87.2305 25.4688H87.2748L88.4121 25.3729L88.4195 25.4688C88.0871 25.4837 87.8877 25.5354 87.8213 25.6093ZM87.2525 25.3729C87.2969 25.395 87.2748 25.4173 87.2525 25.4319C87.2305 25.4247 87.201 25.4024 87.2525 25.3729ZM87.3117 24.0434L86.6766 24.0952L86.6692 23.9991L87.2451 23.9475L87.7475 23.822C87.7549 23.8809 87.7844 23.9032 87.8508 23.8958C88.449 23.7925 88.39 23.763 88.6779 23.7407C88.774 23.7333 88.8332 23.7925 88.8404 23.9106L87.3117 24.0434ZM89.5348 23.8515C89.1803 23.8145 89.158 23.785 88.907 23.8071L88.8996 23.7259L89.4682 23.6743L89.4756 23.7556C89.4166 23.763 89.6307 23.7776 89.5348 23.8515ZM89.5791 23.7481L89.5717 23.6669L89.8818 23.6374L89.8893 23.7186L89.5791 23.7481ZM90.2658 23.689L90.2586 23.6077C90.3102 23.6005 90.384 23.5636 90.4801 23.4895C90.6352 23.4749 90.7164 23.5782 90.7313 23.6964L90.2658 23.689ZM91.1447 23.5782L91.1373 23.4823L91.5141 23.4526L91.5215 23.5487L91.1447 23.5782ZM91.6692 23.5339C91.6617 23.4231 91.7061 23.3567 91.8022 23.3419L91.9275 23.5044C91.9203 23.4526 91.9424 23.4231 91.9867 23.4157L92.0828 23.5931L91.6692 23.5339ZM86.0932 25.9417L86.0783 25.7569L86.0191 25.7643L86.034 25.9489L86.0932 25.9417ZM99.0695 22.5811C99.1285 22.5442 99.158 22.5073 99.0178 22.4852C98.9512 22.5591 99.0916 22.5811 98.9439 22.5886L98.9512 22.655C98.966 22.6403 99.0029 22.6181 99.0324 22.596L98.9512 22.6624V22.6698L98.7961 22.8692L99.1063 22.7585H99.1434L99.1285 22.5737L99.0695 22.5811ZM99.6086 23.0022L99.5494 23.0097L99.5643 23.1942L100 23.1573C99.9926 23.0391 99.7045 23.0022 99.6086 23.0022ZM98.9365 22.6772L98.9439 22.6698V22.6624C98.9439 22.6624 98.9365 22.6698 98.9365 22.6772Z" fill="black"/>
<path d="M70.5834 9.00653L70.5908 9.12469L70.8346 9.10262C70.8271 9.0288 70.8566 8.91063 70.9084 8.76278L70.8863 8.54872C70.7828 8.55614 70.6795 8.71122 70.5834 9.00653ZM68.2496 3.39364L68.2275 3.17938L67.8803 3.20887L67.9025 3.42313L68.2496 3.39364ZM61.4771 16.0745C61.4623 15.8751 60.842 15.0997 59.616 13.7333C59.5938 13.4823 60.0148 13.1056 60.8789 12.6108L63.3457 10.4616C63.8996 9.75985 64.2244 8.62255 64.3205 7.04208L64.291 6.68016C64.1949 5.587 63.4047 4.70829 61.9055 4.03622C61.0191 3.43798 59.4238 3.10555 57.1197 3.04637C55.2143 3.20887 52.7252 3.88837 49.6604 5.09227C48.8184 5.69794 47.8582 6.30341 46.7799 6.90907L46.7947 7.09383C46.8611 7.08641 46.9645 7.0495 47.0828 6.96825C47.2082 6.9534 47.2822 7.01258 47.2895 7.13075L47.4742 7.03466L47.5627 7.02723L47.5701 7.10848C47.5775 7.20458 46.9129 7.7288 45.5687 8.66688L45.6721 8.85887L45.5834 8.8663L45.3619 8.78505C45.3693 8.85145 45.2732 8.89579 45.0887 8.91063L45.0961 8.99188L45.3102 9.2577C45.2438 9.26512 45.1404 9.23563 45 9.18387C44.6898 9.21337 44.3869 9.37587 44.0842 9.68602L44.2098 9.13954C44.6604 7.19715 44.9705 5.47626 45.133 3.98446L45.1107 3.88837C44.8006 3.68895 44.4979 3.40829 44.2172 3.0538C44.2246 2.82489 44.2246 2.69188 44.2172 2.66239L44.1949 2.58114L44.1064 2.60341C43.1314 4.06571 41.2555 6.562 38.4713 10.0923C36.3516 12.6034 35.2584 13.9991 35.192 14.2798C34.3279 15.1735 33.9143 15.7126 33.9586 15.8974C33.7297 16.045 33.6336 16.1927 33.6707 16.3552C33.6041 16.37 33.5598 16.3477 33.5451 16.2813C33.1758 16.8796 32.6293 17.2636 31.898 17.4335L31.1299 17.6106C31.0266 17.6329 30.9748 17.7067 30.9822 17.8323L31.0045 17.9282L31.2924 17.8618L31.3146 17.9431L30.6646 18.1942L29.5125 18.46L28.907 18.497C28.8184 18.5856 29.3869 18.4895 29.1654 18.5413L28.4121 18.7186C27.9543 18.822 27.7031 18.785 27.6588 18.6005L27.5701 18.6225C27.585 18.7038 27.5924 18.7628 27.5775 18.8145L27.5332 18.63L26.9275 18.7702C26.8834 18.4895 26.0635 17.4704 24.4756 15.7126C24.4461 15.3729 25.0074 14.878 26.1521 14.2356L29.3869 11.3921C30.1107 10.4616 30.5391 8.96962 30.6795 6.91649L30.6352 6.43641C30.5096 4.98895 29.4609 3.82196 27.4889 2.92098C26.3221 2.13075 24.2246 1.70966 21.1965 1.64325C18.6854 1.85731 15.4062 2.75106 11.3736 4.30946C10.2658 5.11434 9.00293 5.912 7.58496 6.70223L7.60703 6.9534C7.70313 6.94598 7.82871 6.89442 7.98379 6.80575C8.14629 6.7909 8.23496 6.86473 8.24961 7.01259L8.50078 6.87216L8.62637 6.86473L8.63359 6.9829C8.64102 7.10106 7.76211 7.78798 5.98223 9.04344L6.12266 9.26512L5.99707 9.27255L5.72383 9.17645C5.73125 9.25028 5.60566 9.30204 5.34707 9.32411L5.36191 9.45712L5.65723 9.78212C5.56133 9.78954 5.42832 9.75985 5.25859 9.70087C4.68242 9.75243 4.12109 10.1661 3.56719 10.9489L3.70762 11.1706C4.1877 10.7274 4.46816 10.5059 4.54941 10.4985L4.5791 10.8604C4.49785 10.8677 4.37227 10.9194 4.20234 11.0081L4.50527 11.4659C5.0772 10.8478 5.72483 10.3044 6.43281 9.84852C6.77988 9.93719 6.96465 10.0479 6.97187 10.1661L7.23789 10.144C9.14336 8.73329 11.0266 7.71415 12.8951 7.08641L12.9174 7.33739C12.5701 7.85438 12.3338 8.1204 12.2082 8.13505C12.223 8.31239 12.2822 8.46747 12.393 8.60048C12.4225 8.91805 11.573 11.0599 9.85234 15.0184C5.94531 24.2208 2.66621 31.0302 0 35.4319C0.00742187 35.5206 0.0591797 35.6388 0.155078 35.7864C0.8125 35.6313 1.22598 35.469 1.40332 35.3138L1.54355 35.2991L1.56582 35.5501L1.80938 35.528L2.06055 35.3878C2.06797 35.4616 2.14922 35.4985 2.31914 35.4837L2.34121 35.7348C2.36328 35.9786 2.22305 36.3477 1.92754 36.8573C1.66172 37.1602 1.37363 37.7954 1.0709 38.763L1.07832 38.8809L1.32207 38.8589C2.38555 37.6698 3.19063 36.5028 3.74453 35.3655C6.84648 34.4571 9.20977 33.5634 10.8494 32.6847C12.4963 32.5442 13.7518 32.1085 14.6086 31.3921L14.5938 31.2593L13.9734 31.4438L13.833 31.4587L13.8184 31.3257C15.0295 31.1411 15.8641 30.8751 16.3295 30.5059C18.6854 28.6889 20.4652 27.404 21.6691 26.6432C24.1434 24.8265 25.7533 23.0538 26.4846 21.3331C26.6174 21.3034 26.7504 21.2739 26.898 21.237C27.2451 21.2223 27.4373 21.2149 27.4889 21.2001C27.4742 21.1337 27.5037 21.0968 27.5701 21.0819C28.124 21.0229 27.8582 21.1188 28.2127 21.0376L29.1434 20.8235L29.2984 20.7864L29.2246 20.8307C29.3279 20.8456 29.4387 20.8382 29.5643 20.8087L29.6307 21.0819L25.3988 27.81L24.4609 28.9845L24.0029 30.5206L24.0916 30.4985L24.5494 30.3065L24.4018 30.9048L24.4461 31.0819L24.5717 31.237C24.5125 31.2518 24.4904 31.2888 24.5051 31.3552L24.5273 31.4513L24.7193 31.4069C25 31.1632 25.1182 30.9417 25.0738 30.7423C25.3766 30.7938 25.576 30.8161 25.6795 30.7866L25.7016 30.8825C25.517 30.9268 25.4209 31.0745 25.4062 31.3257L25.4283 31.4216L25.5318 31.3995C27.068 29.7229 30.8346 23.9845 33.8553 20.0923C33.7592 19.6714 35.3324 19.0878 38.582 18.3345L38.6854 18.3124C38.8035 18.822 38.5525 20.0554 37.932 22.0126C37.5332 23.1942 37.3412 23.844 37.3707 23.9475C36.8537 25.5206 36.61 26.37 36.6396 26.5028L35.4875 30.2768C34.7414 32.212 34.1729 34.2429 33.774 36.3847C33.8404 36.37 33.9439 36.3774 34.0916 36.4143L34.2541 36.2739C34.2687 36.3405 34.3131 36.3626 34.3797 36.3477L34.3131 36.0745L34.8154 36.0598C34.9631 36.0229 35.0887 35.8382 35.192 35.4985C35.1699 34.9889 35.2732 34.7157 35.5021 34.6565C35.8123 33.4454 36.0045 32.8397 36.0709 32.8175C36.359 31.6138 36.573 30.9268 36.7135 30.7569C37.1492 29.1913 37.4668 28.3862 37.6736 28.3345L37.718 28.5265L37.4004 29.3464C36.8463 31.8057 36.2852 33.7481 35.7164 35.1735L35.8789 35.8825L35.9822 35.8604C37.3561 32.9061 39.3354 27.0567 41.9129 18.3124C41.9867 17.5442 42.3561 16.946 43.0133 16.5251L42.8656 16.37L42.8434 16.2888C43.1389 16.2222 43.3457 16.1042 43.4639 15.9417C43.449 15.8751 43.1906 15.7792 42.6883 15.6462L43.9734 10.1366C44.2541 9.88544 44.4166 9.75262 44.4682 9.75262L44.4904 10.0331C44.424 10.0405 44.3205 10.0774 44.2023 10.1587L44.4461 10.5059C44.8893 10.0259 45.3693 9.61219 45.8936 9.26512C46.1596 9.33895 46.2924 9.42762 46.3072 9.5161L46.4992 9.50145C47.9615 8.43055 49.3943 7.66239 50.8051 7.19715L50.8197 7.38173C50.5613 7.77313 50.384 7.97255 50.2881 7.97997C50.3027 8.11298 50.3396 8.23114 50.4062 8.33446C50.4283 8.57821 49.7932 10.203 48.4934 13.2163C45.5244 20.1956 43.0354 25.3581 41.0117 28.7112C41.0191 28.7776 41.0635 28.8663 41.1447 28.9845C41.6396 28.8663 41.9572 28.7407 42.0828 28.6225L42.1713 28.6151L42.1861 28.7997L42.393 28.785L42.5775 28.689C42.585 28.7407 42.6514 28.7628 42.777 28.7556L42.7918 28.955C42.8064 29.1321 42.7031 29.4128 42.4742 29.7968C42.26 30.0259 42.0385 30.5059 41.8021 31.237L41.8094 31.3331L42.0016 31.3182C42.8064 30.4173 43.4195 29.5309 43.8404 28.6595C46.1965 27.9653 47.9912 27.2931 49.2318 26.6284C50.4949 26.5177 51.4475 26.1927 52.0975 25.6462L52.09 25.5501L51.61 25.6905L51.5066 25.6979L51.4992 25.6018C52.415 25.4688 53.0576 25.2622 53.4047 24.989C55.192 23.6151 56.5436 22.6329 57.4594 22.0567C60.3102 19.9815 61.6396 17.9874 61.4771 16.0745ZM60.9896 16.2001L61.0561 16.946C60.9676 17.1307 60.8715 17.2266 60.7828 17.2341L60.6721 15.9638C60.8789 16.0376 60.9822 16.1114 60.9896 16.2001ZM5.06641 10.1884L4.94102 10.1956L4.91875 9.96669L5.42832 9.92235L5.43574 10.0405C5.35449 10.0479 5.22891 10.0923 5.06641 10.1884ZM2.57754 35.0848C2.28223 34.9518 2.01621 34.9003 1.7873 34.9223L1.75781 34.5604C1.74297 34.4202 1.82422 34.3241 2.00156 34.2872C2.16387 34.2725 2.25996 34.3907 2.2748 34.627C2.70312 34.1026 2.93945 33.8368 2.98379 33.8294L3.25703 33.9401C3.16836 34.6786 2.93945 35.0554 2.57754 35.0848ZM29.1729 7.26356C29.0473 7.27841 28.7961 6.887 28.4344 6.11141L28.4121 5.88251C28.6484 5.86044 28.8922 6.24442 29.1506 7.03466L29.1729 7.26356ZM28.8184 4.50887L28.7148 4.75262L25.1033 3.24579C27.5111 3.32704 28.752 3.74813 28.8184 4.50887ZM13.5672 17.6034L13.0576 17.6477L13.0355 17.4186L13.5451 17.3743L13.5672 17.6034ZM13.1535 9.73778L13.2791 9.73036L13.3088 10.0923C13.1906 10.0997 13.0355 10.2768 12.8434 10.6167L12.8213 10.3655C13.0502 10.0923 13.1684 9.88544 13.1535 9.73778ZM12.0826 12.2636L12.127 12.7436L12.0016 12.7511L11.9572 12.271L12.0826 12.2636ZM11.5215 13.1647L11.7652 13.1425C11.743 13.5413 11.6322 13.7556 11.4328 13.7702L11.3072 13.7776C11.4623 13.5118 11.5361 13.305 11.5215 13.1647ZM11.1004 14.4202L11.2408 14.4054L11.248 14.5235L11.0191 14.9077L10.7754 14.9298L10.7682 14.8116C11.0119 14.7895 11.1227 14.664 11.1004 14.4202ZM10.6869 15.5503L10.6131 16.1557L10.4875 16.1632L10.4357 15.5649L10.6869 15.5503ZM6.54355 27.3302C6.38105 28.1573 6.20391 28.5782 6.01914 28.5931L6.01191 28.4749C5.96758 28.0686 6.14473 27.6847 6.54355 27.3302ZM5.78281 28.977L5.79023 29.0952C5.80508 29.2577 5.73125 29.3538 5.56875 29.361L5.56133 29.2429C5.54648 29.1026 5.62031 29.014 5.78281 28.977ZM5.56133 32.3966L5.94531 32.3597L5.96016 32.4927C5.86406 32.4999 5.73848 32.5516 5.5834 32.6403L5.33965 32.6624C5.325 32.5368 5.40625 32.4409 5.56133 32.3966ZM16.4918 29.0214C14.3354 30.0848 13.065 30.8087 12.6883 31.1852C10.3545 31.9977 9.19492 32.4999 9.21719 32.6993C7.1418 33.5192 5.77539 34.1247 5.11816 34.5014C4.96309 34.5161 4.7416 34.4571 4.44609 34.3241C4.40918 33.9032 4.60117 33.5634 5.00742 33.2901C5.36934 33.2606 5.71641 33.3124 6.04883 33.4526C6.43281 33.2532 7.10488 33.0317 8.05762 32.7954L8.03555 32.5442L7.26738 32.6106C7.36328 32.4778 8.10195 32.1307 9.49043 31.5694L9.87441 31.5325L9.88184 31.6507C9.22461 31.7097 8.86269 31.9016 8.78144 32.2489C8.79609 32.404 8.88477 32.4704 9.04727 32.4556C9.54219 32.1454 9.78574 31.9608 9.77852 31.9091C10.7164 31.7319 13.3088 30.3729 17.5555 27.8397L17.5775 28.0686C17.585 28.1794 17.223 28.4895 16.4918 29.0214ZM9.97793 31.1632C10.5982 31.1114 11.1301 30.8604 11.573 30.4247C11.7504 30.4098 11.8465 30.4763 11.8537 30.6313C11.551 30.661 10.9676 30.912 10.1182 31.3995L9.99258 31.4069L9.97793 31.1632ZM20.4875 23.0907L17.2305 25.6757C14.808 27.2636 13.5082 28.0612 13.316 28.0761C9.46094 30.1956 7.06055 31.2962 6.13008 31.3774L5.98965 31.3921C6.10781 30.9563 7.82129 27.4483 11.1447 20.8456C12.607 20.72 14.9113 20.0405 18.0502 18.7999L18.8184 18.7333C20.4062 18.5931 21.5953 18.9032 22.3781 19.6417L22.4225 20.1218C21.8391 21.8132 21.1891 22.8028 20.4875 23.0907ZM14.1211 19.5089L14.6455 19.4645L14.6529 19.5827L14.1285 19.627L14.1211 19.5089ZM21.4846 18.2606L21.8686 18.2237C22.223 18.3936 22.4076 18.5413 22.4225 18.6743L22.4299 18.7925C22.09 18.822 21.7725 18.6446 21.4846 18.2606ZM22.5258 12.3302C22.1861 12.7362 21.2555 13.4306 19.7342 14.4054C19.2318 14.4497 17.3633 15.1735 14.1285 16.5915C13.9668 16.5176 13.7886 16.4871 13.6115 16.5028L13.5895 16.2739C13.5525 15.8087 13.7592 15.2253 14.2172 14.5163C14.4682 13.1868 14.7416 12.4261 15.0443 12.2415L17.74 6.17801C17.7105 5.80126 18.2865 5.51317 19.4682 5.31376L19.8523 5.27684L19.8818 5.62411C21.0414 5.44676 21.765 5.34344 22.0457 5.32118C24.1877 5.13661 25.3027 5.57235 25.3914 6.61376L25.6352 6.59149L25.5834 5.9786L25.8494 5.95634C26.4771 6.30341 26.8168 6.7245 26.8611 7.21923C26.8906 7.55907 26.7061 7.97997 26.3146 8.48231C26.1521 8.49696 26.0561 8.3788 26.0414 8.14247L25.7754 8.16473L25.7164 8.90321C24.6307 10.528 23.8404 11.3626 23.3531 11.4069C22.91 12.0198 22.6367 12.3227 22.5258 12.3302ZM24.1803 16.5768C23.9586 16.429 23.7814 16.3626 23.6484 16.37L23.6189 16.0081L23.8627 15.9858L24.4018 16.3036C24.424 16.4733 24.35 16.562 24.1803 16.5768ZM25.8938 18.6077C26.1301 18.7038 26.2703 18.8071 26.2998 18.9032L26.1816 18.9327L26.1891 18.9401C26.167 18.9401 26.1373 18.9475 26.1152 18.955L25.9379 19.0952L25.8938 18.6077ZM26.0561 19.627L26.034 19.5309L26.3441 19.4571L26.3664 19.5532L26.0561 19.627ZM26.8021 20.4616C27.1197 20.4098 27.2748 20.3878 27.8656 20.2548L27.8877 20.3507L26.7652 20.6093C26.7799 20.5575 26.7947 20.5059 26.8021 20.4616ZM27.8951 20.9268C27.4225 20.9712 27.5258 20.912 26.7725 21.0819L26.7504 20.9858L27.6957 20.6831L28.1463 20.5798L28.1906 20.7569C27.9838 20.8013 28.1314 20.8013 27.8951 20.9268ZM28.8922 20.6905C28.7814 20.72 28.6928 20.6684 28.641 20.5429L28.9291 20.4763C29.0547 20.4468 29.1359 20.4985 29.1654 20.6241L28.8922 20.6905ZM31.5953 17.7806L31.573 17.6847L32.0385 17.5737L32.0828 17.7511L31.5953 17.7806ZM34.483 35.4911C34.5125 35.3581 34.5199 35.2622 34.5051 35.1956L34.6086 35.1735C34.7342 35.144 34.808 35.1884 34.8375 35.3065L34.8598 35.4024L34.483 35.4911ZM36.5066 18.5413L36.2998 18.5044C35.9676 18.6374 35.6869 18.7333 35.4578 18.785L35.2658 18.8294C35.1551 18.8589 35.0664 18.8145 35.0221 18.6964L36.3736 18.3862L36.8168 18.1794L36.9646 18.3493C36.7504 18.3936 36.5953 18.46 36.5066 18.5413ZM37.548 18.2089L37.5258 18.113C37.5924 18.0981 37.6809 18.0466 37.777 17.9505L38.7371 17.7288L38.7592 17.8249C38.2496 17.9505 37.8434 18.0761 37.548 18.2089ZM37.6957 16.2665C37.6293 16.2813 37.5406 16.3403 37.4299 16.429C37.415 16.3626 37.2822 16.3626 37.0311 16.4216C36.9867 16.237 37.6957 15.9786 39.1654 15.6388L39.3723 15.5944L39.4166 15.7718C38.3826 16.0745 37.8064 16.2444 37.6957 16.2665ZM40.2807 13.4749C40.1773 14.6491 39.7637 15.3138 39.0324 15.4837L39.0104 15.3878L38.3604 15.6388L38.0725 15.7054C37.9246 15.7423 37.7918 15.7348 37.6736 15.6979L37.6145 15.4393C37.5924 15.3434 38.5303 14.0434 40.4357 11.5472L40.6572 11.5841C40.7385 11.9239 40.6131 12.5516 40.2807 13.4749ZM44.8523 9.56044L44.7637 9.56786L44.7488 9.38329L45.133 9.34637L45.1402 9.44227C45.0738 9.45712 44.9779 9.49403 44.8523 9.56044ZM42.9689 28.4749C42.7475 28.3714 42.548 28.327 42.3781 28.3419L42.3561 28.0612C42.3486 27.9653 42.4076 27.8987 42.5332 27.8618C42.6588 27.8472 42.7326 27.9356 42.7475 28.1276C43.065 27.7216 43.2422 27.5147 43.2791 27.5147L43.4785 27.596C43.4047 28.1573 43.235 28.4526 42.9689 28.4749ZM63.1609 7.35223C63.065 7.35965 62.8803 7.06415 62.5924 6.46591L62.5775 6.28134C62.7621 6.26649 62.9543 6.55458 63.1463 7.1454L63.1609 7.35223ZM62.8951 5.23993L62.8064 5.43192L60.0738 4.28719C61.898 4.34637 62.8434 4.66395 62.8951 5.23993ZM51.3072 15.1884L50.9232 15.2253L50.9084 15.0405L51.2924 15.0036L51.3072 15.1884ZM50.9896 9.21337L51.093 9.20594L51.1152 9.48661C51.0191 9.49403 50.901 9.62704 50.7607 9.88544L50.7459 9.70087C50.9158 9.48661 50.9971 9.32411 50.9896 9.21337ZM50.1846 11.1337L50.2143 11.4956L50.1107 11.503L50.0812 11.1411L50.1846 11.1337ZM49.7488 11.8204L49.9408 11.8057C49.9188 12.1159 49.8375 12.2784 49.6973 12.2931L49.5938 12.3005C49.7045 12.0938 49.7563 11.9313 49.7488 11.8204ZM49.4387 12.7659L49.5273 12.7585L49.5348 12.8544L49.3648 13.1499L49.1729 13.1647L49.1654 13.0686C49.3648 13.0538 49.4535 12.9505 49.4387 12.7659ZM49.1285 13.6225L49.0621 14.0952L48.9734 14.1026L48.9365 13.6374L49.1285 13.6225ZM45.9748 22.5811C45.8494 23.2016 45.7164 23.5192 45.576 23.5339L45.5687 23.4526C45.5465 23.1425 45.6795 22.847 45.9748 22.5811ZM45.3914 23.8294L45.3988 23.9106C45.4137 24.0434 45.3545 24.1173 45.2215 24.1247L45.2143 24.0288C45.2068 23.9327 45.2658 23.8663 45.3914 23.8294ZM45.2289 26.429L45.5244 26.4069L45.5316 26.5028C45.4652 26.5102 45.3619 26.5472 45.2437 26.6138L45.0518 26.6284C45.0443 26.5251 45.1033 26.4587 45.2289 26.429ZM53.5229 23.8663C51.898 24.6714 50.9305 25.2179 50.6277 25.4985C48.8553 26.1188 47.9764 26.5028 47.9912 26.6579C46.418 27.2858 45.384 27.7362 44.8967 28.0243C44.7785 28.0317 44.6086 27.9874 44.3869 27.8841C44.3574 27.5665 44.5051 27.3079 44.8154 27.1159C45.0961 27.0938 45.3619 27.1307 45.6057 27.2341C45.901 27.0864 46.4105 26.9239 47.1344 26.7391L47.1197 26.5546L46.5215 26.6063C46.5953 26.5028 47.1639 26.237 48.2201 25.8087L48.5154 25.7864L48.5229 25.8677C48.0207 25.912 47.74 26.0598 47.6809 26.3257C47.6883 26.4438 47.7621 26.5028 47.8877 26.4882C48.257 26.2444 48.4342 26.104 48.4342 26.0599C49.1434 25.9343 51.1078 24.9003 54.3354 22.9653L54.35 23.1499C54.35 23.2237 54.0768 23.46 53.5229 23.8663ZM48.5746 25.4911C49.0547 25.4468 49.4609 25.2622 49.8006 24.9372C49.9262 24.9298 50 24.9815 50.0074 25.0997C49.7857 25.1218 49.35 25.3065 48.6928 25.661L48.5895 25.6682L48.5746 25.4911ZM56.5658 19.3538L54.1064 21.3331C52.2674 22.5368 51.2703 23.1425 51.1152 23.1573C48.1906 24.7673 46.3736 25.6018 45.6572 25.661L45.5539 25.6682C45.6426 25.336 46.9498 22.6698 49.4756 17.6624C50.576 17.5665 52.3191 17.0421 54.7119 16.0968L55.3102 16.045C56.5141 15.9417 57.415 16.178 58.0059 16.7466L58.0355 17.1085C57.585 18.3788 57.0975 19.1247 56.5658 19.3538ZM51.7355 16.6358L52.1197 16.5989L52.127 16.695L51.743 16.7319L51.7355 16.6358ZM57.3264 15.6831L57.6219 15.661C57.8951 15.7938 58.0355 15.912 58.0428 16.0081L58.0502 16.0893C57.7918 16.1114 57.548 15.9786 57.3264 15.6831ZM58.102 11.1852C57.8434 11.4956 57.1418 12.0272 55.9971 12.7659C55.6131 12.8028 54.1949 13.3493 51.743 14.4128C51.6248 14.3684 51.4918 14.3538 51.3516 14.361L51.3367 14.1765C51.3072 13.822 51.4623 13.3788 51.8021 12.8397C51.9941 11.8204 52.2082 11.2518 52.4299 11.1188L54.4904 6.51024C54.4682 6.237 54.9039 6.01551 55.7902 5.84559L56.0857 5.82352L56.1078 6.10399C56.9793 5.96376 57.5258 5.88251 57.7475 5.86044C59.3723 5.72001 60.2215 6.04501 60.2881 6.84266L60.4801 6.82782L60.4432 6.38466L60.6352 6.37001C61.1078 6.62841 61.359 6.93856 61.3885 7.3079C61.4105 7.57372 61.2777 7.89872 60.9971 8.27548C60.8715 8.29012 60.7977 8.20165 60.7828 8.00946L60.5908 8.0243L60.5318 8.57821C59.7119 9.82645 59.1137 10.4688 58.7371 10.4985C58.4047 10.9489 58.1978 11.178 58.102 11.1852ZM58.966 14.2577L58.9439 13.977L59.1359 13.9624L59.5494 14.2134C59.5568 14.3315 59.4978 14.3981 59.3723 14.4128C59.1949 14.302 59.0621 14.2503 58.966 14.2577ZM24.5863 32.1972L24.3943 32.2415L24.2318 32.3817C24.2615 32.4999 24.3354 32.5442 24.4609 32.5147C24.5863 32.4852 24.6381 32.4114 24.6086 32.2932L24.5863 32.1972ZM23.8553 30.7423L23.8773 30.8382C24.0029 30.8087 24.0547 30.7348 24.0252 30.6167L24.0029 30.5206C23.8848 30.5501 23.833 30.6241 23.8553 30.7423ZM29.0842 20.9194L29.2246 20.8307C29.1949 20.8307 29.1729 20.8233 29.1506 20.8161C29.099 20.8307 29.0768 20.8677 29.0842 20.9194ZM29.0547 18.3714L29.2762 18.3198L29.2318 18.1276L29.0104 18.1794L29.0547 18.3714ZM81.2482 25.8307L80.7459 25.7718L80.6572 25.9638L80.6646 26.0599L83.6559 25.8087L83.641 25.6241L81.2482 25.8307ZM83.9809 25.6018L83.9955 25.7864H84.025L84.0104 25.6018H83.9809ZM96.5287 23.9622L96.5436 24.147L96.8686 24.2059L96.8537 24.0214L96.5287 23.9622ZM96.0709 23.9991C93.8258 24.5014 93.5451 24.4128 93.0725 24.4497L93.0871 24.6343L93.2939 24.6196L93.4047 24.6122L93.3752 24.5901L93.6189 24.494C95.842 24.2503 96.1004 24.339 96.0783 24.0878L96.0709 23.9991ZM82.5924 20.7348L82.393 20.6684C82.2305 21.104 82.1492 21.3626 82.1566 21.4364L82.1639 21.5177C82.3191 21.5102 82.4594 21.2444 82.5924 20.7348ZM79.8893 19.28L79.8818 19.1839L79.7785 19.1913L79.5938 19.3095L79.6973 19.4866C79.8375 19.472 79.9039 19.4054 79.8893 19.28ZM85.7607 25.3507L85.7459 25.1661L85.6869 25.1735L85.7016 25.3581L85.7607 25.3507ZM97.9469 22.6034L98.0871 22.5886C98.1684 22.5811 98.2053 22.5147 98.1979 22.3966L98.1166 22.2192C97.607 22.2636 97.3707 22.2858 96.9572 22.5147L96.9498 22.4186L96.3367 22.4778C96.3221 22.2931 96.2703 22.1972 96.1891 22.2046L95.8715 22.2341C95.5022 22.2636 95.325 22.2489 95.1402 22.3891C95.133 22.3227 95.1107 22.2931 95.0738 22.2931L94.7193 22.3227L94.5125 22.4409C94.5051 22.3743 94.483 22.3448 94.4461 22.3448L94.3205 22.4556L94.3131 22.3597L93.8184 22.3227L93.7002 22.3302L93.7148 22.5147L93.966 22.5811L94.2023 22.5665C94.2836 22.6181 94.3723 22.6329 94.4756 22.6255L94.6824 22.5222L94.6898 22.6034C93.5303 22.8913 93.5377 22.8397 92.74 22.9725C92.6514 22.9136 92.585 22.8841 92.5406 22.8913L92.5258 22.9061C92.4373 22.8987 92.3856 22.8397 92.3781 22.7436L92.7918 22.6919C92.8213 22.6919 92.8434 22.7216 93.0723 22.7659C93.4047 22.6034 93.4195 22.5368 93.5967 22.5222L93.582 22.3374C92.4445 22.5591 92.9025 22.4112 91.4771 22.5368L91.4105 22.5442L91.3959 22.3597C93.2275 22.138 92.6144 22.2636 93.2422 22.0864C93.2496 22.1528 93.2719 22.1823 93.3088 22.1823C93.3761 22.1136 93.4644 22.0694 93.5598 22.0567L93.6854 22.0495C94.3279 21.9977 94.5422 22.1233 95.8125 21.7688L95.8197 21.8501L96.0266 21.7466L96.2186 21.7319C96.2039 21.5472 96.4846 21.5177 96.5805 21.5102L96.5658 21.3108C94.3354 21.7614 93.7518 21.6358 93.1314 21.8132L93.124 21.7319C92.5406 21.8352 92.5186 21.7909 92.3707 21.7983C92.3264 21.8057 92.26 21.8427 92.1861 21.9165C92.1787 21.8501 92.1566 21.8204 92.1123 21.8204C92.09 21.8204 92.0828 21.8278 92.0754 21.8278L90.1846 22.138C90.1773 22.0864 90.1551 22.0567 90.1107 22.0641C89.1285 22.271 89.3943 22.3079 88.0797 22.4261C88.0207 22.4335 87.9395 22.463 87.8361 22.5294C87.8287 22.4778 87.799 22.4483 87.7326 22.4556L86.9275 22.5222L86.3885 22.655C86.3811 22.6034 86.3516 22.5737 86.2852 22.5811C85.9822 22.6624 85.7164 22.7141 85.5022 22.7288H85.4875C85.3545 22.7436 85.5539 22.6919 85.4506 22.6477L85.2881 22.7436C85.0518 22.7659 85.1773 22.7288 84.3648 22.7362C82.9395 22.9136 83.0945 22.9356 82.9395 22.9431L82.4076 22.9061C82.415 22.9579 82.3855 22.9948 82.3264 22.9948C81.7209 22.9136 81.4107 22.8175 81.4033 22.7067C81.4846 22.1307 81.6248 21.8352 81.8242 21.8204L81.9277 21.8132L81.8391 22.0052L81.9424 21.9977C82.1344 21.8942 82.223 21.7983 82.2156 21.7097L82.201 21.5102L82.0088 21.5251L81.9941 21.3403C81.9793 21.2001 82.0016 21.0745 82.0531 20.9712L82.4889 20.2694L82.5037 20.4542L82.7105 20.4393L82.6957 20.2548L82.5775 20.0848C82.7326 19.9518 82.8508 19.878 82.9469 19.8706L82.9395 19.7747L82.6588 19.7968L82.6367 19.5161C83.1981 18.3493 83.4639 17.6698 83.449 17.4778L83.6484 17.5591C83.774 17.5516 83.833 17.4778 83.8258 17.3448L83.6336 17.3597L83.6264 17.2784C83.6127 17.1435 83.6383 17.0076 83.7002 16.887C84.0029 16.5694 84.1434 16.2518 84.1137 15.9194C84.1729 15.912 84.2023 15.9417 84.2098 16.0081C84.4684 15.8604 84.6678 15.4688 84.8154 14.819C85.2732 13.9919 85.9232 12.3374 86.7725 9.86337C88.3975 5.4911 88.3309 5.02587 88.5598 3.99188L88.3678 4.00653C88.3826 4.13954 88.3531 4.26512 88.2939 4.38329C88.1609 4.33153 88.0576 4.30204 87.9838 4.30946L87.9764 4.22821C87.9469 3.85145 88.102 3.40106 88.4564 2.86923L88.5451 2.8618L88.7076 3.49696L88.8996 3.48231C88.8922 3.43798 88.9439 3.1868 89.0473 2.72157C89.0398 2.62548 88.966 2.56649 88.8184 2.55907L88.6338 2.67723C88.6189 2.54423 88.6264 2.19716 88.6484 1.64325L88.5523 1.65067C88.39 1.48817 88.3088 1.35516 88.3014 1.24442L87.2451 1.34774C87.2379 1.27391 87.201 1.16317 87.127 1.02274C87.1197 0.926843 87.3561 0.830749 87.8434 0.734851L88.0576 0.816101L88.257 0.697937C88.2645 0.764343 88.3014 0.793835 88.3752 0.786414L88.5746 0.66825C88.582 0.734851 88.6189 0.764343 88.6928 0.756921L88.7889 0.749499L88.774 0.535437C88.6264 0.550085 88.235 0.550085 87.6145 0.528015L87.415 0.661023L87.4076 0.542859C82.452 0.948914 79.6381 1.17802 78.966 1.24442C78.8773 1.25184 78.5303 1.24442 77.9174 1.22958C77.9246 1.31083 77.8508 1.35516 77.7031 1.37001L77.4889 1.27391L76.7652 1.45868C76.5953 1.47333 76.3072 1.46591 75.9084 1.42157C75.7977 1.51024 75.6646 1.562 75.5022 1.57684C75.4137 1.58407 76.5584 1.51766 77.6219 1.44384C77.5111 1.53251 77.3412 1.58407 77.1049 1.60634C76.9424 1.62098 76.8021 1.59891 76.684 1.53251C76.5215 1.60634 75.9971 1.7245 75.1182 1.90165L74.9041 1.8204L71.4477 2.35223C71.3147 2.28583 71.1596 2.26356 70.9822 2.27841C70.7977 2.29305 70.4875 2.35966 70.0592 2.47782L68.39 3.17196L68.5154 3.3788C68.5967 3.37137 68.7148 3.32704 68.8553 3.24579L69.4461 3.29755L69.3723 3.85145C68.8258 4.0952 68.5082 4.45712 68.4195 4.91493C67.5998 5.27684 67.1936 5.53544 67.1936 5.69051L67.201 5.78641L67.3264 5.77919L67.548 5.66102L67.8064 5.97118L67.8434 6.3995C67.8582 6.53251 66.4771 9.43485 63.7148 15.1071C61.3221 20.5723 60.0664 23.5636 59.9482 24.1026C59.1285 24.3315 58.6559 24.664 58.5154 25.1071C58.5303 25.2473 58.774 25.3434 59.2467 25.3804L59.2687 25.5944L59.0547 25.9489L59.0916 26.3774C59.1137 26.5989 59.7119 26.7688 60.8863 26.887C60.8789 26.8132 60.9158 26.7688 60.9971 26.7614C61.0191 27.0272 60.9453 27.5442 60.7754 28.3124L60.901 28.305C61.3885 27.6403 61.6174 27.1823 61.5953 26.9313L61.6986 26.9239C61.8168 26.9165 61.9424 27.0495 62.09 27.3374C61.9424 27.3966 61.4254 28.5708 60.5391 30.8677L60.6646 31.0745L60.7902 31.0671C61.876 28.3198 62.5555 26.7983 62.8359 26.5102C64.2615 26.3847 66.7281 26.1337 70.2289 25.7569L70.4506 25.6239C70.4578 25.6979 70.5021 25.7348 70.5834 25.7274L70.8125 25.7052L71.034 25.5723C71.0414 25.6462 71.0857 25.6831 71.167 25.6757L73.8184 25.4468C74.5199 25.3876 74.8523 25.1735 74.8227 24.8116C74.8154 24.7155 75.2289 24.6048 76.0635 24.4866C76.1447 24.4792 76.2629 24.5015 76.4254 24.553C76.418 24.4866 76.8391 24.4202 77.6811 24.3464C77.7031 23.9032 77.8434 23.6669 78.0945 23.6446L78.0725 23.4306C77.8361 23.4526 77.5701 23.5118 77.26 23.6151C76.7061 23.5856 76.3516 23.5413 76.2039 23.4895C76.0561 23.5708 75.9453 23.6151 75.8641 23.6225L74.0178 23.6815L73.7961 23.7997C73.7887 23.7333 73.7445 23.7038 73.6633 23.7112L73.5598 23.7184L73.3234 23.8368C73.316 23.7702 73.124 23.7184 72.74 23.6669L72.5037 23.8071L72.0459 23.844L72.0385 23.7259C74.4166 23.4675 75.5908 23.1425 75.5613 22.7585C75.7164 22.7436 75.7977 22.8175 75.8123 22.9725L76.5066 22.7954L76.4846 22.5811L70.7902 22.7362C70.7977 22.81 70.7607 22.8544 70.6795 22.8618L69.9852 22.8028C69.808 22.8175 69.6604 22.8692 69.5422 22.9579L69.2836 22.8618C68.5672 22.921 68.0354 23.0095 67.6809 23.1204C67.1936 23.0835 66.6543 23.0907 66.0561 23.1425L64.7785 23.2532L64.1877 23.1868C64.158 22.81 64.8893 20.9563 66.3959 17.6329C66.8316 16.5102 67.2305 15.8087 67.6145 15.5429C67.6957 15.5354 67.8139 15.5649 67.9764 15.6313L68.8848 15.3212L69.35 15.395C70.133 15.3286 71.0414 15.1071 72.0828 14.7229C72.3412 14.7009 72.5332 14.7157 72.6736 14.7747L73.3678 14.6122L75.4357 14.4349C76.3146 14.361 77.2674 14.169 78.3014 13.8515L78.2791 13.6374C77.8951 13.6743 77.6957 13.6077 77.6811 13.4526C77.6588 13.1647 77.3781 13.0464 76.8391 13.0907L76.8168 12.8766L77.3855 12.7141L78.8773 12.5886L78.8553 12.3745C78.7961 12.3817 78.4934 12.3745 77.932 12.3522L77.91 12.1233L78.4859 12.0716C78.641 12.0569 78.7076 11.9829 78.6928 11.8352C77.9174 11.8573 77.5258 11.8204 77.5186 11.7171C72.1123 11.9829 69.4018 12.0347 69.3871 11.8647C69.3059 11.8722 69.1949 11.9239 69.0473 12.0126L68.907 11.7909C70.3396 8.74813 71.1816 7.2118 71.4254 7.18973C71.4328 7.3079 71.3736 7.49989 71.248 7.75848L71.2555 7.85438L71.4846 7.83231C72.0531 6.47333 72.5332 5.77176 72.932 5.74227C74.6307 5.59442 72.6957 5.48368 76.3295 4.91493C76.4771 4.98153 76.5805 5.01102 76.6543 5.0036C78.0797 4.71552 80.0664 4.41278 82.6144 4.10262L82.5996 3.88837L81.2408 4.01395L81.226 3.79969C81.3885 3.78505 81.5215 3.73329 81.6322 3.64462L81.6396 3.76278C81.7135 3.75555 81.8168 3.7038 81.9498 3.61512C82.1861 3.59305 82.3633 3.61512 82.4889 3.68153C82.9615 3.55614 83.3457 3.48212 83.6264 3.45262L84.4756 3.37137C84.6824 3.23856 84.7785 3.1204 84.7711 3.00946L84.7637 2.91356C84.5494 2.93563 84.3059 2.92098 84.0178 2.86923C84.0104 2.75106 84.0693 2.66981 84.2098 2.6329L85.7902 2.48524L86.5141 2.30048C86.5215 2.38173 86.5584 2.41122 86.6174 2.41122C86.6912 2.40399 86.7947 2.35223 86.9275 2.26356C86.9646 2.27098 87.0088 2.27098 87.0457 2.27841C86.9498 2.47782 86.8391 2.76591 86.7281 3.14247L86.5215 3.15731C86.5066 3.01688 86.4697 2.8913 86.4033 2.78055L86.2998 2.78798C84.3797 8.13505 83.5229 10.6241 81.7504 14.7304C81.4254 15.7792 81.1521 16.3626 80.9158 16.4882C80.9232 16.6063 80.9971 16.6653 81.1227 16.6507C81.167 17.1677 81.0488 17.6772 80.7607 18.1794C79.9408 20.5429 79.3943 21.8352 79.1137 22.0716L79.2984 23.1868C79.3057 23.305 79.2467 23.3714 79.1211 23.3862L78.9291 23.4011C78.8996 23.0907 78.7887 22.9431 78.5895 22.9653L78.4859 22.9725C78.2348 23.364 78.0428 23.8145 77.9174 24.339L78.1094 24.3241C78.3678 24.1544 78.4859 23.955 78.4639 23.7259L78.8478 23.689L79.0693 23.7702C78.8922 24.0509 78.8109 24.2725 78.8258 24.4423L78.9291 24.6196L78.6779 25.2104L78.6853 25.3065C78.907 25.2843 79.1506 25.3581 79.4092 25.5132C79.5863 25.4985 79.7785 25.4173 79.9926 25.2768C80.2143 25.2548 81.0414 25.2474 82.4668 25.2474L83.1832 25.0036C84.0547 24.9962 84.1949 25.0184 84.9482 24.9518L85.2584 24.9223L85.4209 24.8116L85.4283 24.9077C86.2186 24.8411 86.2703 24.8929 86.8906 24.9667L86.898 25.0628L86.4623 25.0997L86.4771 25.2843C86.61 25.2694 86.7281 25.2325 86.8242 25.1513C86.935 25.144 87.0014 25.203 87.0088 25.336C86.8316 25.3507 86.6322 25.395 86.4105 25.4688L86.2186 25.4024C85.9158 25.4837 85.9822 25.5057 85.7754 25.5206L85.4727 25.4616C85.4801 25.5132 85.4506 25.5501 85.3988 25.5501C85.4062 25.6682 85.4727 25.7274 85.5834 25.72L85.8936 25.6905L87.5111 25.5501L88.124 25.4173C88.1314 25.4688 88.1535 25.4985 88.2053 25.4911L88.5008 25.3804L89.0547 25.336C89.483 25.2991 89.4756 25.2694 90.4062 25.1218C90.3988 25.0628 90.4209 25.0405 90.4652 25.0331L90.4727 25.1143C91.9867 24.8559 92.0826 24.8411 92.3264 24.7598L92.3486 24.8042C92.7252 24.7155 92.5111 24.7378 92.6145 24.6639C92.6219 24.7304 92.6439 24.7598 92.6809 24.7598L92.9469 24.7378L92.932 24.5384L92.393 24.5309L92.3856 24.5161C92.3633 24.5235 92.3486 24.5235 92.3264 24.5309H92.2525V24.5458C91.8906 24.6196 91.8832 24.5679 91.6469 24.5901L90.2953 24.6639L90.2881 24.5679L91.0414 24.4645L91.3147 24.4423L91.4697 24.3315L91.4771 24.4276C92.5406 24.339 92.9172 24.6048 97.8359 23.5561C98.102 23.5339 98.0797 23.3124 98.2496 22.8544C98.1595 22.8606 98.0697 22.8401 97.9912 22.7954C97.585 22.9505 97.3707 22.8766 96.5879 23.0022C96.5215 23.0097 96.4697 22.9505 96.4475 22.8323L96.44 22.7511L97.1934 22.7731C97.3338 22.7585 97.607 22.7362 98.0133 22.5073C98.0133 22.5737 97.8582 22.6106 97.9467 22.6034H97.9469ZM61.5805 23.1868L61.2334 23.2163C61.2186 23.0761 61.4033 22.5442 61.7873 21.6358L62.0162 21.6138C62.0236 21.8278 61.8832 22.3522 61.5805 23.1868ZM62.0016 21.5028L61.9941 21.4069C61.9867 21.2888 62.0605 21.2075 62.223 21.1706L62.2305 21.2665C62.2379 21.4069 62.1639 21.4882 62.0016 21.5028ZM66.6174 25.07L66.6248 25.1661L66.0488 25.2179L66.0414 25.1218L66.6174 25.07ZM65.9232 25.011C65.9307 25.1292 65.7533 25.2622 65.3693 25.395L64.6602 25.3434L64.4313 25.3655L64.4092 25.1513L65.9232 25.011ZM70.5908 3.52645L70.2438 3.55614L70.2363 3.43798C70.2289 3.31981 70.2955 3.23856 70.4432 3.20165L70.5688 3.19423L70.8051 3.29012C70.8123 3.43055 70.7459 3.5118 70.5908 3.52645ZM75.8715 2.49247L75.9822 2.48524L75.9971 2.6993L75.6795 2.7288C75.6721 2.61063 75.7311 2.52958 75.8715 2.49247ZM74.542 2.9579L74.0178 2.89872L74.0104 2.80282C74.6973 2.74364 74.9262 2.66981 75.3471 2.55165C75.3545 2.6329 75.4283 2.66239 75.5613 2.64774L75.576 2.8618L75.3693 2.88407C75.2068 2.89872 75.0664 2.87665 74.9482 2.81005C74.8227 2.8913 74.6898 2.94305 74.542 2.9579ZM75.1994 4.87079L75.192 4.77469L76.0414 4.69344L76.0488 4.78954L75.1994 4.87079ZM76.1078 4.13212L76.1004 4.01395L76.5141 3.97704L76.5215 4.0952L76.1078 4.13212ZM76.2039 2.68466L76.093 2.69188L76.1891 2.46298L77.1344 2.3743L77.1418 2.49247C76.898 2.51473 76.5805 2.58114 76.2039 2.68466ZM76.684 4.72294L76.6691 4.50887L77.0828 4.47196C77.223 4.45712 77.2969 4.52352 77.3043 4.67137L76.684 4.72294ZM79.1875 1.31083L78.6559 1.45868L78.5598 1.46591C78.3088 1.48817 77.9838 1.48075 77.5996 1.44384C78.2865 1.3995 78.9439 1.34774 79.1875 1.31083ZM78.6189 3.6743L78.6264 3.7702L77.8951 3.8368L77.8877 3.74071L78.6189 3.6743ZM79.8154 4.24286C79.808 4.15438 79.6676 4.0952 79.3797 4.06571L78.6484 4.27255L78.0871 4.29462C77.9615 4.20594 77.8951 4.14696 77.8877 4.10262L78.5377 4.13954L80 3.90321L80.7459 3.9327L80.7533 4.05087C80.384 4.08778 80.0738 4.15438 79.8154 4.24286ZM87.3412 2.30048C87.4299 2.3079 87.4889 2.3079 87.5111 2.3079C87.7695 2.05673 88.0576 1.85731 88.39 1.71708C88.124 2.88407 87.7105 3.74813 87.1418 4.30946L86.7281 4.05829C87.0754 3.17938 87.2822 2.59598 87.3412 2.30048ZM86.0709 4.47919L86.1742 4.47196C86.034 4.73778 85.9084 4.87801 85.8051 4.88544L85.7828 4.60477C85.8494 4.60477 85.9453 4.56044 86.0709 4.47919ZM85.2512 6.43641C85.4506 5.63876 85.6426 5.18837 85.8197 5.0702L85.8271 5.1661C85.7238 5.90458 85.5613 6.29618 85.3471 6.32567L85.384 6.79091C85.2068 7.04208 85.1256 7.23407 85.1328 7.38173L85.0295 7.38915L84.9705 6.74657C85.0887 6.73192 85.1846 6.62841 85.2512 6.43641ZM84.9336 7.49989C84.9408 7.61063 84.867 7.86923 84.7193 8.26805L84.616 8.27548L84.5938 7.99481C84.7342 7.66981 84.8523 7.50731 84.9334 7.49989H84.9336ZM78.9734 24.7968L78.966 24.7155L79.158 24.7009L79.1803 24.9815C79.0768 24.989 79.0029 24.9298 78.9734 24.7968ZM87.4889 25.0184C87.4814 24.9518 87.452 24.9223 87.3855 24.9298L86.9055 24.9741L86.898 24.878H86.9424L88.0797 24.7821L88.0871 24.878C87.7549 24.8929 87.5555 24.9446 87.4889 25.0184ZM86.9203 24.7821C86.9647 24.8042 86.9424 24.8265 86.9203 24.8411C86.898 24.8337 86.8686 24.8116 86.9203 24.7821ZM86.9793 23.4526L86.3441 23.5044L86.3367 23.4083L86.9129 23.3567L87.415 23.2311C87.4225 23.2901 87.452 23.3124 87.5186 23.305C88.1168 23.2016 88.0576 23.172 88.3457 23.1499C88.4416 23.1425 88.5008 23.2016 88.5082 23.3198L86.9793 23.4526ZM89.2023 23.2606C88.8479 23.2237 88.8258 23.1942 88.5746 23.2163L88.5672 23.135L89.1359 23.0835L89.1434 23.1647C89.0842 23.172 89.2984 23.1868 89.2023 23.2606ZM89.2467 23.1573L89.2393 23.0761L89.5494 23.0464L89.5568 23.1276L89.2467 23.1573ZM89.9336 23.0981L89.9262 23.0169C89.9779 23.0097 90.0518 22.9725 90.1477 22.8987C90.3027 22.8841 90.384 22.9874 90.3988 23.1056L89.9336 23.0981ZM90.8125 22.9874L90.8051 22.8913L91.1816 22.8618L91.1891 22.9579L90.8125 22.9874ZM91.3367 22.9431C91.3295 22.8323 91.3736 22.7659 91.4697 22.7511L91.5953 22.9136C91.5879 22.8618 91.61 22.8323 91.6543 22.8249L91.7504 23.0022L91.3367 22.9431ZM98.6041 22.0864L98.6115 22.079V22.0716C98.6115 22.0716 98.6041 22.079 98.6041 22.0864ZM98.7371 21.9903C98.7961 21.9534 98.8258 21.9165 98.6854 21.8944C98.6189 21.9682 98.7592 21.9903 98.6115 21.9977L98.6189 22.0641C98.6336 22.0495 98.6707 22.0272 98.7002 22.0052L98.6189 22.0716V22.079L98.4639 22.2784L98.774 22.1677H98.8109L98.7961 21.9829L98.7371 21.9903ZM99.2762 22.4114L99.2172 22.4186L99.2318 22.6034L99.6676 22.5665C99.6604 22.4483 99.3723 22.4114 99.2762 22.4114Z" fill="#F9DC3E"/>
</svg>
