<svg width="100" height="72" viewBox="0 0 100 72" fill="none" xmlns="http://www.w3.org/2000/svg">
<path d="M99.0138 27.2093C98.7425 26.9939 96.2107 25.0822 90.8713 25.0822C89.4615 25.0884 88.0546 25.2093 86.6643 25.4438C85.6309 18.3607 79.7748 14.9073 79.5123 14.7524L78.0785 13.9255L77.1355 15.2863C75.9546 17.1142 75.0925 19.1292 74.5865 21.2456C73.6305 25.2889 74.2118 29.0866 76.2657 32.3333C73.7855 33.7154 69.8069 34.0557 69.0018 34.0858H3.13026C1.40972 34.0881 0.0135775 35.4785 0.00420084 37.1989C-0.0726317 42.9696 0.905059 48.7059 2.88913 54.1253C5.15828 60.0761 8.53415 64.4595 12.9262 67.1421C17.8478 70.1562 25.8439 71.8785 34.9077 71.8785C39.0024 71.8914 43.0893 71.5208 47.115 70.772C52.711 69.7444 58.0959 67.7885 63.0468 64.9847C67.1262 62.6224 70.7976 59.6171 73.9192 56.0845C79.1379 50.1768 82.2469 43.5973 84.559 37.7501H85.4805C91.1944 37.7501 94.7081 35.4636 96.6457 33.5475C97.9334 32.3255 98.9386 30.8368 99.5909 29.1857L100 27.9887L99.0138 27.2093Z" fill="#2496ED"/>
<path d="M9.23598 32.1568H18.063C18.4888 32.1568 18.8337 31.8117 18.8337 31.3861V23.5235C18.8361 23.0977 18.493 22.7508 18.0674 22.7484C18.066 22.7484 18.0644 22.7484 18.063 22.7484H9.23598C8.81025 22.7484 8.46527 23.0935 8.46527 23.5191V23.5235V31.386C8.46527 31.8117 8.81025 32.1568 9.23598 32.1568Z" fill="#2496ED"/>
<path d="M21.4002 32.1568H30.2272C30.653 32.1568 30.998 31.8117 30.998 31.3861V23.5235C31.0003 23.0977 30.6572 22.7508 30.2314 22.7484C30.23 22.7484 30.2285 22.7484 30.2271 22.7484H21.4C20.9719 22.7484 20.625 23.0953 20.625 23.5235V31.386C20.6275 31.8124 20.9738 32.1568 21.4002 32.1568Z" fill="#2496ED"/>
<path d="M33.7494 32.1568H42.5764C43.0022 32.1568 43.3471 31.8117 43.3471 31.3861V23.5235C43.3495 23.0977 43.0064 22.7508 42.5806 22.7484C42.5792 22.7484 42.5777 22.7484 42.5763 22.7484H33.7492C33.3235 22.7484 32.9785 23.0935 32.9785 23.5191V23.5235V31.386C32.9787 31.8117 33.3238 32.1568 33.7494 32.1568Z" fill="#2496ED"/>
<path d="M45.9523 32.1568H54.7793C55.2058 32.1568 55.552 31.8126 55.5544 31.3861V23.5235C55.5544 23.0953 55.2075 22.7484 54.7793 22.7484H45.9523C45.5266 22.7484 45.1816 23.0935 45.1816 23.5191V23.5235V31.386C45.1816 31.8117 45.5267 32.1568 45.9523 32.1568Z" fill="#2496ED"/>
<path d="M21.4002 20.8453H30.2272C30.6535 20.8429 30.9979 20.4965 30.9979 20.0702V12.2077C30.9979 11.782 30.6528 11.437 30.2272 11.437H21.4002C20.9739 11.437 20.6275 11.7813 20.6251 12.2077V20.0702C20.6275 20.4974 20.973 20.8429 21.4002 20.8453Z" fill="#2496ED"/>
<path d="M33.7493 20.8453H42.5764C43.0027 20.8429 43.3471 20.4965 43.3471 20.0702V12.2077C43.3471 11.782 43.002 11.437 42.5764 11.437H33.7493C33.3236 11.437 32.9786 11.7821 32.9786 12.2077V20.0702C32.9786 20.4965 33.3231 20.8429 33.7493 20.8453Z" fill="#2496ED"/>
<path d="M45.9523 20.8453H54.7793C55.2065 20.8429 55.552 20.4974 55.5544 20.0702V12.2077C55.552 11.7813 55.2058 11.437 54.7793 11.437H45.9523C45.5266 11.437 45.1816 11.7821 45.1816 12.2077V20.0702C45.1816 20.4965 45.526 20.8429 45.9523 20.8453Z" fill="#2496ED"/>
<path d="M45.9523 9.52951H54.7793C55.2058 9.52951 55.552 9.18509 55.5544 8.75881V0.891798C55.552 0.465371 55.2058 0.121094 54.7793 0.121094H45.9523C45.5266 0.121094 45.1816 0.46607 45.1816 0.891798V8.75867C45.1816 9.18439 45.5267 9.52951 45.9523 9.52951Z" fill="#2496ED"/>
<path d="M58.2628 32.1568H67.0899C67.5163 32.1568 67.8626 31.8126 67.8649 31.3861V23.5235C67.8649 23.0953 67.518 22.7484 67.0899 22.7484H58.2628C57.8372 22.7484 57.4921 23.0935 57.4921 23.5191V23.5235V31.386C57.4921 31.8117 57.8372 32.1568 58.2628 32.1568Z" fill="#2496ED"/>
</svg>
