<svg width="100" height="88" viewBox="0 0 100 88" fill="none" xmlns="http://www.w3.org/2000/svg">
<path d="M30.455 31.5503L49.4277 20.5964C49.661 20.4616 49.9258 20.3906 50.1952 20.3906C50.4647 20.3906 50.7295 20.4616 50.9628 20.5964L69.9355 31.5503C70.1688 31.685 70.3625 31.8788 70.4973 32.1122C70.632 32.3455 70.703 32.6101 70.7031 32.8796V54.7874C70.7031 55.3354 70.4101 55.8421 69.9355 56.1167L50.9628 67.0706C50.7295 67.2054 50.4647 67.2763 50.1952 67.2763C49.9258 67.2763 49.661 67.2054 49.4277 67.0706L30.455 56.1167C30.2217 55.9819 30.0279 55.7882 29.8932 55.5548C29.7584 55.3215 29.6875 55.0568 29.6874 54.7874V32.8792C29.6878 32.3307 29.9804 31.8245 30.455 31.5499" fill="#8080F2"/>
<path d="M99.3816 42.0382L76.6886 2.55884C75.8644 1.1315 74.3418 0.0783691 72.6933 0.0783691H27.3069C25.6584 0.0783691 24.135 1.1315 23.3108 2.55884L0.618165 41.9511C-0.206055 43.3788 -0.206055 45.1808 0.618165 46.6085L23.3108 85.7645C24.135 87.1918 25.6584 87.9215 27.3069 87.9215H72.6929C74.3414 87.9215 75.8644 87.2137 76.6882 85.786L99.3812 46.5664C100.206 45.1394 100.206 43.4656 99.3812 42.0382H99.3816ZM80.5906 61.0226C80.5906 61.6027 80.2414 62.1398 79.7382 62.4305L50.8323 79.1074C50.5834 79.25 50.3016 79.3251 50.0147 79.3251C49.7279 79.3251 49.446 79.25 49.1972 79.1074L20.269 62.4305C19.7663 62.1398 19.4143 61.6031 19.4143 61.0222V27.6675C19.4143 27.0866 19.7612 26.5503 20.2643 26.2597L49.1687 9.58229C49.4174 9.43946 49.6992 9.3643 49.986 9.3643C50.2729 9.3643 50.5547 9.43946 50.8034 9.58229L79.7332 26.2597C80.2367 26.5503 80.5906 27.0866 80.5906 27.6675V61.0222V61.0226Z" fill="#4B32C3"/>
</svg>
