<svg width="74" height="100" viewBox="0 0 74 100" fill="none" xmlns="http://www.w3.org/2000/svg">
<path d="M48.3061 36.1197L38.3053 45.4313L29.022 26.6986L33.8177 15.9275C35.0298 13.779 37.0121 13.7506 38.2242 15.9275L48.3061 36.1197Z" fill="#FFA000"/>
<path d="M38.3095 45.4273L0.900635 80.2214L29.0262 26.6986L38.3095 45.4273Z" fill="#F57F17"/>
<path d="M59.2718 21.8786C61.0636 20.1719 62.9081 20.7476 63.3743 23.1718L73.0994 79.7512L40.8431 99.1164C39.712 99.7488 36.7122 99.9961 36.7122 99.9961C36.7122 99.9961 33.984 99.6636 32.9381 99.088L0.900635 80.2214L59.2718 21.8786Z" fill="#FFCA28"/>
<path d="M29.0261 26.6986L0.900635 80.2213L13.4351 1.99046C13.9053 -0.433727 15.2796 -0.68101 16.5201 1.46752L29.0261 26.6986Z" fill="#FFA000"/>
</svg>
