<svg width="90" height="100" viewBox="0 0 90 100" fill="none" xmlns="http://www.w3.org/2000/svg">
<path fill-rule="evenodd" clip-rule="evenodd" d="M53.5325 11.4493L74.0672 23.3058C74.6601 22.6785 75.3404 22.1401 76.0871 21.7073C80.3457 19.259 85.7778 20.7127 88.2515 24.9716C90.6999 29.2306 89.2462 34.6623 84.9873 37.136C84.2461 37.5629 83.4474 37.8809 82.6157 38.0804V61.802C83.4383 62.0018 84.2283 62.3176 84.962 62.7401C89.2462 65.2138 90.6999 70.6459 88.2262 74.9048C85.7778 79.1634 80.3204 80.6171 76.0615 78.1691C75.2364 77.6957 74.4931 77.0923 73.8603 76.3821L53.4505 88.1656C53.7494 89.0707 53.9012 90.0178 53.9001 90.9709C53.9001 95.8673 49.9221 99.8714 45 99.8714C40.0779 99.8714 36.0999 95.8926 36.0999 90.9709C36.0999 90.096 36.2255 89.2509 36.4599 88.4528L15.9307 76.5998C15.3444 77.2146 14.6736 77.743 13.9385 78.1691C9.65425 80.6171 4.22216 79.1634 1.77379 74.9048C-0.674224 70.6459 0.779449 65.2138 5.03805 62.7401C5.77168 62.3176 6.5617 62.0016 7.38434 61.8016V38.0804C6.55262 37.8809 5.7539 37.5629 5.0127 37.136C0.753757 34.688 -0.699916 29.2306 1.74845 24.9716C4.19681 20.7127 9.6539 19.259 13.9128 21.7073C14.6555 22.1378 15.3325 22.6728 15.9231 23.2957L36.4637 11.4362C36.2216 10.6143 36.099 9.76191 36.0999 8.90516C36.0999 3.98377 40.0779 0.00500488 45 0.00500488C49.9221 0.00500488 53.9001 3.98343 53.9001 8.90516C53.9001 9.78979 53.7717 10.6435 53.5325 11.4493ZM51.3931 15.1025L71.9768 26.9867C71.649 28.1324 71.555 29.3324 71.7004 30.5152C71.8457 31.698 72.2275 32.8395 72.8229 33.8718C74.0759 36.0514 76.117 37.4964 78.3824 38.0595V61.8106C78.2668 61.8388 78.1519 61.8697 78.0377 61.9023L51.1539 15.3403C51.2351 15.2625 51.315 15.1833 51.3931 15.1028V15.1025ZM38.8517 15.3455L11.9683 61.9068C11.852 61.8732 11.7351 61.8419 11.6176 61.8131V38.0595C13.883 37.4964 15.9241 36.0514 17.1771 33.8718C17.7737 32.8375 18.1558 31.6936 18.3006 30.5084C18.4454 29.3232 18.3498 28.121 18.0197 26.9735L38.5975 15.0927C38.6805 15.1785 38.7652 15.2629 38.8517 15.3451V15.3455ZM47.4869 17.4546L74.3641 64.0056C73.7484 64.593 73.2207 65.2662 72.7972 66.0043C72.3748 66.7379 72.0589 67.528 71.8591 68.3506H18.1416C17.9415 67.5279 17.6254 66.7379 17.2028 66.0043C16.7778 65.2713 16.2511 64.6022 15.6384 64.017L42.5207 17.4567C43.3267 17.6888 44.1613 17.8061 45 17.8053C45.8635 17.8053 46.6977 17.6831 47.4869 17.4546ZM51.582 84.975L72.032 73.1678C71.9707 72.9751 71.9159 72.7803 71.8678 72.5839H18.1301C18.1017 72.6995 18.0708 72.814 18.0378 72.9283L38.5878 84.7934C39.4177 83.9305 40.4136 83.2444 41.5155 82.7765C42.6175 82.3086 43.8028 82.0685 45 82.0708C46.2391 82.0686 47.4648 82.3259 48.5984 82.8261C49.732 83.3263 50.7484 84.0583 51.582 84.975Z" fill="#E535AB"/>
</svg>
