<svg width="98" height="100" viewBox="0 0 98 100" fill="none" xmlns="http://www.w3.org/2000/svg">
<path d="M97.1335 22.8157C97.1693 22.9482 97.1876 23.0849 97.188 23.2221V44.5563C97.188 44.8301 97.1157 45.0991 96.9785 45.336C96.8412 45.5729 96.6438 45.7695 96.4063 45.9057L78.5002 56.215V76.6488C78.5002 77.205 78.2047 77.7183 77.7224 77.9983L40.345 99.5152C40.2594 99.5638 40.1661 99.5949 40.0727 99.628C40.0377 99.6396 40.0047 99.661 39.9677 99.6707C39.7065 99.7395 39.4318 99.7395 39.1705 99.6707C39.1278 99.6591 39.0889 99.6357 39.048 99.6202C38.9625 99.5891 38.873 99.5619 38.7914 99.5152L1.42167 77.9983C1.18427 77.8619 0.987016 77.6653 0.849787 77.4284C0.712558 77.1915 0.640203 76.9226 0.640015 76.6488V12.6464C0.640015 12.5064 0.659459 12.3703 0.694458 12.2381C0.706125 12.1934 0.733347 12.1526 0.748902 12.1078C0.778068 12.0262 0.80529 11.9426 0.848067 11.8667C0.877233 11.8162 0.92001 11.7753 0.95501 11.7287C0.999731 11.6664 1.04056 11.6023 1.09306 11.5478C1.13778 11.5031 1.19612 11.4701 1.24667 11.4312C1.30306 11.3845 1.35361 11.334 1.41778 11.297H1.41972L20.1055 0.538552C20.3421 0.402405 20.6103 0.33075 20.8833 0.33075C21.1563 0.33075 21.4245 0.402405 21.6611 0.538552L40.3469 11.297H40.3508C40.413 11.3359 40.4655 11.3845 40.5219 11.4292C40.5725 11.4681 40.6288 11.5031 40.6736 11.5459C40.728 11.6023 40.7669 11.6664 40.8136 11.7287C40.8466 11.7753 40.8913 11.8162 40.9186 11.8667C40.9633 11.9445 40.9886 12.0262 41.0197 12.1078C41.0352 12.1526 41.0624 12.1934 41.0741 12.2401C41.1099 12.3726 41.1282 12.5092 41.1286 12.6464V52.6217L56.6994 43.656V23.2202C56.6994 23.0841 56.7189 22.946 56.7539 22.8157C56.7675 22.7691 56.7928 22.7282 56.8083 22.6835C56.8394 22.6018 56.8666 22.5182 56.9094 22.4424C56.9386 22.3918 56.9814 22.351 57.0144 22.3044C57.0611 22.2421 57.1 22.178 57.1544 22.1235C57.1991 22.0788 57.2555 22.0457 57.3061 22.0069C57.3644 21.9602 57.415 21.9096 57.4772 21.8727H57.4791L76.1669 11.1142C76.4034 10.9779 76.6717 10.9061 76.9447 10.9061C77.2177 10.9061 77.4859 10.9779 77.7224 11.1142L96.4083 21.8727C96.4744 21.9116 96.5249 21.9602 96.5833 22.0049C96.6319 22.0438 96.6883 22.0788 96.733 22.1216C96.7874 22.178 96.8263 22.2421 96.873 22.3044C96.908 22.351 96.9508 22.3918 96.978 22.4424C97.0227 22.5182 97.048 22.6018 97.0791 22.6835C97.0966 22.7282 97.1219 22.7691 97.1335 22.8157ZM94.073 43.656V25.9151L87.534 29.6795L78.5002 34.8808V52.6217L94.075 43.656H94.073ZM75.3872 75.7486V57.9961L66.5012 63.071L41.1266 77.553V95.4727L75.3872 75.7486ZM3.75497 15.3395V75.7486L38.0117 95.4708V77.5549L20.1153 67.4265L20.1094 67.4226L20.1017 67.4187C20.0414 67.3837 19.9908 67.3332 19.9344 67.2904C19.8858 67.2515 19.8294 67.2204 19.7867 67.1776L19.7828 67.1718C19.7322 67.1232 19.6972 67.0629 19.6544 67.0084C19.6156 66.9559 19.5689 66.9112 19.5378 66.8568L19.5358 66.8509C19.5008 66.7926 19.4794 66.7226 19.4542 66.6565C19.4289 66.5982 19.3958 66.5437 19.3803 66.4815V66.4796C19.3608 66.4057 19.3569 66.3279 19.3492 66.2521C19.3414 66.1937 19.3258 66.1354 19.3258 66.0771V24.3052L10.294 19.1019L3.75497 15.3414V15.3395ZM20.8853 3.68462L5.31633 12.6464L20.8814 21.6082L36.4484 12.6445L20.8814 3.68462H20.8853ZM28.9818 59.6138L38.0136 54.4144V15.3395L31.4745 19.1038L22.4408 24.3052V63.3801L28.9818 59.6138ZM76.9447 14.2603L61.3777 23.2221L76.9447 32.1839L92.5097 23.2202L76.9447 14.2603ZM75.3872 34.8808L66.3534 29.6795L59.8144 25.9151V43.656L68.8462 48.8554L75.3872 52.6217V34.8808ZM39.5672 74.86L62.4005 61.8246L73.8142 55.3108L58.2589 46.3548L40.3489 56.6661L24.0255 66.0634L39.5672 74.86Z" fill="#FF2D20"/>
</svg>
