<svg width="46" height="100" viewBox="0 0 46 100" fill="none" xmlns="http://www.w3.org/2000/svg">
<path d="M22.687 0.273132L25.3556 5.28526C25.9555 6.21019 26.6055 7.02888 27.3711 7.79132C29.6156 10.0078 31.7077 12.3734 33.6331 14.872C38.1547 20.8091 41.2045 27.4024 43.3824 34.5331C44.6886 38.889 45.3979 43.3574 45.451 47.8758C45.6698 61.3842 41.0389 72.9833 31.702 82.6232C30.1833 84.1519 28.5426 85.5544 26.7961 86.8167C25.8712 86.8167 25.4337 86.1074 25.0525 85.4543C24.3583 84.2433 23.8962 82.9133 23.6901 81.5327C23.362 79.8984 23.1464 78.2642 23.2526 76.5768V75.8144C23.1776 75.6519 22.3621 0.657479 22.687 0.273132Z" fill="#599636"/>
<path d="M22.6871 0.107501C22.5777 -0.111232 22.4683 0.0543804 22.359 0.160623C22.4121 1.25429 22.0309 2.22922 21.434 3.1604C20.7778 4.08533 19.9092 4.79466 19.0373 5.5571C14.1939 9.75054 10.3817 14.8158 7.32881 20.481C3.26661 28.1054 1.17301 36.2767 0.579302 44.8792C0.307447 47.9821 1.56048 58.9313 2.53853 62.0904C5.20709 70.4773 10.0005 77.5049 16.2094 83.6045C17.7343 85.0731 19.3654 86.4355 21.0528 87.7448C21.5434 87.7448 21.5965 87.3073 21.709 86.9823C21.9241 86.287 22.0881 85.5768 22.1996 84.8575L23.2933 76.6893L22.6871 0.107501Z" fill="#6CAC48"/>
<path d="M25.3556 90.1351C25.465 88.8852 26.0649 87.8478 26.718 86.8135C26.0618 86.5417 25.5743 86.0011 25.1931 85.398C24.8644 84.827 24.5923 84.2252 24.3807 83.6013C23.6182 81.314 23.4558 78.9141 23.237 76.5768V75.1613C22.9652 75.38 22.9089 77.2299 22.9089 77.5049C22.7499 79.9752 22.4221 82.4318 21.9277 84.8574C21.7652 85.8386 21.6559 86.8166 21.0528 87.6885C21.0528 87.7978 21.0528 87.9072 21.1059 88.0697C22.0871 90.9569 22.3558 93.8973 22.5214 96.894V97.9876C22.5214 99.2938 22.4683 99.0188 23.5526 99.4563C23.9901 99.6188 24.4776 99.675 24.915 100C25.2431 100 25.2962 99.7281 25.2962 99.5094L25.1338 97.7127V92.7006C25.0806 91.8256 25.2431 90.9569 25.3525 90.1383L25.3556 90.1351Z" fill="#C2BFBF"/>
</svg>
