<svg width="100" height="100" viewBox="0 0 100 100" fill="none" xmlns="http://www.w3.org/2000/svg">
<path d="M92.1104 77.2453C86.6696 77.1076 82.4527 77.66 78.916 79.1786C77.8957 79.5925 76.2632 79.5929 76.1272 80.9048C76.6713 81.4571 76.7394 82.3547 77.2155 83.1138C78.0325 84.4943 79.4598 86.3586 80.7522 87.3256C82.1802 88.43 83.609 89.5343 85.1047 90.5009C87.7575 92.158 90.7504 93.1243 93.3348 94.7814C94.8316 95.7472 96.3269 96.9909 97.8233 98.0261C98.5716 98.5777 99.0473 99.4761 100 99.8209V99.6142C99.5235 98.9924 99.3874 98.0952 98.9117 97.4047C98.2323 96.7143 97.5513 96.0929 96.8711 95.4024C94.8989 92.7104 92.4505 90.3628 89.7981 88.43C87.6218 86.9109 82.8604 84.84 81.9766 82.2853C81.9766 82.2853 81.9081 82.2166 81.8405 82.1476C83.3366 82.0095 85.1047 81.4571 86.5335 81.0428C88.8458 80.421 90.9541 80.5595 93.3348 79.9381C94.4227 79.6619 95.511 79.3167 96.599 78.9715V78.3504C95.3754 77.1076 94.4911 75.4509 93.1987 74.2771C89.7301 71.2387 85.921 68.2705 81.9766 65.7853C79.8679 64.4044 77.1471 63.5068 74.9028 62.3334C74.0874 61.9187 72.7266 61.712 72.2508 61.0215C71.026 59.5029 70.3458 57.501 69.462 55.7058C67.4902 51.9083 65.5852 47.6972 63.8847 43.6934C62.6611 41.0006 61.9129 38.3078 60.4164 35.8229C53.4111 24.0863 45.7936 16.9754 34.0957 10.0022C31.5789 8.55258 28.5864 7.93117 25.3898 7.17206C23.6901 7.10262 21.9892 6.96493 20.2891 6.89548C19.2008 6.41216 18.1124 5.10069 17.1602 4.47927C13.2842 1.99362 3.28555 -3.39077 0.429089 3.72017C-1.40746 8.20736 3.1499 12.6255 4.71359 14.9044C5.87072 16.4921 7.36639 18.2869 8.18263 20.0821C8.65877 21.255 8.79443 22.4987 9.27057 23.7411C10.3593 26.7779 11.3788 30.1616 12.8076 32.9925C13.5559 34.442 14.3717 35.9606 15.324 37.2725C15.8682 38.0316 16.8201 38.3772 17.0245 39.6197C16.0726 41.0006 16.0042 43.072 15.4596 44.7977C13.0113 52.5991 13.964 62.2643 17.4322 67.9944C18.5202 69.7197 21.1049 73.518 24.5736 72.0677C27.6345 70.8252 26.9543 66.89 27.8378 63.4381C28.0426 62.6088 27.9066 62.0572 28.3143 61.5048V61.6433C29.2666 63.5758 30.2185 65.4405 31.1028 67.3733C33.2114 70.7558 36.8837 74.2771 39.9442 76.6247C41.5771 77.8667 42.8691 80.0072 44.9097 80.7667V80.5591H44.7733C44.3652 79.9377 43.753 79.6619 43.2092 79.1782C41.9852 77.9362 40.6245 76.4172 39.6726 75.0362C36.8165 71.1697 34.2993 66.8896 32.0551 62.4711C30.9671 60.3315 30.0144 57.9839 29.1306 55.8439C28.7221 55.0145 28.7221 53.7725 28.0422 53.3586C27.0219 54.8772 25.5259 56.1891 24.7777 58.0529C23.486 61.0215 23.3496 64.6805 22.8735 68.4773C22.6014 68.5471 22.737 68.4773 22.601 68.6162C20.4251 68.063 19.6769 65.7853 18.8603 63.852C16.8197 58.9505 16.4796 51.0801 18.2485 45.4191C18.7246 43.9692 20.7652 39.4129 19.949 38.032C19.5409 36.7201 18.1801 35.9606 17.4322 34.9253C16.5484 33.6135 15.5957 31.9572 14.9839 30.5068C13.3514 26.6406 12.5352 22.3602 10.767 18.494C9.95077 16.6988 8.52312 14.8354 7.36639 13.1783C6.07439 11.3144 4.64596 10.0022 3.62566 7.79308C3.28595 7.03397 2.80941 5.79115 3.35357 4.9626C3.48962 4.41023 3.76131 4.20349 4.30586 4.0654C5.19013 3.30549 7.70688 4.27214 8.59036 4.68641C11.1071 5.72131 13.2154 6.68874 15.324 8.13831C16.2759 8.82877 17.2962 10.1406 18.5202 10.4859H19.9486C22.1252 10.9688 24.5732 10.624 26.6138 11.245C30.2189 12.4184 33.4831 14.1445 36.408 16.0087C45.3179 21.7388 52.6625 29.8854 57.628 39.6197C58.4442 41.2069 58.7839 42.6577 59.5322 44.314C60.961 47.6972 62.7291 51.1491 64.1568 54.4629C65.5852 57.7073 66.9452 61.0215 68.9858 63.7143C70.0061 65.1635 74.0866 65.9234 75.9231 66.6829C77.2835 67.3039 79.3922 67.8567 80.6161 68.6158C82.9284 70.0649 85.2407 71.7228 87.4174 73.3101C88.5057 74.1386 91.906 75.8648 92.1104 77.2453Z" fill="#00546B"/>
<path d="M22.7367 17.2508C21.5807 17.2508 20.7649 17.3897 19.9486 17.5964V17.7345H20.0846C20.6292 18.8392 21.5807 19.5988 22.2605 20.565C22.8051 21.6693 23.2808 22.7745 23.8254 23.8792C23.893 23.8098 23.961 23.7411 23.961 23.7411C24.9137 23.0502 25.3894 21.9459 25.3894 20.2888C24.9813 19.8059 24.9133 19.3226 24.5732 18.8392C24.1655 18.1484 23.2808 17.8036 22.7367 17.2508Z" fill="#00546B"/>
</svg>
