<svg width="500" height="500" viewBox="0 0 500 500" fill="none" xmlns="http://www.w3.org/2000/svg">
<path d="M192.592 95.6816C192.123 95.98 191.655 96.2779 191.145 96.6191C191.023 96.7389 190.903 96.7733 190.905 96.7831C190.906 96.7871 190.926 96.7871 190.975 96.7871C191.071 97.2639 191.112 97.687 191.161 98.178C191.198 98.5561 191.239 98.9743 191.312 99.4883C191.779 98.8221 192.193 98.2085 192.585 97.6267C193.187 96.7349 193.738 95.9176 194.352 95.0996L194.014 94.7617C193.512 95.0962 193.052 95.3891 192.592 95.6816Z" fill="#DD3735"/>
<path d="M245.494 179.832C243.637 180.676 242.117 181.352 240.598 182.025C240.598 182.097 240.447 182.379 240.286 182.681C240.066 183.094 239.826 183.545 239.924 183.545C240.317 183.467 240.93 183.131 241.576 182.779C242.315 182.374 243.096 181.947 243.637 181.857C244.143 181.857 244.818 182.025 245.324 182.195C245.324 181.52 245.324 180.844 245.494 179.832Z" fill="#DD3735"/>
<path d="M368.152 326.64C367.742 326.199 367.303 325.726 367.189 325.158C367.153 325.593 367.117 326.004 367.083 326.396C366.956 327.835 366.852 329.029 366.852 330.223C366.852 330.559 367.189 331.234 367.357 331.234C367.695 331.404 368.371 331.066 368.709 330.896C368.877 330.729 369.047 330.391 369.047 330.223C368.794 330.054 368.541 329.927 368.289 329.801C368.035 329.674 367.781 329.546 367.527 329.377C369.655 328.258 368.96 327.509 368.152 326.64Z" fill="#DD3735"/>
<path fill-rule="evenodd" clip-rule="evenodd" d="M499.808 236.518C499.64 230.104 499.302 223.522 498.964 217.108C498.879 215.459 498.805 213.809 498.731 212.16L498.731 212.158C498.51 207.225 498.289 202.292 497.782 197.36L497.697 196.713L497.697 196.712C496.543 187.973 495.37 179.088 493.394 170.522C491.874 163.264 489.343 156.344 486.812 149.424C486.622 148.945 486.432 148.465 486.242 147.985C483.222 140.344 480.158 132.592 476.347 125.288C471.457 116.011 465.45 107.479 459.433 98.9306C457.349 95.9698 455.263 93.0066 453.222 90.0104C450.749 86.5002 447.937 83.2918 445.125 80.0824C441.986 76.5007 438.846 72.9178 436.175 68.9128C433.306 64.5241 429.085 60.8093 424.866 57.4343C418.114 52.0339 411.025 47.1374 403.937 42.4128C398.534 38.6979 393.134 35.155 387.396 31.9479C384.067 30.0983 380.56 28.5195 377.069 26.9483L377.068 26.9478C375.779 26.3672 374.491 25.7877 373.216 25.196C372.107 24.6759 371.006 24.1346 369.902 23.5925C365.632 21.4939 361.336 19.3831 356.507 18.444C355.297 18.1751 354.196 17.7997 353.03 17.4026C352.731 17.3008 352.428 17.1976 352.118 17.0944C350.703 16.6016 349.309 16.0868 347.922 15.5741C345.505 14.6809 343.107 13.7944 340.64 13.0436C338.677 12.4262 336.732 11.7714 334.787 11.1166C330.881 9.80164 326.975 8.48641 322.917 7.47333C317.011 5.9538 310.935 4.94012 304.859 4.09637C300.392 3.42702 295.851 3.05261 291.334 2.68016C289.024 2.48967 286.72 2.29966 284.435 2.07098C280.046 1.56512 275.657 1.05926 271.437 0.889343C267.19 0.666878 262.869 0.591734 258.571 0.517006C256.379 0.478889 254.193 0.44088 252.027 0.383483C251.247 0.34263 250.457 0.291725 249.662 0.240491C247.188 0.0810761 244.664 -0.0815227 242.237 0.0455928C237.343 0.215515 232.448 0.721374 227.552 1.39716C224.223 1.75359 220.893 2.27777 217.622 2.79274C216.25 3.00862 214.889 3.22294 213.542 3.42255C210.765 3.75857 207.988 4.01106 205.21 4.26356C202.418 4.5174 199.626 4.77127 196.833 5.11005C193.234 5.57492 189.555 6.19877 185.906 6.81755C184.25 7.09828 182.601 7.37798 180.968 7.6413C180.041 7.80989 179.114 8.0626 178.188 8.31524C177.257 8.56895 176.327 8.82259 175.398 8.99091C174.02 9.27847 172.623 9.50733 171.22 9.73721C168.496 10.1834 165.749 10.6334 163.075 11.5241C155.818 13.7175 148.56 16.2507 141.47 18.9499C134.888 21.6511 128.474 24.5202 122.23 27.8972C116.837 30.8761 111.682 34.3342 106.565 37.7676C105.596 38.4176 104.629 39.0668 103.661 39.7116C97.923 43.5925 92.1847 47.6452 86.6144 52.0339C81.214 56.2526 76.1496 60.9792 71.2551 65.7057C69.479 67.4805 67.9225 69.4748 66.3446 71.4965C65.5227 72.5496 64.6949 73.6102 63.8273 74.6511C62.8038 75.8385 61.7803 77.016 60.759 78.1908C57.5707 81.8587 54.4051 85.5003 51.3371 89.3347C48.8616 92.4305 46.5668 95.6167 44.2547 98.827C43.4146 99.9934 42.5721 101.163 41.7179 102.333C35.9777 110.096 31.0832 118.366 26.5265 126.637C24.6799 129.993 23.0012 133.35 21.3236 136.705L21.3229 136.707L21.2941 136.764C20.453 138.446 19.5935 140.109 18.7341 141.772C17.0055 145.116 15.2768 148.461 13.6984 151.956C12.0109 155.501 10.6593 159.382 9.64763 163.264C7.28435 171.534 4.92107 179.973 2.72771 188.245C0.702317 195.671 0.194504 203.436 0.0265355 211.032C-0.140136 217.653 0.506847 224.114 1.1694 230.73L1.20818 231.118C1.25497 231.588 1.21021 232.084 1.16507 232.585C1.04816 233.881 0.928643 235.207 2.38982 236.18C2.55779 236.18 2.38982 236.856 2.21989 237.024C1.71404 238.038 2.21989 239.049 3.23357 239.387C3.23357 239.387 3.40154 239.557 3.40154 239.725H2.55779C2.31708 240.448 2.57299 241.095 2.83459 241.756C3.12277 242.484 3.41787 243.229 3.06364 244.114C2.94034 244.362 3.27174 244.791 3.5896 245.203C3.70473 245.352 3.81807 245.498 3.90739 245.633C3.90739 245.796 3.89001 245.977 3.87201 246.163C3.83409 246.557 3.79347 246.978 3.90739 247.321C3.97763 247.949 4.13429 248.577 4.29393 249.216C4.52051 250.124 4.7531 251.056 4.7531 252.048C4.7531 252.769 5.13063 253.554 5.50147 254.324C5.7377 254.815 5.97122 255.301 6.10271 255.76C6.27068 256.266 6.10271 257.11 5.76482 257.448C4.7531 258.63 4.92107 259.643 6.4406 260.317C6.77849 260.487 7.28435 261.161 7.28435 261.499C7.28435 262.173 7.13488 262.846 6.98535 263.52C6.91005 263.859 6.83474 264.198 6.77849 264.538C7.11443 264.876 7.28435 265.212 7.11443 265.549C7.11443 265.781 7.00842 266.013 6.90976 266.229C6.7929 266.485 6.68635 266.718 6.77849 266.901C8.1281 269.6 8.63396 272.639 8.80388 275.676C8.80388 276.234 9.03427 276.792 9.30371 277.445C9.36057 277.583 9.41917 277.725 9.47771 277.872C9.64763 277.872 10.1535 277.872 10.4914 278.04L9.47771 281.079C10.0846 280.714 10.6046 280.524 11.1628 280.321C11.3804 280.242 11.6044 280.16 11.841 280.065C12.3468 282.26 12.8547 284.286 13.5285 286.141C13.6984 286.479 14.0363 286.817 14.5422 287.155C14.482 287.275 14.4431 287.436 14.4031 287.603C14.3301 287.907 14.2533 288.227 14.0363 288.337C14.2145 289.14 14.3692 289.931 14.5222 290.714C14.9478 292.892 15.3605 295.004 16.2297 297.114C16.3149 297.114 16.3996 297.071 16.4841 297.029C16.568 296.986 16.6518 296.944 16.7355 296.944C16.4824 295.424 16.2714 293.862 16.0603 292.3C15.8495 290.74 15.6387 289.179 15.3859 287.661V286.649C15.3859 286.649 15.7238 286.479 15.8918 286.479C15.9482 286.703 16.023 286.946 16.0979 287.189C16.2487 287.678 16.3996 288.167 16.3996 288.505C17.0744 288.505 17.9181 288.716 18.7619 288.926C19.6056 289.137 20.4494 289.348 21.1242 289.348C21.1815 289.178 21.2387 288.988 21.2957 288.798C21.4077 288.425 21.5194 288.053 21.632 287.831C21.1258 287.325 20.662 286.692 20.1983 286.06C19.7333 285.426 19.2684 284.792 18.7609 284.286C19.0016 285.247 18.8994 285.78 18.8207 286.191C18.7889 286.357 18.7609 286.503 18.7609 286.649C18.0871 286.311 17.2433 285.973 16.3996 285.635C17.0734 284.792 17.7492 283.948 18.7609 282.934C18.7609 281.417 17.9172 280.065 15.5539 280.235C15.9766 280.094 16.3994 279.924 16.8342 279.749C17.4418 279.504 18.0734 279.25 18.7609 279.053L18.7774 279.103C18.9417 279.592 19.1043 280.076 19.2687 280.403C20.1015 278.945 19.6492 277.68 19.1807 276.369C18.8899 275.556 18.5929 274.726 18.5929 273.821C18.6937 272.1 18.1268 270.379 17.5478 268.621C17.1615 267.448 16.77 266.26 16.5676 265.044C16.0697 262.255 15.9241 258.644 15.7844 255.181C15.6874 252.775 15.5933 250.44 15.3859 248.503C15.3859 248.249 15.1008 247.995 14.8157 247.742C14.7211 247.657 14.6264 247.573 14.5422 247.489C14.4568 247.574 14.2012 248.171 13.9467 248.765C13.6949 249.352 13.4441 249.938 13.3605 250.022C13.8664 254.073 14.3722 258.124 14.7101 262.174C14.5422 262.174 14.3722 262.174 14.3722 262.342C14.2231 261.558 14.0739 260.765 13.9228 259.962C13.3911 257.138 12.8359 254.188 12.1789 251.034C12.1143 251.488 12.0494 251.843 11.994 252.146C11.9053 252.63 11.841 252.981 11.841 253.397C11.5883 253.313 11.42 253.229 11.2094 253.123C10.9983 253.018 10.7447 252.89 10.3215 252.721C10.6664 253.497 11.0114 254.141 11.3337 254.743C11.6429 255.32 11.9312 255.858 12.1789 256.436C10.9972 255.928 9.64763 256.098 9.64763 256.098V260.823C8.48141 259.657 7.87862 258.652 7.339 257.752C7.09779 257.35 6.86921 256.969 6.60857 256.604C6.43962 255.929 6.31316 255.254 6.18669 254.579C6.06023 253.904 5.93376 253.228 5.76482 252.553L6.27068 252.383C6.20166 252.107 6.10397 251.858 6.01281 251.626C5.88209 251.293 5.76482 250.994 5.76482 250.696C5.59685 249.514 5.42693 248.165 5.25896 246.645C5.32863 246.576 5.48566 246.506 5.66972 246.423C5.9294 246.308 6.24286 246.168 6.4406 245.971L5.08904 243.946C5.49077 243.996 5.84764 244.046 6.17298 244.091C6.94202 244.199 7.53523 244.282 8.1281 244.282C8.1281 244.154 8.15256 244.05 8.17347 243.961C8.20737 243.817 8.23197 243.712 8.1281 243.608C6.6871 242.311 7.33824 241.135 7.97879 239.979C8.08834 239.782 8.19767 239.584 8.29607 239.387C8.46501 239.049 8.84489 238.839 9.22478 238.628C9.60466 238.417 9.98454 238.206 10.1535 237.868C10.5367 237.149 10.9881 236.471 11.4381 235.795C12.5728 234.091 13.6984 232.401 13.6984 230.104C13.6984 229.181 13.8852 228.195 14.0695 227.223C14.1884 226.596 14.3063 225.974 14.3722 225.378C14.7101 222.508 15.048 219.639 15.2179 216.77C15.3396 215.426 15.3731 214.081 15.4065 212.745C15.4653 210.39 15.5234 208.06 16.0617 205.799C17.4113 199.891 19.0988 193.983 20.9562 188.077C22.3058 183.856 23.8254 179.805 25.5129 175.587C25.8915 174.602 26.2664 173.618 26.6408 172.635C28.7709 167.042 30.8868 161.487 33.6144 156.174C37.1015 149.203 40.9829 142.429 44.881 135.625C46.0786 133.535 47.2781 131.441 48.4679 129.339C51.675 123.768 55.0519 118.536 58.5949 113.133C58.9886 112.523 59.3823 111.911 59.7768 111.298C62.7658 106.649 65.7996 101.93 69.2297 97.6061C74.6301 90.6862 80.5383 84.2722 87.1203 78.5319C88.796 77.0239 90.4509 75.5056 92.103 73.9898C97.1079 69.3979 102.088 64.8292 107.544 60.6413C116.997 53.3835 126.954 46.9694 137.589 41.3991C146.196 36.8425 155.142 33.2975 164.089 29.9206C167.443 28.6385 170.97 27.7601 174.502 26.8806C177.012 26.2555 179.525 25.6298 181.98 24.8581C188.732 22.6628 195.484 21.6511 202.571 21.4811C206.903 21.3215 211.082 20.8568 215.396 20.3769L216.075 20.3015C220.126 19.9636 224.177 19.6257 228.566 19.1198C228.06 19.7936 227.89 20.1315 227.722 20.4694C226.799 21.8119 225.834 23.1538 224.87 24.4958L224.869 24.497C223.893 25.8548 222.917 27.2127 221.984 28.571C221.224 29.6686 220.422 30.8078 219.62 31.947C218.819 33.0861 218.017 34.2253 217.257 35.3229C216.544 36.259 215.819 37.195 215.091 38.1341L215.091 38.1349C213.064 40.7521 211.018 43.3935 209.155 46.1257C207.52 48.4721 205.944 50.8484 204.365 53.2294C202.196 56.5006 200.021 59.7808 197.677 63.0046C194.979 66.601 192.132 70.0485 189.284 73.4958C187.856 75.2249 186.428 76.954 185.019 78.7018C182.234 82.3307 179.533 86.0016 176.832 89.6725C174.132 93.3434 171.431 97.0143 168.646 100.643C166.426 103.677 164.143 106.645 161.865 109.604L161.864 109.605C158.945 113.399 156.036 117.18 153.286 121.067C150.567 124.832 148.041 128.727 145.51 132.632C143.957 135.028 142.4 137.428 140.796 139.803C137.673 144.445 134.55 149.044 131.428 153.643C128.305 158.242 125.183 162.841 122.06 167.483C117.165 174.573 112.271 181.493 107.206 188.583C106.962 188.948 106.63 189.138 106.274 189.342C106.137 189.421 105.997 189.501 105.857 189.594C105.744 189.707 105.594 189.82 105.444 189.932C105.143 190.158 104.843 190.383 104.843 190.608C104.714 191.063 104.634 191.517 104.556 191.962C104.432 192.674 104.312 193.36 103.999 193.983C102.65 196.516 101.3 199.048 99.7804 201.411C99.2676 202.231 98.63 202.989 97.9812 203.761C97.5625 204.259 97.1389 204.762 96.7414 205.292C96.6505 205.247 96.572 205.201 96.4991 205.159C96.3009 205.046 96.1447 204.956 95.8976 204.956C96.1232 204.392 96.593 203.904 97.0687 203.409C98.0186 202.422 98.9921 201.41 98.0929 199.723C97.6711 200.398 97.2487 201.031 96.8263 201.664C96.404 202.297 95.9816 202.929 95.5597 203.604L93.5343 207.655C93.6592 207.749 93.8013 207.837 93.9425 207.924C94.566 208.31 95.1735 208.686 94.2101 209.512C93.9557 209.937 93.7008 210.404 93.4458 210.871C93.1939 211.332 92.942 211.793 92.6906 212.214C92.7758 212.214 92.8183 212.256 92.8606 212.298C92.9028 212.34 92.9447 212.382 93.0285 212.382C93.2814 212.044 93.5348 211.748 93.7883 211.453C94.0417 211.157 94.2951 210.862 94.548 210.524C94.632 210.524 94.7165 210.567 94.8009 210.609C94.8854 210.652 94.9699 210.694 95.0539 210.694C94.6589 212.012 93.9544 213.227 93.2629 214.419C93.0687 214.754 92.8756 215.087 92.6906 215.421C92.1903 216.42 91.1354 217.234 90.1419 218C89.7934 218.269 89.4525 218.532 89.1457 218.796C89.2304 218.879 89.5663 219.047 89.9028 219.216C90.2415 219.385 90.581 219.555 90.6652 219.639C90.9184 219.301 91.0875 219.217 91.2566 219.132C91.4254 219.048 91.5942 218.964 91.8468 218.628C92.0209 218.888 92.2395 218.791 92.4339 218.704C92.6168 218.622 92.7781 218.55 92.8605 218.796C93.0072 218.6 93.1539 218.418 93.2924 218.246C93.6315 217.826 93.9215 217.467 94.0422 217.108C94.716 215.421 95.7297 214.069 97.4172 213.395C98.0891 213.059 98.593 212.555 99.096 212.052L99.1047 212.044C100.228 210.883 101.36 209.73 102.491 208.579C106.457 204.54 110.412 200.513 113.958 196.178C118.691 190.431 123.123 184.533 127.555 178.636L127.557 178.634C129.763 175.699 131.969 172.763 134.212 169.846C136.293 167.156 138.638 164.466 140.927 161.839C141.797 160.841 142.659 159.852 143.495 158.876C143.644 158.951 143.793 158.993 143.928 159.03C144.099 159.078 144.246 159.12 144.341 159.214C144.003 162.758 143.665 166.471 143.495 170.016C143.234 173.247 143.017 176.479 142.798 179.734L142.798 179.736C142.595 182.771 142.39 185.826 142.146 188.921C142.062 190.186 142.062 191.452 142.062 192.718C142.062 193.984 142.062 195.25 141.978 196.516C141.978 196.853 141.851 197.148 141.724 197.443C141.597 197.738 141.47 198.034 141.47 198.372C141.47 199.216 141.597 200.102 141.724 200.988C141.851 201.874 141.978 202.76 141.978 203.604C141.724 206.729 141.428 209.811 141.133 212.893L141.132 212.894C140.837 215.972 140.542 219.05 140.288 222.171C140.162 223.186 140.512 224.2 140.837 225.142C140.945 225.455 141.05 225.759 141.134 226.053L141.122 226.042C140.956 225.878 140.784 225.708 140.288 225.378C140.288 228.866 140.524 232.333 140.759 235.785C141.183 242.024 141.604 248.218 140.626 254.411C141.302 254.241 141.64 254.073 141.64 253.735C141.696 253.34 141.771 252.944 141.846 252.549C141.996 251.763 142.146 250.976 142.146 250.19C142.257 249.527 142.222 248.863 142.185 248.152C142.166 247.778 142.146 247.39 142.146 246.983V245.296C142.201 244.298 142.312 243.281 142.422 242.259C142.649 240.169 142.878 238.052 142.652 236.012C142.316 232.635 142.316 229.428 142.989 226.221C143.12 225.701 143.125 225.131 143.13 224.529C143.138 223.571 143.147 222.534 143.665 221.497V224.028C143.626 226.254 143.614 228.479 143.602 230.705C143.561 238.1 143.521 245.496 142.484 252.891C142.442 253.101 142.452 253.353 142.463 253.61C142.494 254.386 142.528 255.212 141.134 255.085C141.045 255.085 140.957 255.314 140.845 255.606C140.743 255.873 140.62 256.193 140.458 256.436C140.095 257.163 140.232 257.983 140.371 258.816C140.555 259.919 140.743 261.044 139.782 262.005C139.563 262.224 139.771 262.943 139.991 263.698C140.109 264.104 140.229 264.521 140.288 264.876C140.288 264.995 140.31 265.114 140.329 265.225C140.366 265.43 140.398 265.61 140.288 265.719C139.923 266.36 139.756 266.653 139.84 266.814C139.912 266.95 140.163 266.992 140.626 267.069C140.713 268.977 140.845 270.796 140.975 272.594C141.098 274.296 141.22 275.979 141.302 277.702H141.808C143.089 273.959 143.162 270.158 143.236 266.334C143.288 263.605 143.341 260.865 143.833 258.124C144.003 260.823 144.171 263.524 144.003 266.393C144.003 270.582 143.848 274.618 143.688 278.793L143.688 278.794L143.665 279.391C143.665 280.225 143.499 281.06 143.333 281.894L143.327 281.923C143.164 282.687 143.035 283.451 142.908 284.21C142.641 285.797 142.379 287.359 141.808 288.842C141.299 290.117 141.366 291.874 141.429 293.531C141.45 294.067 141.47 294.593 141.47 295.089V301.501C141.47 301.557 141.527 301.652 141.602 301.777C141.752 302.027 141.978 302.402 141.978 302.852C142.049 303.495 141.939 304.139 141.826 304.795C141.673 305.688 141.516 306.606 141.808 307.579C141.951 307.864 141.733 308.268 141.559 308.591C141.527 308.651 141.497 308.708 141.47 308.76C141.302 309.266 141.134 309.772 141.302 310.278L141.808 312.811C141.808 312.915 141.872 313.019 141.961 313.163C142.017 313.252 142.081 313.356 142.146 313.485C142.316 312.811 142.316 312.303 142.316 312.135C144.058 312.341 144.182 313.354 144.313 314.422C144.397 315.112 144.485 315.825 145.015 316.356C144.828 316.449 144.654 316.53 144.5 316.601C144.099 316.786 143.833 316.909 143.833 317.03C143.895 317.277 143.98 317.502 144.062 317.72C144.205 318.099 144.341 318.459 144.341 318.887C144.341 320.254 144.203 321.487 144.053 322.829L144.052 322.84C144.036 322.984 144.019 323.129 144.003 323.276C144.003 325.238 143.96 327.2 143.917 329.14L143.917 329.141C143.875 331.039 143.833 332.917 143.833 334.753C143.833 335.006 143.876 335.259 143.918 335.512C143.961 335.766 144.003 336.019 144.003 336.272C144.003 336.424 143.969 336.576 143.931 336.743C143.885 336.948 143.833 337.175 143.833 337.454V340.999H144.509C144.171 341.505 143.833 342.01 143.327 342.516C143.159 342.516 142.652 342.516 142.652 342.348V321.081H140.12C140.017 324.167 140.024 327.16 140.031 330.097C140.046 336.795 140.061 343.204 138.771 349.774C137.965 349.842 137.373 349.936 136.814 350.025C135.968 350.159 135.197 350.282 133.876 350.282C128.644 350.282 123.411 350.282 118.179 350.45C115.056 350.45 111.975 350.492 108.895 350.535C105.814 350.577 102.734 350.62 99.6105 350.62C98.0922 350.62 96.5314 350.704 94.9704 350.788C93.4092 350.872 91.8468 350.956 90.3273 350.956C88.3019 350.956 86.2345 350.829 84.1672 350.703C82.0998 350.576 80.0324 350.45 78.007 350.45C74.266 350.45 70.5859 350.631 66.8941 350.813L66.8926 350.813L66.8903 350.814C64.4196 350.935 61.9436 351.058 59.4406 351.126C57.175 351.209 54.9098 351.251 52.6449 351.293C50.3529 351.336 48.0605 351.378 45.7687 351.464C42.7297 351.632 39.6906 351.801 36.6535 352.137C35.7078 352.256 34.8446 352.54 33.8313 352.874C33.3985 353.016 32.9384 353.168 32.4328 353.319C32.2939 353.319 32.104 353.306 31.8807 353.291C31.2907 353.252 30.4675 353.197 29.7336 353.319C28.8909 353.488 28.0902 353.825 27.2894 354.162C26.4867 354.5 25.6838 354.838 24.839 355.007C22.3058 355.514 21.632 356.188 21.9679 358.721V360.409C21.632 360.071 21.1242 359.733 20.7863 359.565C20.6183 359.565 20.4504 359.733 20.4504 359.733C20.5342 359.985 20.6603 360.196 20.7865 360.407C20.9132 360.618 21.04 360.83 21.1242 361.085C21.3596 360.967 21.6155 360.788 21.8775 360.604C22.3675 360.261 22.8792 359.903 23.3195 359.903H25.6828C25.4842 359.903 25.3437 360.252 25.1589 360.712C25.0292 361.034 24.8777 361.411 24.6691 361.758C26.0187 361.253 26.8644 360.915 27.7082 360.577C27.8761 361.085 27.8761 361.758 27.8761 361.928C28.617 361.875 29.3411 361.772 30.0486 361.672C31.5978 361.452 33.0679 361.243 34.4582 361.591C41.0422 363.278 47.7941 363.954 54.5441 364.628C58.9328 364.966 63.1535 365.135 67.5422 365.303C73.7863 365.641 80.0324 365.979 86.2765 365.979C88.8927 365.979 91.467 365.853 94.0412 365.726C96.6154 365.6 99.1896 365.473 101.806 365.473C106.663 365.473 111.521 365.624 116.378 365.774C118.778 365.849 121.179 365.923 123.579 365.979C124.319 365.979 125.099 365.939 125.899 365.898L125.9 365.897C126.743 365.854 127.608 365.809 128.474 365.809H140.796C146.25 365.642 151.704 365.516 157.158 365.39C162.675 365.263 168.192 365.135 173.71 364.966C176.831 364.882 179.994 364.755 183.157 364.629L183.159 364.629C186.325 364.502 189.491 364.376 192.614 364.292L211.855 363.784C215.526 363.701 219.197 363.659 222.847 363.617C226.582 363.574 230.295 363.532 233.966 363.446C239.38 363.446 244.634 363.287 250.037 363.124L250.507 363.11C254.717 362.996 259.003 362.728 263.262 362.463L263.263 362.463C265.323 362.335 267.376 362.207 269.411 362.096C272.784 361.929 276.156 361.591 279.529 361.254L279.54 361.253C280.844 361.144 282.164 361.018 283.491 360.891L283.494 360.891C286.29 360.624 289.114 360.354 291.861 360.239C294.88 360.072 297.941 359.946 301.003 359.82L301.008 359.82C304.106 359.693 307.204 359.565 310.259 359.395C312.13 359.271 314.001 359.136 315.874 359.001L315.877 359C321.608 358.587 327.364 358.172 333.214 358.046C337.459 357.843 341.765 357.823 346.058 357.803H346.06C348.936 357.789 351.807 357.776 354.65 357.708C357.712 357.625 360.773 357.502 363.854 357.378C367.058 357.249 370.284 357.12 373.554 357.034L384.189 356.526C384.189 356.526 391.277 356.358 394.821 356.02C397.249 355.885 399.677 355.696 402.104 355.507L402.106 355.507C405.754 355.223 409.402 354.939 413.05 354.839C414.991 354.755 416.933 354.755 418.874 354.755C420.815 354.755 422.756 354.755 424.696 354.671C426.745 354.615 428.811 354.541 430.883 354.467L430.885 354.467L430.887 354.467C435.133 354.315 439.405 354.163 443.601 354.163C445.034 354.163 446.531 354.287 448.164 354.423C449.223 354.511 450.34 354.604 451.534 354.671C450.519 355.56 449.789 356.162 449.059 356.765C448.818 356.963 448.578 357.161 448.327 357.37C448.992 357.537 449.654 357.866 450.318 358.196L450.353 358.214C450.353 358.284 450.324 358.354 450.29 358.436C450.242 358.552 450.185 358.692 450.185 358.889C449.763 358.889 449.341 358.932 448.92 358.974C448.497 359.017 448.075 359.059 447.652 359.059C447.598 359.194 447.544 359.316 447.49 359.433C447.452 359.516 447.413 359.597 447.375 359.678C447.13 360.189 446.885 360.703 446.64 361.928H449.677C448.835 361.928 448.077 362.702 447.282 363.514C446.964 363.839 446.64 364.17 446.302 364.46C446.386 364.543 446.47 364.585 446.553 364.627C446.638 364.669 446.723 364.712 446.808 364.798C444.952 364.122 443.771 364.46 443.095 366.317C443.601 366.485 443.939 366.485 444.445 366.485C444.277 366.991 444.109 367.499 443.939 368.173L443.935 368.18C443.768 368.516 443.601 368.852 443.601 369.354L443.095 368.848C443.095 368.51 443.095 368.173 442.927 367.835C442.836 367.925 442.741 368.013 442.645 368.1C442.548 368.186 442.45 368.272 442.351 368.357C441.445 369.138 440.545 369.916 441.237 371.717C441.023 371.825 440.79 371.933 440.546 372.046L440.545 372.047C440.025 372.288 439.45 372.555 438.876 372.899C438.939 373.025 439.025 373.152 439.118 373.287C439.273 373.513 439.445 373.764 439.55 374.081C438.032 374.249 436.513 374.587 436.851 376.444C437.273 376.549 437.696 376.721 438.077 376.876C438.305 376.969 438.517 377.055 438.706 377.118C438.284 377.287 437.862 377.498 437.441 377.709C437.019 377.92 436.597 378.131 436.175 378.299C436.123 378.402 436.072 378.552 436.016 378.715C435.887 379.088 435.734 379.533 435.499 379.651C433.529 380.073 434.141 380.73 434.789 381.425C434.919 381.564 435.049 381.704 435.161 381.844C434.655 382.182 434.15 382.52 433.644 382.688C434.15 382.858 434.487 383.026 434.825 383.364C434.335 383.69 434.003 383.858 433.678 384.023L433.644 384.04C433.728 384.082 433.823 384.135 433.92 384.19C433.953 384.208 433.985 384.227 434.018 384.245C434.28 384.395 434.543 384.546 434.655 384.546C433.98 385.051 433.136 385.727 432.124 386.571C432.124 386.909 432.124 387.077 432.292 387.415L432.269 387.438C431.603 388.106 430.935 388.776 430.267 389.778C429.979 390.209 429.753 390.702 429.523 391.205C429.213 391.88 428.895 392.573 428.411 393.153C427.263 394.411 426.22 395.74 425.181 397.065C423.013 399.829 420.857 402.577 417.777 404.632C416.089 405.813 414.57 407.331 413.05 408.85C411.836 409.997 410.676 411.197 409.516 412.398L409.515 412.399C407.772 414.203 406.03 416.006 404.105 417.628C399.886 421.173 395.497 424.38 390.939 427.587L390.881 427.627C385.332 431.494 379.781 435.363 374.23 439.063C372.359 440.31 370.36 441.365 368.352 442.426C367.099 443.088 365.841 443.752 364.609 444.466C362.992 445.401 361.419 446.294 359.845 447.187C358.296 448.066 356.747 448.946 355.155 449.866C354.416 450.359 353.7 450.92 352.981 451.482C351.73 452.46 350.473 453.443 349.079 454.087C345.361 455.664 341.492 457.092 337.624 458.519L337.619 458.52C335.695 459.23 333.77 459.94 331.864 460.669C331.611 460.753 331.4 460.837 331.189 460.922C331.074 460.967 330.96 461.013 330.838 461.059C330.736 461.098 330.629 461.136 330.513 461.174C329.266 461.723 328.034 462.287 326.808 462.848C323.885 464.185 320.996 465.506 318.023 466.577C314.14 467.926 310.091 468.94 306.038 469.784C305.269 469.976 304.445 469.95 303.597 469.922C302.957 469.901 302.304 469.88 301.652 469.952C300.69 470.121 299.728 470.31 298.767 470.498L298.766 470.499C296.857 470.873 294.95 471.247 293.042 471.471C289.329 471.978 285.616 472.4 281.903 472.822C278.189 473.244 274.476 473.666 270.763 474.173C268.569 474.425 266.416 474.763 264.264 475.1C262.112 475.438 259.959 475.775 257.765 476.028C255.936 476.13 254.045 476.049 252.167 475.967C250.926 475.914 249.691 475.86 248.482 475.86C247.665 475.86 246.826 475.93 245.98 476.001C244.553 476.12 243.108 476.24 241.73 476.028C239.364 475.69 236.998 475.202 234.631 474.713C233.453 474.47 232.275 474.227 231.097 474.003C230.974 473.978 230.843 473.95 230.708 473.921C229.919 473.75 228.973 473.546 228.396 473.835C227.648 474.208 226.952 474.064 226.25 473.919C225.685 473.802 225.117 473.684 224.515 473.835C224.046 473.928 223.578 473.762 223.109 473.595C222.734 473.462 222.358 473.329 221.982 473.329C221.65 473.245 221.277 473.285 220.884 473.326C220.478 473.369 220.049 473.414 219.62 473.329C219.274 473.234 218.934 473.134 218.597 473.034L218.594 473.034C217.121 472.599 215.697 472.179 214.05 472.315C212.676 472.43 211.302 472.001 209.874 471.555C209.198 471.343 208.51 471.128 207.804 470.966C206.331 470.638 204.898 470.31 203.466 469.983C201.945 469.635 200.424 469.287 198.859 468.94C197.677 468.602 196.665 468.096 195.484 467.421C195.431 467.447 195.374 467.477 195.312 467.51C194.983 467.686 194.532 467.926 193.964 467.926C193.162 467.785 192.359 467.67 191.56 467.555C189.503 467.26 187.47 466.969 185.525 466.239C185.061 466.073 184.603 465.895 184.148 465.717L184.147 465.716C182.286 464.989 180.47 464.28 178.435 464.551C178.036 464.651 177.696 464.573 177.345 464.493C177.102 464.438 176.855 464.382 176.579 464.382C176.409 464.156 176.239 463.854 176.069 463.552C175.732 462.954 175.396 462.356 175.06 462.356C173.022 462.459 171.476 461.454 169.94 460.456C168.931 459.801 167.926 459.148 166.788 458.813C166.029 458.559 165.355 458.011 164.68 457.463C164.005 456.914 163.33 456.365 162.57 456.112C161.158 455.534 159.844 454.713 158.526 453.889C156.376 452.545 154.214 451.193 151.599 450.88C150.672 450.763 149.745 450.409 148.765 450.035L148.762 450.034C148.314 449.863 147.854 449.687 147.378 449.528C147.482 449.667 147.579 449.798 147.671 449.924C148.03 450.411 148.326 450.814 148.728 451.217L148.39 451.553L148.234 451.461C143.73 448.793 139.225 446.124 134.72 443.622C134.274 443.51 133.902 443.178 133.555 442.868C133.376 442.709 133.203 442.555 133.03 442.44L128.474 439.401C127.968 439.063 126.954 438.557 126.954 438.725C126.119 439.702 125.283 439.182 124.637 438.781C124.501 438.696 124.373 438.616 124.255 438.557C122.254 437.149 120.123 435.969 117.99 434.788C115.265 433.279 112.537 431.769 110.075 429.78C109.442 429.262 108.77 428.803 108.105 428.349C106.82 427.473 105.564 426.615 104.675 425.391C102.312 422.522 99.4426 420.497 96.2355 418.809C93.7043 417.46 91.341 415.94 88.9777 414.421C87.7961 413.577 86.6144 412.565 86.6144 410.708C86.6144 409.526 86.1086 408.344 84.589 409.02C84.4984 408.884 84.4079 408.745 84.317 408.606C83.7295 407.705 83.1263 406.78 82.3957 406.487C80.7725 405.811 79.5821 404.702 78.3911 403.592C78.096 403.317 77.8009 403.042 77.4992 402.774C77.0247 402.352 76.5831 401.881 76.1435 401.411C75.1767 400.379 74.2193 399.356 72.9426 398.893C70.0359 397.729 68.1303 395.44 66.3636 393.317C66.079 392.975 65.7978 392.637 65.5168 392.309C61.9684 388.128 58.7052 383.661 55.4419 379.194C54.3584 377.711 53.2748 376.227 52.1808 374.755C51.9829 374.457 51.667 374.217 51.3374 373.967C51.1075 373.792 50.8711 373.613 50.6633 373.405L50.4933 373.575C50.9199 374.428 51.3465 375.238 51.7733 376.049C52.1908 376.842 52.6084 377.635 53.0265 378.469C52.9421 378.553 52.8161 378.637 52.6901 378.721C52.5627 378.806 52.4352 378.891 52.3508 378.975C51.8468 378.388 51.3014 377.8 50.756 377.213C50.2043 376.619 49.6525 376.025 49.1437 375.43C48.9738 375.6 48.8058 375.768 48.6379 375.768L60.7902 395.01C61.2931 395.766 61.7545 396.521 62.2159 397.275C62.6828 398.039 63.1496 398.803 63.6593 399.567C63.4914 399.737 63.3215 399.905 62.9836 400.073C61.1281 399.737 59.4406 398.385 58.5949 396.866C57.0773 394.167 55.3879 392.479 52.0129 392.815C51.675 391.633 51.3371 390.284 51.1691 389.102C50.4933 389.102 49.9875 389.102 48.8058 388.934C51.1691 392.647 53.1945 395.854 55.3879 399.567C55.0662 399.374 54.7936 399.206 54.5607 399.062L54.5594 399.061C54.1822 398.828 53.9092 398.659 53.7004 398.555C54.6571 399.565 55.53 400.658 56.3982 401.745C58.2878 404.112 60.1552 406.451 62.8156 407.839C63.2505 409.839 64.6271 411.302 65.9977 412.758C67.2863 414.127 68.5695 415.491 69.0597 417.29C68.6379 417.206 68.2585 417.121 67.8791 417.037C67.4997 416.952 67.1203 416.868 66.6984 416.784C65.9778 415.884 65.2094 414.984 64.4191 414.059C63.727 413.249 63.0182 412.419 62.3097 411.551C62.6457 412.733 63.1535 413.745 63.8273 414.591C64.1898 415.043 64.5468 415.496 64.9024 415.948C66.5336 418.017 68.1331 420.046 70.0734 421.848C70.3 422.075 70.551 422.265 70.7969 422.451C71.4666 422.959 72.0988 423.438 72.0988 424.548C72.4338 424.213 72.7688 424.045 73.4311 423.712L73.4484 423.704C73.1105 424.38 72.9426 424.717 72.7746 425.223C73.1356 425.223 73.449 425.272 73.7399 425.316C73.992 425.355 74.2272 425.391 74.4621 425.391C74.5458 425.642 74.5776 425.924 74.6088 426.202C74.7038 427.044 74.7937 427.841 76.3176 427.587C76.4875 427.587 76.6554 427.755 76.8254 427.924C77.6691 430.118 79.0187 430.118 80.8761 429.274C81.214 429.106 82.0578 429.274 82.2258 429.612C83.0695 431.467 84.2511 431.637 85.7707 430.288C85.7707 430.733 85.8175 431.179 85.8617 431.599C85.9012 431.975 85.9386 432.331 85.9386 432.649H86.6144C86.6144 432.519 86.5893 432.363 86.5585 432.173C86.5096 431.87 86.4465 431.479 86.4465 430.962C86.7687 431.22 87.0417 431.429 87.2749 431.607C87.6521 431.896 87.9251 432.104 88.134 432.313L88.3536 432.621C89.9554 434.865 91.4439 436.951 93.7043 438.725C95.2873 440.059 96.788 441.433 98.2672 442.787C99.7847 444.177 101.28 445.546 102.818 446.829C108.726 451.723 115.308 455.774 121.892 459.487C125.13 461.309 128.315 463.184 131.499 465.06L131.501 465.061C136.283 467.878 141.064 470.694 146.028 473.327C155.986 478.561 166.62 482.104 177.591 484.637C181.642 485.481 185.525 486.325 189.575 487.337C191.094 487.771 192.612 488.298 194.13 488.825C196.156 489.528 198.183 490.231 200.208 490.714C204.836 491.726 209.587 492.613 214.249 493.484C215.029 493.63 215.807 493.775 216.581 493.921L216.83 493.956L216.833 493.956C217.931 494.113 219.04 494.27 220.294 494.426V494.764C220.901 494.764 221.561 494.657 222.158 494.559C223.055 494.413 223.806 494.291 224.009 494.594C224.661 495.639 225.212 495.473 225.896 495.266C226.097 495.205 226.31 495.14 226.54 495.102C227.722 494.764 229.071 494.764 230.421 494.764C232.249 494.829 234.052 495.021 235.848 495.212C238.698 495.514 241.532 495.815 244.431 495.608C244.672 495.608 244.942 495.56 245.225 495.51C246.13 495.35 247.165 495.166 247.808 496.452C247.975 496.368 248.101 496.284 248.226 496.2C248.354 496.115 248.481 496.031 248.652 495.946C248.99 495.861 249.372 495.818 249.754 495.776C250.132 495.734 250.51 495.692 250.845 495.608V495.946C250.637 496.049 250.43 496.089 250.144 496.144C249.965 496.178 249.755 496.219 249.495 496.284C250.339 496.452 250.845 496.62 251.353 496.79C251.105 497.037 250.948 497.104 250.748 497.187C250.675 497.218 250.597 497.251 250.507 497.296C250.432 497.333 250.348 497.371 250.256 497.412C249.935 497.556 249.512 497.747 248.989 498.139C255.066 499.321 260.804 499.491 265.868 498.139V497.128H266.542C266.542 497.46 266.708 497.794 266.874 498.128L266.88 498.139C274.644 498.815 282.239 497.801 289.497 495.27C289.59 495.387 289.68 495.509 289.769 495.63C290.322 496.385 290.819 497.063 291.693 495.608C292.004 495.142 292.744 494.961 293.385 494.805L293.466 494.785L293.548 494.764C293.841 494.699 294.146 494.622 294.458 494.542C295.765 494.21 297.185 493.849 298.275 494.258C299.162 494.554 299.704 494.216 300.236 493.883C300.616 493.647 300.99 493.413 301.482 493.413C303.507 493.413 305.364 493.245 307.22 492.907C307.821 492.807 308.421 492.588 309.057 492.356C309.493 492.197 309.946 492.032 310.427 491.895C310.427 491.725 310.427 491.557 310.259 491.387C309.077 491.219 307.728 491.051 306.714 491.051C308.719 490.048 310.56 489.211 312.397 488.376L312.4 488.374L312.452 488.35C312.452 488.434 312.495 488.476 312.537 488.518C312.58 488.56 312.622 488.603 312.622 488.688C312.417 488.756 312.24 488.907 312.057 489.062C311.788 489.292 311.505 489.532 311.103 489.532H313.466C313.152 489.532 312.772 490.118 312.327 490.805C312.056 491.223 311.76 491.68 311.441 492.063C314.602 491.272 317.627 490.528 320.562 489.805L320.575 489.802C323.276 489.137 325.901 488.491 328.487 487.844V487.507C328.18 487.583 327.908 487.625 327.654 487.664C327.351 487.71 327.075 487.752 326.8 487.844C326.699 485.718 328.055 485.292 329.448 484.855C330.378 484.563 331.324 484.266 331.864 483.456L331.847 483.461L331.846 483.461C330.163 483.965 328.481 484.469 326.8 484.805V484.467C329.631 483.219 332.503 481.97 335.376 480.721L335.378 480.72C338.328 479.438 341.278 478.155 344.185 476.872C344.185 476.957 344.227 476.999 344.27 477.042C344.312 477.084 344.355 477.126 344.355 477.21C343.611 477.705 342.869 478.109 341.927 478.623L341.919 478.627C341.578 478.812 341.212 479.012 340.81 479.235C341.227 479.305 341.586 479.346 341.901 479.382C342.349 479.433 342.706 479.474 343.003 479.573C343.003 480.079 343.003 480.417 342.835 480.587C344.843 480.468 345.115 479.192 345.386 477.916C345.503 477.369 345.619 476.822 345.872 476.366C345.971 476.399 346.077 476.438 346.186 476.479C346.637 476.647 347.153 476.839 347.562 476.704C348.774 476.434 349.88 476.057 351.05 475.658L351.054 475.657C351.347 475.557 351.644 475.456 351.948 475.354L351.989 475.342C353.665 474.838 355.339 474.335 357.013 473.665C358.699 472.927 360.319 472.059 361.955 471.181L361.956 471.181C362.941 470.653 363.932 470.122 364.946 469.614C365.284 469.502 365.771 469.539 366.259 469.577C366.503 469.595 366.747 469.614 366.972 469.614C367.476 469.614 367.813 469.279 368.15 468.944L368.154 468.94C368.377 468.771 368.601 468.547 368.819 468.329C369.257 467.891 369.671 467.476 370.009 467.589C372.372 467.926 374.06 467.083 374.736 464.889C374.821 464.889 374.863 464.847 374.906 464.804C374.948 464.762 374.99 464.719 375.073 464.719L375.103 464.696C375.937 464.03 376.771 463.364 377.605 462.862C379.482 461.839 381.315 460.816 383.148 459.793L383.15 459.792C384.944 458.79 386.74 457.789 388.577 456.786C388.686 456.677 388.865 456.709 389.069 456.745C389.182 456.765 389.301 456.786 389.421 456.786C389.927 456.786 390.603 456.786 390.939 456.618C393.134 455.604 395.159 454.424 397.185 453.243C397.025 453.189 396.966 453.136 396.907 453.083C396.78 452.967 396.652 452.851 395.497 452.735V452.397C397.175 452.063 397.685 451.893 398.687 451.559L398.704 451.553L398.366 451.217C400.903 448.681 403.834 446.539 406.671 444.467C408.742 442.953 410.764 441.476 412.544 439.909C412.866 439.973 413.115 440.037 413.327 440.092C413.67 440.181 413.919 440.245 414.232 440.245C414.402 439.739 414.402 439.233 414.402 438.895C414.557 438.701 414.712 438.498 414.869 438.292C415.395 437.603 415.945 436.883 416.595 436.364C418.041 435.049 419.539 433.81 421.028 432.579L421.029 432.578C423.363 430.649 425.675 428.737 427.736 426.573C432.63 421.678 437.357 416.616 441.745 411.383C445.796 406.657 449.847 401.93 453.222 396.698C457.535 390.075 461.285 383.313 465.114 376.409C465.372 375.942 465.631 375.476 465.891 375.008C466 374.812 466.109 374.615 466.218 374.419C467.742 371.71 469.181 369.001 470.62 366.293C472.051 363.6 473.481 360.907 474.995 358.214C475.333 357.708 476.009 357.034 476.515 357.034C478.705 356.79 480.895 356.585 483.066 356.382C485.414 356.163 487.739 355.945 490.019 355.682C490.862 355.542 491.824 355.049 492.708 354.596C492.884 354.505 493.057 354.417 493.226 354.333C492.971 353.909 492.759 353.443 492.547 352.977C492.336 352.514 492.126 352.052 491.874 351.632C491.536 351.123 491.112 350.657 490.689 350.191C490.268 349.729 489.848 349.266 489.511 348.762C488.845 347.928 488.343 346.928 487.841 345.928L487.823 345.893C487.568 345.468 487.313 345.085 487.058 344.702C486.807 344.326 486.556 343.948 486.304 343.53L486.269 343.467C485.269 341.631 484.269 339.794 483.435 337.792C483.425 337.763 483.415 337.733 483.405 337.702C483.392 337.666 483.38 337.629 483.367 337.591C483.192 337.082 482.949 336.378 483.097 335.934C484.683 332.498 485.764 328.924 486.842 325.355C487.83 322.088 488.815 318.826 490.187 315.68C492.463 310.324 493.464 304.437 494.456 298.609L494.456 298.605C494.715 297.088 494.972 295.574 495.251 294.075C496.137 288.888 496.737 283.702 497.338 278.514C497.538 276.781 497.739 275.047 497.95 273.313C498.083 272.035 498.227 270.769 498.37 269.508L498.371 269.503C498.776 265.936 499.176 262.413 499.302 258.798C500.201 251.895 500.034 245.392 499.868 238.933L499.867 238.913C499.847 238.114 499.826 237.316 499.808 236.518ZM75.4738 424.885C74.8859 424.213 74.3392 423.498 73.7924 422.783C73.2421 422.064 72.6915 421.344 72.0988 420.667L72.6047 420.159L72.727 420.292C74.5436 422.275 76.3602 424.258 78.175 426.405C77.8945 426.265 77.601 426.137 77.3124 426.012C76.5599 425.686 75.8409 425.374 75.4738 424.885ZM78.175 426.405C78.4264 426.321 78.6784 426.279 78.9304 426.237C79.1852 426.195 79.4401 426.153 79.6945 426.067C79.9921 426.563 80.2316 427.119 80.4813 427.698C80.6561 428.103 80.8359 428.52 81.0441 428.936C78.6808 428.768 77.4992 427.755 78.175 426.405ZM253.714 496.114V495.608C255.236 495.448 256.719 495.287 258.201 495.127C259.843 494.95 261.482 494.773 263.167 494.596V495.102C259.96 495.608 256.921 495.946 253.714 496.114ZM289.822 492.789C289.543 492.828 289.266 492.868 288.991 492.907C288.802 492.945 288.604 493.017 288.408 493.089C287.728 493.336 287.06 493.58 286.798 492.401C286.63 492.485 286.462 492.527 286.294 492.569C286.124 492.611 285.954 492.654 285.784 492.739C286.287 494.247 287.209 494.138 288.228 494.017C288.921 493.936 289.659 493.849 290.341 494.258C288.602 494.495 286.9 494.695 285.218 494.893L285.217 494.893C283.307 495.118 281.424 495.339 279.54 495.608V495.27C280.049 495.186 280.601 495.101 281.153 495.016C281.698 494.932 282.244 494.848 282.747 494.764V494.258C281.058 494.089 279.37 493.921 277.683 493.921C277.386 493.921 277.03 494.154 276.684 494.38C276.442 494.539 276.204 494.695 275.995 494.764L275.977 494.769C275.307 494.935 274.636 495.102 273.8 495.102C272.395 495.184 270.99 495.226 269.605 495.268H269.603L269.6 495.268C268.158 495.311 266.738 495.353 265.361 495.44C265.3 495.44 265.217 495.418 265.128 495.39C265.094 495.379 265.059 495.367 265.024 495.355C264.897 495.313 264.771 495.27 264.687 495.27V494.764C270.082 494.039 275.439 493.314 280.794 492.59L280.872 492.579C286.716 491.788 292.557 490.998 298.445 490.208C298.529 490.376 298.571 490.545 298.613 490.714C298.655 490.882 298.697 491.051 298.78 491.219C298.107 491.219 297.582 491.369 297.058 491.519C296.795 491.594 296.531 491.669 296.249 491.725C294.161 492.174 291.941 492.489 289.822 492.789ZM298.78 490.038C300.586 489.803 302.318 489.604 304.027 489.407C305.995 489.181 307.935 488.959 309.921 488.688C302.157 490.882 299.626 491.219 298.78 490.038ZM157.688 141.176L157.69 141.173C161.183 136.423 164.695 131.648 168.14 126.805C168.982 125.711 169.74 124.574 170.497 123.438C171.259 122.296 172.02 121.154 172.866 120.055C173.211 119.595 173.634 119.291 174.136 118.931C174.37 118.762 174.622 118.581 174.892 118.366L174.722 118.03C174.924 117.777 175.126 117.539 175.319 117.312C175.771 116.781 176.173 116.308 176.409 115.835C177.008 114.877 177.438 113.833 177.878 112.765C178.057 112.328 178.239 111.887 178.435 111.446C178.605 111.108 179.111 110.772 179.111 110.772C180.801 111.616 181.282 110.561 181.728 109.583C181.906 109.194 182.077 108.817 182.318 108.577C183.837 106.889 185.357 105.032 186.706 103.344C186.943 103.029 187.18 102.722 187.414 102.419L187.415 102.418C188.183 101.423 188.929 100.457 189.575 99.2936C189.687 98.957 189.5 98.4706 189.314 97.9837C189.22 97.739 189.126 97.4943 189.07 97.2682H188.564C188.817 97.0993 189.07 96.8884 189.322 96.6774C189.575 96.4665 189.828 96.2556 190.081 96.0866C190.154 96.0866 190.195 96.0866 190.232 96.0735C190.282 96.0559 190.323 96.0148 190.419 95.9186L190.47 95.8427C191.466 94.3485 192.461 92.8571 193.458 91.53C195.484 88.8288 197.677 86.1276 200.04 83.7643L200.028 83.7936C199.695 84.6276 199.361 85.4616 199.028 86.1276C199.112 86.1276 199.154 86.1701 199.196 86.2126C199.238 86.2551 199.28 86.2975 199.364 86.2975C200.377 84.947 201.432 83.6389 202.487 82.3307C203.543 81.0226 204.598 79.7145 205.611 78.364L205.599 78.3527C205.433 78.1885 205.269 78.0261 205.105 78.0261C204.683 78.4479 204.303 78.8698 203.923 79.2917C203.543 79.7136 203.163 80.1354 202.741 80.5573L202.736 80.5517C202.568 80.3856 202.402 80.2214 202.234 80.2214C203.923 78.0261 205.611 75.8327 207.298 73.2995C207.636 73.8073 207.974 74.4811 208.648 75.8327C209.049 74.8291 209.451 74.0046 209.816 73.2534C210.066 72.74 210.3 72.2608 210.505 71.7819C210.252 72.0349 209.957 72.2878 209.661 72.5407C209.366 72.7936 209.07 73.0466 208.818 73.2995L208.31 72.7936L211.349 68.237C212.952 65.9577 214.556 63.6369 216.159 61.3161C217.763 58.9953 219.366 56.6745 220.97 54.3952C221.49 53.6518 222.077 52.9739 222.656 52.3038C223.392 51.453 224.117 50.6146 224.683 49.6706C226.647 45.7425 229.307 42.3206 231.966 38.9011C233.649 36.737 235.331 34.5737 236.835 32.2839C237.472 31.3954 238.299 30.601 239.101 29.83C239.364 29.5773 239.624 29.327 239.874 29.0768C240.718 28.0651 241.394 28.403 242.07 29.2468C244.348 32.1159 246.626 35.0275 248.904 37.9391C251.183 40.8508 253.461 43.7624 255.739 46.6315C256.533 47.6238 257.327 48.6067 258.119 49.5867L258.122 49.5914L258.123 49.5926C260.697 52.7793 263.247 55.9364 265.698 59.2897C267.64 61.9909 269.539 64.6916 271.438 67.3923C273.337 70.093 275.236 72.7936 277.177 75.4948C281.566 81.739 285.954 87.985 290.173 94.3991C293.38 99.1247 296.503 103.851 299.625 108.577C302.748 113.303 305.87 118.029 309.077 122.755C310.452 124.768 311.827 126.767 313.198 128.761C316.54 133.618 319.856 138.44 323.087 143.348H314.478C311.85 143.292 309.204 143.18 306.552 143.068L306.551 143.068C301.197 142.842 295.816 142.615 290.511 142.841C283.255 143.182 275.923 143.826 268.617 144.468C265.046 144.782 261.481 145.095 257.935 145.372C244.263 146.553 230.421 146.723 216.751 146.723C213.483 146.723 210.217 147.023 206.95 147.324L206.949 147.324C205.321 147.473 203.693 147.623 202.066 147.735L201.147 147.788C195.561 148.108 190.112 148.42 184.511 148.581C177.591 148.917 170.839 149.087 163.919 149.255C161.35 149.367 158.705 149.331 155.986 149.293C154.599 149.274 153.192 149.255 151.767 149.255C153.724 146.564 155.703 143.874 157.688 141.176ZM345.366 226.897V228.417C345.297 228.417 345.227 228.445 345.145 228.479C345.029 228.527 344.889 228.585 344.691 228.585C344.573 228.173 344.456 227.757 344.338 227.337C343.776 225.345 343.194 223.279 342.497 221.327C340.81 216.432 338.952 211.538 335.915 207.149C333.99 204.455 332.175 201.705 330.345 198.933L330.344 198.931C328.964 196.841 327.576 194.737 326.124 192.633C325.489 191.743 324.661 190.948 323.859 190.178C323.597 189.926 323.337 189.676 323.087 189.426C322.904 189.226 322.721 189.025 322.537 188.823L322.361 188.63C319.054 184.996 315.686 181.297 311.441 178.624C304.689 174.405 297.769 170.86 290.341 167.821C288.316 166.977 286.46 165.966 284.435 164.784H288.486L317.349 164.278C319.425 164.222 321.483 164.184 323.534 164.146L323.536 164.146C327.654 164.071 331.747 163.996 335.915 163.77C337.435 163.77 338.279 164.278 339.122 165.628L339.174 165.715C340.677 168.217 342.179 170.719 343.847 173.223C343.878 173.284 343.914 173.35 343.952 173.421C344.128 173.743 344.355 174.158 344.355 174.573C344.355 178.286 344.355 182.169 344.523 185.882C344.608 187.823 344.734 189.722 344.861 191.621C344.987 193.52 345.113 195.419 345.198 197.36C345.198 198.898 345.145 200.463 345.092 202.044C345.01 204.452 344.927 206.897 345.029 209.342C345.198 215.083 345.366 220.989 345.366 226.897ZM175.685 169.75L175.687 169.75C179.472 169.543 183.237 169.337 187.044 169.173C190.099 169.003 193.196 168.875 196.292 168.748L196.294 168.748C199.357 168.622 202.42 168.496 205.441 168.329L205.577 168.32C208.059 168.153 210.383 167.997 212.868 168.329C210.167 169.678 207.468 171.028 205.105 172.717C203.406 173.848 201.761 175.191 200.11 176.538C198.806 177.602 197.498 178.669 196.157 179.637C193.12 181.831 190.419 184.532 187.888 187.401C185.882 189.829 183.744 192.059 181.598 194.297C180.313 195.637 179.025 196.981 177.761 198.372C176.972 199.273 176.146 200.156 175.32 201.038C173.67 202.8 172.02 204.562 170.671 206.473C168.094 209.81 165.79 213.418 163.39 217.174C163.118 217.6 162.845 218.028 162.57 218.458C162.649 216.938 162.731 215.42 162.812 213.902L162.813 213.897C163.59 199.409 164.363 185.019 163.751 170.354C167.795 170.182 171.75 169.966 175.685 169.75ZM273.97 332.727C273.259 332.905 272.545 333.085 271.829 333.267C267.102 334.462 262.266 335.685 257.429 336.272C253.494 336.835 249.443 336.811 245.373 336.788H245.372C244.553 336.783 243.733 336.778 242.913 336.778C238.525 336.778 234.304 336.61 229.915 336.272C225.021 335.766 220.126 335.258 215.4 333.065C213.894 332.375 212.365 331.708 210.831 331.039C208.236 329.907 205.624 328.767 203.079 327.495C199.028 325.469 194.976 323.106 191.939 319.393C190.338 317.424 188.291 315.725 186.253 314.034L186.252 314.033C185.494 313.404 184.737 312.776 184.005 312.135C183.668 311.461 183.288 310.743 182.908 310.026C182.528 309.309 182.149 308.591 181.812 307.917C180.46 305.721 179.111 303.358 177.929 301.165C177.76 300.911 177.676 300.658 177.591 300.405C177.507 300.152 177.422 299.898 177.253 299.645L177.229 299.617C176.394 298.613 175.559 297.61 174.892 296.606C174.472 295.978 174.069 295.333 173.663 294.682C172.758 293.236 171.835 291.759 170.671 290.362C170.671 290.597 170.707 290.831 170.746 291.083C170.791 291.374 170.839 291.687 170.839 292.049C170.671 292.049 170.503 292.217 170.503 292.217L166.958 283.61C166.886 283.61 166.844 283.61 166.807 283.623C166.758 283.641 166.717 283.682 166.62 283.78L169.659 294.919C169.574 294.919 169.49 294.961 169.405 295.004C169.321 295.046 169.236 295.089 169.152 295.089C168.646 294.413 168.14 293.737 167.802 292.893C167.464 291.544 166.452 291.544 165.607 292.049C165.101 292.387 164.763 293.569 164.933 294.075C166.108 296.928 167.449 299.781 168.791 302.636L168.792 302.637L168.814 302.684C169.152 303.696 169.489 304.54 169.995 305.553C170.053 305.669 170.151 305.784 170.253 305.906C170.452 306.141 170.671 306.401 170.671 306.735C170.867 307.127 171.049 307.518 171.229 307.905C171.669 308.853 172.098 309.777 172.696 310.616C173.456 311.629 174.258 312.641 175.06 313.654C175.861 314.667 176.663 315.679 177.423 316.692C178.513 318.145 179.515 319.685 180.493 321.187L180.495 321.189C180.879 321.781 181.261 322.366 181.642 322.938C181.746 323.146 181.977 323.226 182.179 323.296C182.306 323.339 182.421 323.379 182.486 323.444C183.331 325.975 186.2 327.833 188.226 326.821C188.509 328.993 189.956 330.373 191.471 331.819C192.662 332.955 193.896 334.132 194.64 335.766C192.614 334.923 191.095 334.247 189.743 333.571C189.64 333.676 189.6 333.78 189.545 333.924C189.511 334.013 189.472 334.118 189.407 334.247C191.433 335.258 193.458 336.272 195.314 337.454C197.001 338.466 198.691 339.479 200.208 340.661C202.236 342.516 204.597 343.53 207.468 344.206C207.298 343.698 207.13 343.53 207.13 343.53C211.855 345.725 216.751 348.087 220.464 349.944C202.909 350.282 184.175 350.62 164.763 350.956C164.763 349.352 164.721 347.791 164.679 346.23C164.637 344.669 164.595 343.108 164.595 341.505C164.595 340.96 164.65 340.443 164.704 339.931C164.785 339.174 164.864 338.428 164.763 337.622C164.595 335.047 164.483 332.471 164.371 329.902L164.371 329.901C164.146 324.725 163.921 319.575 163.245 314.499C162.232 306.397 162.232 298.464 162.402 290.362C162.528 287.051 162.367 283.644 162.208 280.286C162.156 279.193 162.105 278.105 162.064 277.028C162.064 271.12 162.064 265.382 162.232 259.473C162.232 258.752 162.478 258.154 162.761 257.468L162.762 257.466C162.81 257.351 162.859 257.232 162.907 257.11H163.413C163.48 257.244 163.494 257.404 163.507 257.559C163.528 257.796 163.547 258.021 163.751 258.124C164.257 258.63 165.101 259.473 165.439 259.305C165.666 259.154 165.919 259.002 166.179 258.846C167.074 258.309 168.046 257.727 168.308 256.942C169.152 254.917 169.489 252.721 169.489 250.696C169.489 249.181 170.163 248.169 170.835 247.157L170.839 247.151C171.058 246.823 171.206 246.495 171.376 246.121C171.468 245.918 171.566 245.701 171.685 245.464C171.398 245.249 171.111 245.065 170.812 244.872C170.405 244.611 169.975 244.334 169.489 243.946C169.649 243.506 169.762 243.048 169.874 242.59C170.236 241.115 170.595 239.654 172.528 238.882C172.754 238.768 172.829 238.355 172.904 237.942C172.941 237.736 172.978 237.53 173.034 237.362C173.118 236.687 173.203 235.97 173.287 235.253C173.372 234.535 173.456 233.818 173.54 233.143C173.878 233.649 174.046 233.817 174.384 234.155C174.554 233.817 174.722 233.649 174.722 233.649C174.722 233.424 174.703 233.124 174.685 232.824C174.647 232.224 174.61 231.624 174.722 231.624C175.952 231.418 176.124 230.528 176.296 229.634C176.408 229.056 176.519 228.477 176.917 228.079C177.015 227.981 176.941 227.768 176.863 227.541C176.806 227.378 176.747 227.207 176.747 227.067C176.747 226.729 176.747 226.221 176.917 226.221C178.321 225.921 178.772 224.904 179.225 223.881C179.534 223.183 179.845 222.482 180.46 222.003C180.774 221.794 180.958 221.521 181.212 221.144C181.37 220.91 181.554 220.637 181.812 220.315C182.675 221.826 182.019 222.854 181.391 223.841C181.036 224.397 180.691 224.939 180.63 225.548C183.499 223.86 184.343 219.809 182.655 218.628C183.331 218.12 184.005 217.446 184.511 216.77C185.251 215.963 186.017 215.183 186.779 214.408C187.928 213.238 189.066 212.08 190.081 210.862C190.672 210.102 191.136 209.258 191.601 208.415C192.065 207.571 192.529 206.727 193.12 205.967C193.796 205.124 195.146 204.448 196.157 203.942C199.196 202.255 202.066 200.397 203.923 197.528C204.261 197.19 204.767 196.852 205.273 196.516C205.471 196.384 205.747 196.303 206.02 196.224C206.443 196.1 206.858 195.979 206.96 195.671C207.13 195.335 206.622 194.491 206.284 193.983C206.565 193.843 206.845 193.645 207.173 193.413C207.637 193.086 208.196 192.691 208.986 192.296C208.708 192.853 208.532 193.307 208.373 193.715C208.244 194.05 208.126 194.354 207.974 194.659L208.818 195.503C209.808 194.733 211.156 193.892 212.395 193.118L212.397 193.117C213.059 192.704 213.69 192.311 214.218 191.958C214.218 191.79 213.374 191.114 213.374 191.114C213.077 191.263 212.736 191.441 212.364 191.635C211.47 192.103 210.397 192.663 209.323 193.139C209.507 192.864 209.591 192.639 209.656 192.464C209.711 192.316 209.753 192.204 209.829 192.128C212.193 190.608 214.556 189.089 217.087 187.907C222.995 185.206 228.903 182.507 234.81 179.973C235.535 179.611 236.433 179.681 237.318 179.751C237.669 179.778 238.019 179.805 238.355 179.805C238.861 179.805 239.198 179.805 239.706 179.637C242.405 178.794 245.107 177.95 247.808 177.274C248.989 176.936 250.339 176.768 251.521 176.768C253.202 176.824 254.883 176.861 256.564 176.899H256.565C259.947 176.973 263.329 177.048 266.712 177.274C268.905 177.442 270.931 177.95 272.956 178.624C275.489 179.467 278.189 180.649 280.552 181.831C283.421 183.35 286.122 185.038 288.823 186.895C290.715 188.135 292.557 189.425 294.387 190.707C297.291 192.741 300.167 194.755 303.169 196.516C307.896 199.385 311.609 203.266 314.648 207.655C315.35 208.645 316.07 209.616 316.789 210.585C319.867 214.736 322.9 218.827 324.269 224.028L326.8 235.169C326.938 235.721 327.126 236.273 327.316 236.832C327.825 238.323 328.35 239.864 327.982 241.583C327.233 245.326 326.616 249.204 326.016 252.979L325.788 254.411C325.45 256.098 325.112 257.786 325.28 259.473C325.609 264.566 323.7 269.018 321.73 273.61L321.568 273.989C321.189 274.841 320.705 275.692 320.203 276.573C319.81 277.264 319.407 277.974 319.036 278.716C319.204 278.883 320.218 279.391 320.386 279.391L321.905 276.352C321.976 276.352 322.017 276.352 322.054 276.365C322.104 276.383 322.145 276.424 322.243 276.522C321.821 277.704 321.441 278.93 321.06 280.155C320.681 281.377 320.301 282.6 319.88 283.78C319.693 284.264 319.505 284.75 319.317 285.237C317.475 290.009 315.595 294.882 313.298 299.477C312.487 301.198 311.312 302.738 310.138 304.277C309.354 305.303 308.571 306.329 307.896 307.409C307.143 308.462 306.458 309.549 305.78 310.625C304.937 311.962 304.105 313.282 303.169 314.499C301.652 316.356 300.132 318.212 298.107 319.563C293.548 322.938 288.823 326.313 283.929 329.014C280.89 330.872 277.345 331.883 273.97 332.727ZM184.005 312.135C184.511 314.161 185.693 315.848 187.55 317.03C186.706 318.044 185.525 317.536 183.837 314.837C183.483 315.072 183.129 315.225 182.832 315.354C182.704 315.409 182.587 315.46 182.486 315.51L182.509 315.456C183.009 314.293 183.507 313.134 184.005 312.135ZM184.005 323.782L183.837 323.95C183.758 323.911 183.671 323.872 183.578 323.83C183.273 323.694 182.915 323.534 182.655 323.276L178.605 317.2C178.267 316.692 178.099 316.186 178.267 315.51C180.122 318.38 181.98 321.081 184.005 323.782ZM288.991 346.905C296.587 343.698 302.833 339.141 308.571 333.909C309.415 333.065 310.259 332.221 311.273 331.546C318.361 327.157 323.593 321.081 328.32 314.329C332.007 309.028 334.829 303.254 337.646 297.492C338.954 294.816 340.262 292.141 341.654 289.518C341.991 288.842 342.329 288.167 342.667 287.661C342.329 306.903 344.523 325.807 347.054 344.88C327.982 345.555 308.571 346.231 288.991 346.905ZM460.144 341.842C460.059 342.01 459.933 342.178 459.807 342.345C459.68 342.515 459.552 342.684 459.468 342.854C459.369 342.657 459.328 342.403 459.277 342.091C459.241 341.869 459.2 341.617 459.13 341.337C458.362 343.383 456.915 343.102 455.598 342.847C455.178 342.765 454.771 342.686 454.404 342.686C445.29 342.854 436.007 342.854 426.892 342.854C418.114 342.854 409.169 342.854 400.392 343.024C398.742 343.024 397.036 343.247 395.339 343.469C394.084 343.632 392.834 343.796 391.614 343.868C384.695 344.206 377.775 344.374 370.855 344.542C370.54 344.542 370.226 344.218 369.832 343.811C369.59 343.561 369.318 343.28 368.997 343.024C368.829 343.362 368.491 343.868 367.984 344.542C367.889 344.353 367.741 344.164 367.57 343.944C367.436 343.773 367.288 343.584 367.14 343.362C366.972 343.868 366.802 344.374 366.634 344.712H366.128C366.012 343.9 365.856 343.108 365.701 342.323L365.701 342.322C365.406 340.821 365.114 339.343 365.114 337.792C365.114 334.749 365.297 331.706 365.48 328.664C365.601 326.643 365.722 324.621 365.79 322.6C365.903 321.018 365.865 319.512 365.827 318.031L365.827 318.028C365.809 317.297 365.79 316.573 365.79 315.848C366.128 316.102 366.424 316.313 366.719 316.524C367.014 316.735 367.31 316.946 367.648 317.2C367.98 316.532 368.314 316.03 368.648 315.527L368.659 315.51C368.659 315.51 368.321 315.342 367.984 315.005C368.321 314.837 368.659 314.499 368.659 314.331C368.726 314.131 368.818 313.932 368.906 313.743C369.041 313.451 369.165 313.184 369.165 312.979C369.165 312.162 369.005 311.426 368.849 310.715C368.78 310.397 368.712 310.085 368.659 309.772C368.829 309.772 368.997 309.772 369.165 309.604L370.179 314.667H370.685C370.407 314.18 370.616 313.722 370.828 313.258C371.13 312.594 371.439 311.917 370.347 311.122C370.248 311.023 370.324 310.632 370.404 310.224C370.459 309.937 370.517 309.643 370.517 309.434C370.119 308.639 369.825 307.843 369.471 306.883C369.375 306.622 369.274 306.348 369.165 306.059C369.335 305.891 369.841 305.721 370.347 305.553C370.109 305.434 369.891 305.315 369.688 305.203C369.314 304.998 368.986 304.818 368.659 304.708C370.347 303.19 370.347 302.346 368.829 300.657C368.958 300.593 369.087 300.553 369.197 300.519C369.374 300.464 369.503 300.425 369.503 300.321C369.503 298.801 369.503 297.282 369.165 295.762C369.078 295.326 369.07 294.866 369.062 294.408C369.04 293.095 369.017 291.788 367.14 291.038C367.176 291.145 367.212 291.245 367.25 291.341C367.232 291.357 367.212 291.377 367.189 291.4C367.208 291.4 367.226 291.402 367.244 291.406C367.256 291.408 367.268 291.411 367.279 291.415C367.412 291.737 367.568 292.017 367.816 292.387C367.816 292.387 367.31 292.555 366.802 292.893C365.371 291.572 365.448 289.963 365.534 288.162C365.58 287.201 365.628 286.186 365.452 285.13C366.616 285.462 367.452 285.795 368.284 286.126L368.285 286.127L368.321 286.141C368.151 285.545 367.851 284.906 367.531 284.222C367.217 283.553 366.884 282.842 366.634 282.091H365.958V270.952C365.958 271.048 366.342 271.089 366.798 271.138C367.141 271.174 367.525 271.216 367.816 271.288C367.816 271.204 367.857 271.12 367.899 271.036C367.941 270.952 367.984 270.867 367.984 270.782C367.715 270.424 367.399 270.066 367.061 269.683C366.762 269.344 366.445 268.985 366.128 268.589L366.466 268.251C365.352 266.859 365.615 265.008 365.742 264.118C365.769 263.929 365.79 263.783 365.79 263.694V251.878C366.563 252.651 366.451 253.531 366.346 254.355C366.221 255.329 366.106 256.224 367.478 256.772V255.085H367.31C367.224 253.811 367.182 252.538 367.139 251.265C367.097 250.007 367.055 248.748 366.972 247.489H366.634C366.551 247.656 366.509 247.782 366.467 247.907C366.424 248.035 366.382 248.163 366.296 248.333H365.958C366.296 234.999 366.634 221.665 366.972 207.993C367.435 208.595 367.911 209.185 368.382 209.769L368.383 209.77C369.628 211.313 370.841 212.816 371.698 214.407C374.674 219.842 378.345 224.682 382.026 229.535C383.146 231.012 384.268 232.49 385.37 233.987C388.424 238.186 391.286 242.673 394.1 247.086L394.102 247.088C395.02 248.528 395.933 249.96 396.847 251.372C399.119 254.822 401.349 258.272 403.579 261.722L403.584 261.731C405.825 265.198 408.067 268.665 410.351 272.133C413.726 277.366 417.271 282.598 420.816 287.661C424.023 292.217 427.398 296.606 430.775 300.995C432.216 302.945 433.699 304.895 435.182 306.845C436.652 308.777 438.122 310.71 439.55 312.641L439.708 312.862C443.032 317.515 446.355 322.165 449.679 326.651C451.366 329.014 453.222 331.378 455.079 333.741C455.853 334.773 456.925 335.609 457.839 336.323C458.12 336.542 458.386 336.75 458.624 336.948C458.454 336.948 458.286 336.948 457.948 336.778C458.081 336.955 458.202 337.121 458.315 337.274C458.631 337.707 458.881 338.048 459.13 338.298C460.987 339.309 461.155 340.323 460.144 341.842ZM468.751 299.645V298.464C468.751 298.521 468.756 298.583 468.763 298.648C468.769 298.705 468.777 298.764 468.786 298.824C468.824 299.105 468.866 299.414 468.751 299.645ZM474.489 225.21C474.321 225.21 473.308 224.196 473.14 224.028C473.071 224.233 473.058 224.439 473.044 224.656C473.024 224.973 473.003 225.314 472.802 225.716C472.72 225.468 472.396 225.382 472.086 225.299C471.762 225.213 471.452 225.131 471.452 224.872C471.367 226.054 471.621 227.237 471.874 228.419C472.127 229.6 472.38 230.781 472.296 231.962C472.514 231.816 473.012 231.702 473.55 231.579C474.263 231.415 475.045 231.236 475.333 230.948C475.503 231.118 475.839 231.286 476.009 231.286C472.634 233.817 473.478 236.35 474.995 239.219C475.017 239.263 475.041 239.309 475.068 239.357C475.094 239.406 475.123 239.457 475.153 239.51C475.56 240.239 476.217 241.418 475.333 242.594C475.1 242.827 475.269 243.382 475.452 243.98C475.534 244.249 475.619 244.528 475.671 244.79H476.177V245.126L474.659 245.633C474.539 245.452 474.202 245.206 473.82 244.927C473.133 244.424 472.296 243.812 472.296 243.27V251.878C473.453 252.224 473.817 253.444 474.149 254.558C474.301 255.068 474.447 255.557 474.659 255.928C474.995 255.423 475.165 255.085 475.333 254.579L475.503 254.747L475.498 254.776C475.33 255.78 475.162 256.782 474.827 257.786C474.775 258.023 474.722 258.255 474.67 258.485C474.388 259.73 474.125 260.892 473.984 262.174C473.984 262.258 474.068 262.385 474.153 262.511C474.237 262.638 474.321 262.764 474.321 262.848C473.152 265.505 473.121 268.363 473.089 271.21C473.071 272.886 473.052 274.558 472.802 276.184C472.526 277.931 472.551 279.728 472.576 281.547C472.597 283.068 472.618 284.605 472.464 286.141C472.126 289.012 471.452 292.049 470.777 294.919C470.609 295.424 470.271 295.594 469.427 295.932C469.763 293.907 469.595 292.555 469.257 290.7C469.173 290.7 468.582 290.404 467.991 290.109C467.401 289.814 466.81 289.518 466.726 289.518C466.726 290.969 467.235 292.739 467.745 294.513C468.066 295.629 468.387 296.746 468.583 297.788C468.32 297.701 467.65 297.342 467.042 297.016C466.476 296.713 465.963 296.438 465.882 296.438C465.66 297.771 465.584 299.398 465.51 300.979C465.471 301.8 465.434 302.609 465.376 303.358C465.294 304.176 464.894 304.955 464.485 305.752C464.05 306.599 463.605 307.466 463.519 308.423C463.519 308.844 463.724 309.207 463.95 309.609C464.268 310.172 464.63 310.813 464.53 311.798H465.882C465.882 310.131 466.253 308.546 466.628 306.942C467.012 305.297 467.402 303.633 467.402 301.839H467.907C467.973 301.971 468.091 302.103 468.2 302.225C468.369 302.415 468.517 302.581 468.413 302.684C468.322 303.185 468.206 303.699 468.089 304.218C467.773 305.621 467.447 307.067 467.57 308.423C467.57 308.832 467.708 309.242 467.85 309.664C468.059 310.283 468.276 310.927 468.075 311.63C467.737 312.641 467.57 313.655 467.402 315.173C467.337 314.852 467.273 314.605 467.218 314.394C467.128 314.049 467.064 313.8 467.064 313.485C466.979 313.485 466.557 313.443 466.135 313.401C465.713 313.359 465.291 313.317 465.206 313.317C465.119 313.841 465.439 314.365 465.744 314.865C466.029 315.332 466.301 315.779 466.22 316.186C466.114 316.292 466.01 316.332 465.864 316.387C465.776 316.421 465.672 316.46 465.544 316.524L459.974 308.423C455.585 302.008 451.196 295.594 446.808 289.012C445.626 287.323 444.614 285.635 443.771 283.948C438.538 275.003 432.8 266.393 426.386 258.124C423.299 254.187 420.617 250.048 417.913 245.879C416.328 243.433 414.735 240.977 413.05 238.544C410.941 235.422 408.831 232.341 406.721 229.26C404.611 226.18 402.501 223.099 400.392 219.977C399.818 219.213 399.196 218.472 398.572 217.728L398.571 217.727C397.542 216.501 396.506 215.266 395.665 213.901C393.471 210.441 391.404 206.939 389.336 203.436C387.269 199.934 385.201 196.431 383.007 192.971C380.308 188.799 377.43 184.717 374.569 180.66C373.493 179.135 372.421 177.614 371.361 176.092C370.011 174.235 368.659 172.21 367.31 170.184C367.14 169.846 366.972 169.508 366.972 169.003C366.634 165.29 366.296 161.577 366.128 158.032C366.128 156.364 366.211 154.696 366.294 153.009C366.379 151.279 366.466 149.529 366.466 147.735V144.698C366.466 144.276 366.508 143.896 366.55 143.516C366.592 143.136 366.634 142.757 366.634 142.335C366.718 142.25 366.802 142.123 366.887 141.997C366.971 141.87 367.056 141.744 367.14 141.659C365.515 141.659 363.873 141.64 362.223 141.622L362.221 141.622C358.902 141.584 355.557 141.547 352.286 141.659C349.081 141.829 347.392 140.477 345.198 138.116C340.923 133.277 337.398 127.99 333.872 122.702C332.109 120.057 330.345 117.412 328.487 114.823C323.255 107.395 317.855 100.137 312.452 92.8796C310.243 89.9034 308.032 86.9703 305.822 84.0369L305.821 84.0361C303.644 81.1465 301.466 78.2566 299.288 75.3249C297.654 73.0711 296.039 70.8172 294.423 68.563C291.2 64.0661 287.976 59.5685 284.603 55.071C278.527 46.9694 272.282 38.8679 266.036 30.7663C264.242 28.4428 262.315 26.1865 260.339 23.8722L260.338 23.8712C259.155 22.4858 257.954 21.0795 256.753 19.6257C257.045 19.6707 257.334 19.7156 257.621 19.7602C259.486 20.0505 261.242 20.3238 262.999 20.4694L271.101 20.9753C272.637 21.1037 274.174 21.2211 275.71 21.3385C280.25 21.6855 284.79 22.0324 289.329 22.6628C292.513 23.0877 295.697 23.6461 298.922 24.2119C300.827 24.546 302.746 24.8827 304.689 25.196C315.829 27.0515 326.8 30.0905 337.435 33.6354C342.521 35.2853 347.496 37.3837 352.451 39.4733C353.578 39.9489 354.705 40.424 355.831 40.8932C369.503 46.4636 382.501 53.2136 395.327 60.3034C398.354 61.9416 400.438 64.3339 402.565 66.7761L402.566 66.7773C403.286 67.6045 404.012 68.4374 404.78 69.2487L404.854 69.3254C409.218 73.8584 413.581 78.3904 417.777 83.0905C421.399 87.2132 424.838 91.4279 428.296 95.6665L428.297 95.6677L428.304 95.6765C429.515 97.1615 430.729 98.6495 431.954 100.137C434.053 102.655 436.192 105.172 438.332 107.69C440.497 110.236 442.661 112.782 444.782 115.329C445.683 116.342 446.433 117.504 447.183 118.666C447.558 119.248 447.933 119.829 448.327 120.391C449.154 121.631 450.012 122.855 450.873 124.083C452.825 126.867 454.789 129.668 456.429 132.714C457.763 135.246 458.674 138.094 459.581 140.925C459.822 141.68 460.063 142.433 460.312 143.178C461.171 145.842 462.03 148.462 462.889 151.082L462.89 151.085C463.718 153.612 464.547 156.14 465.376 158.708C466.556 162.589 467.57 166.639 468.413 170.69C468.721 171.921 468.854 173.187 468.986 174.455C469.145 175.971 469.304 177.491 469.763 178.962C470.27 180.734 470.27 182.591 470.27 184.447C470.27 186.303 470.27 188.16 470.777 189.932C470.827 190.033 470.877 190.148 470.927 190.27C470.961 190.353 470.995 190.438 471.029 190.523C471.114 190.734 471.198 190.945 471.282 191.114C471.958 191.79 472.464 192.464 471.452 193.477C471.282 193.645 471.282 194.321 471.452 194.827C471.699 194.58 471.857 194.332 472.057 194.016C472.129 193.902 472.207 193.78 472.296 193.645C472.296 193.843 472.354 193.984 472.402 194.1C472.435 194.182 472.464 194.252 472.464 194.321C472.464 194.546 472.445 194.771 472.427 194.996C472.389 195.446 472.352 195.896 472.464 196.346C472.464 196.603 472.659 196.957 472.827 197.261C472.88 197.357 472.93 197.447 472.97 197.528C473.179 197.319 473.388 197.175 473.676 196.976C473.855 196.853 474.063 196.71 474.321 196.516C475.839 202.255 476.009 207.993 476.009 213.901C476.009 215.188 476.063 216.476 476.117 217.761C476.296 222.036 476.475 226.288 474.659 230.442C474.915 229.504 474.74 228.61 474.569 227.737C474.402 226.881 474.239 226.045 474.489 225.21Z" fill="#DD3735"/>
<path d="M393.857 458.164C392.002 459.514 390.145 460.695 387.781 461.201C387.698 461.118 387.656 461.034 387.614 460.95C387.571 460.865 387.529 460.78 387.443 460.695C388.372 460.104 389.343 459.514 390.313 458.923C391.284 458.332 392.255 457.741 393.184 457.15C393.268 457.319 393.394 457.488 393.521 457.657C393.647 457.826 393.773 457.995 393.857 458.164Z" fill="#DD3735"/>
<path d="M77.3809 229.455C79.2363 227.092 81.0938 224.729 83.1191 222.367C83.2031 222.451 83.583 222.578 83.9629 222.704C84.3428 222.831 84.7227 222.957 84.8066 223.041L84.2807 223.711C82.4927 225.986 80.248 228.843 78.5625 231.143C78.4154 230.996 78.2365 230.69 78.0535 230.376C77.8161 229.97 77.5717 229.551 77.3809 229.455Z" fill="#DD3735"/>
<path d="M29.4453 312.162C28.7611 310.71 28.0775 309.214 27.394 307.718C26.7274 306.26 26.061 304.802 25.3945 303.385C25.5625 303.217 26.7441 302.709 26.9121 302.709C28.1287 304.478 28.9104 306.464 29.6842 308.431C30.0918 309.466 30.4973 310.496 30.9629 311.486C30.9629 311.486 29.6133 312.162 29.4453 312.162Z" fill="#DD3735"/>
<path d="M72.4863 231.143C71.9795 231.902 71.4731 232.704 70.9668 233.506C70.4604 234.308 69.9541 235.109 69.4473 235.869C69.3635 235.785 68.8591 235.953 68.3539 236.122C67.8464 236.291 67.3381 236.46 67.2539 236.375C67.7599 235.616 68.646 234.561 69.5322 233.506C70.4179 232.451 71.3039 231.396 71.8105 230.637C71.9785 230.807 72.1484 230.975 72.4863 231.143Z" fill="#DD3735"/>
<path d="M375.91 465.049C375.931 465.034 375.949 465.017 375.967 464.999C376.009 464.956 376.051 464.914 376.135 464.914C377.316 465.084 378.668 465.252 380.018 465.252C377.822 466.771 376.473 466.604 375.797 465.084C375.846 465.084 375.881 465.07 375.91 465.049Z" fill="#DD3735"/>
<path d="M72.8223 238.232C72.9915 237.729 73.3274 237.223 73.6621 236.719L73.666 236.713C74.0039 236.713 74.5117 236.545 74.5117 236.545C74.8314 235.984 74.9994 235.5 75.1598 235.037C75.3376 234.525 75.5061 234.039 75.8613 233.506C75.7778 233.422 75.6938 233.38 75.6099 233.338C75.5249 233.296 75.4399 233.253 75.3555 233.168C74.8486 233.506 74.3423 233.886 73.8359 234.266C73.3296 234.646 72.8232 235.025 72.3164 235.363C72.6543 235.701 72.6543 235.869 72.6543 236.207C71.3047 236.039 70.7969 236.713 70.123 238.57C70.0241 238.865 69.6966 239.045 69.2736 239.277C68.9703 239.444 68.618 239.638 68.2656 239.92C68.1873 240.078 68.1085 240.345 68.0124 240.672C67.9025 241.045 67.7701 241.495 67.5898 241.945L67.7598 242.115C67.4219 242.451 66.916 242.621 66.916 242.621C66.4105 243.126 65.8633 243.589 65.3162 244.052C64.7661 244.518 64.2162 244.983 63.709 245.49C63.5391 245.996 63.3711 246.504 63.3711 247.01C63.7289 246.652 64.164 246.201 64.639 245.709C65.7328 244.576 67.0382 243.224 68.0977 242.283L68.2656 242.451C68.6035 241.945 68.8989 241.439 69.1943 240.933C69.4897 240.426 69.7852 239.92 70.123 239.414C70.2066 239.498 70.2485 239.582 70.2905 239.666C70.333 239.75 70.3755 239.835 70.4609 239.92C70.2015 240.609 69.9426 241.343 69.6839 242.076C69.4363 242.778 69.1888 243.48 68.9414 244.141C68.8556 244.183 68.759 244.237 68.6625 244.29C68.3793 244.448 68.0977 244.604 68.0977 244.479C67.7588 244.732 67.4626 245.028 67.1664 245.324C66.8718 245.618 66.5771 245.913 66.2402 246.166L63.2031 248.191C61.7895 249.463 60.3773 250.615 58.8669 251.848C58.5722 252.088 58.2737 252.332 57.9707 252.58C57.4966 253.325 57.0225 254.042 56.5375 254.776C55.8135 255.871 55.0652 257.004 54.2559 258.318C56.2812 257.812 56.7891 258.656 56.6191 260.344C58.5385 260.618 59.0098 259.445 59.4812 258.271C59.5902 258 59.6992 257.728 59.8262 257.475C59.8717 257.384 59.917 257.269 59.9655 257.147C60.0982 256.811 60.2545 256.416 60.502 256.293C61.4677 255.435 62.5013 254.645 63.5596 253.836C64.1665 253.373 64.7815 252.903 65.3965 252.41C65.7344 252.072 65.7344 251.398 65.7344 250.891C65.7344 250.794 65.457 250.753 65.125 250.704C64.8779 250.667 64.6006 250.626 64.3848 250.555C65.3959 249.429 66.7079 247.78 67.9204 246.255C68.5277 245.492 69.1101 244.76 69.6172 244.141C70.4609 243.633 71.3047 242.959 71.3047 242.451C71.1604 240.876 71.9902 240.273 73.0699 239.714C72.2946 243.396 70.0272 246.531 67.7598 247.178L67.7644 247.18C68.4386 247.517 69.1105 247.853 69.6172 247.684C69.9935 247.559 70.2769 247.06 70.5356 246.604C70.6247 246.447 70.7109 246.296 70.7969 246.166L75.3555 239.582L76.875 237.051L76.1992 236.375C75.8613 236.966 75.5239 237.515 75.1865 238.063C74.8491 238.612 74.5117 239.161 74.1738 239.752L73.5825 239.456L73.666 239.414C72.9922 238.908 72.8223 238.4 72.8223 238.232Z" fill="#DD3735"/>
<path d="M21.2183 310.552C20.7973 310.511 20.3947 310.473 19.9922 310.473C19.8242 310.643 20.4981 311.654 20.668 311.824H24.2129C24.2129 311.402 24.1704 311.022 24.1279 310.643C24.0855 310.263 24.043 309.883 24.043 309.461H23.5371C23.5371 309.799 23.3262 309.925 23.1152 310.052C22.9043 310.178 22.6934 310.305 22.6934 310.643C22.1633 310.643 21.6797 310.596 21.2183 310.552Z" fill="#DD3735"/>
<path d="M18.1527 302.275C18.3253 302.42 18.4979 302.564 18.6426 302.709C18.6426 302.541 18.8106 302.371 18.9805 302.203C18.8105 301.609 18.6831 301.057 18.5556 300.505C18.4297 299.96 18.3037 299.415 18.1367 298.828C17.6289 299.672 17.1231 300.516 17.291 301.189C17.291 301.552 17.722 301.914 18.1527 302.275Z" fill="#DD3735"/>
<path d="M23.8845 294.549C23.5436 293.654 23.2025 292.759 22.8613 291.906C22.5234 291.906 21.5117 292.414 21.3438 292.582C21.6841 293.434 22.0678 294.33 22.4513 295.225C22.8271 296.102 23.2027 296.979 23.5371 297.814C23.7051 297.646 24.7188 297.139 24.8867 297.139C24.5531 296.303 24.2189 295.426 23.8845 294.549Z" fill="#DD3735"/>
<path d="M400.646 452.695C399.839 452.881 399.171 453.035 398.584 453.27V453.268C398.417 453.602 398.249 453.895 398.082 454.187C397.912 454.486 397.742 454.784 397.572 455.125C397.74 455.125 397.908 455.293 398.078 455.463C398.88 454.66 399.788 453.964 400.886 453.121C401.174 452.9 401.475 452.669 401.791 452.424C401.38 452.527 401 452.614 400.646 452.695Z" fill="#DD3735"/>
</svg>
