<svg width="100" height="38" viewBox="0 0 100 38" fill="none" xmlns="http://www.w3.org/2000/svg">
<path d="M73.5973 31.0816L76.4861 23.7763H84.8276L80.8687 12.6946L85.8196 0.174622L100 37.8249H89.5424L87.119 31.0816H73.5973Z" fill="#3D3D3D"/>
<path d="M64.6761 37.8253L79.8561 0.175201H69.7923L59.4077 24.5052L52.0237 0.175201H44.2879L36.3594 24.5052L30.7676 13.4186L25.7077 29.0078L30.8453 37.8253H40.7494L47.9141 16.0062L54.7453 37.8253H64.6761Z" fill="#5A0FC8"/>
<path d="M9.55286 24.9005H15.7517C17.6297 24.9005 19.3019 24.6908 20.768 24.2713L22.3716 19.3328L26.8517 5.52891C26.5106 4.98776 26.1207 4.47619 25.6826 3.99405C23.3819 1.44776 20.0161 0.174622 15.5849 0.174622H0V37.8249H9.55286V24.9005ZM17.7584 8.83662C18.6567 9.74076 19.1061 10.9512 19.1061 12.4673C19.1061 13.9952 18.7109 15.2066 17.921 16.1022C17.0543 17.0975 15.4594 17.5946 13.1351 17.5946H9.55286V7.47991H13.1614C15.3274 7.47991 16.8596 7.93191 17.7584 8.83662Z" fill="#3D3D3D"/>
</svg>
