<svg width="100" height="90" viewBox="0 0 100 90" fill="none" xmlns="http://www.w3.org/2000/svg">
<path d="M50.1045 62.6569C76.2312 62.6569 97.4111 54.57 97.4111 44.5944C97.4111 34.6187 76.2312 26.5318 50.1045 26.5318C23.9778 26.5318 2.79788 34.6187 2.79788 44.5944C2.79788 54.57 23.9778 62.6569 50.1045 62.6569Z" stroke="#61DAFB" stroke-width="5"/>
<path d="M34.4618 53.6256C47.5252 76.252 65.1186 90.5509 73.7578 85.5631C82.3969 80.5753 78.8104 58.1895 65.747 35.5631C52.6837 12.9367 35.0903 -1.36221 26.4511 3.62562C17.812 8.61345 21.3985 30.9992 34.4618 53.6256Z" stroke="#61DAFB" stroke-width="5"/>
<path d="M34.4619 35.5631C21.3985 58.1895 17.812 80.5752 26.4512 85.5631C35.0903 90.5509 52.6837 76.252 65.7471 53.6256C78.8105 30.9992 82.397 8.61344 73.7578 3.62561C65.1186 -1.36222 47.5252 12.9367 34.4619 35.5631Z" stroke="#61DAFB" stroke-width="5"/>
</svg>
