<svg width="100" height="76" viewBox="0 0 100 76" fill="none" xmlns="http://www.w3.org/2000/svg">
<path d="M86.1078 43.6141C82.6191 43.6323 79.5871 44.4725 77.0482 45.7146C76.1167 43.8698 75.1851 42.2259 75.0207 41.0204C74.8381 39.6139 74.6189 38.7555 74.8381 37.0751C75.0573 35.3946 76.0436 33.0019 76.0253 32.8192C76.0071 32.6366 75.8061 31.7781 73.797 31.7598C71.7878 31.7416 70.0526 32.1434 69.8516 32.6731C69.6507 33.2028 69.2671 34.4083 69.0114 35.6504C68.6644 37.4769 64.993 43.9976 62.8925 47.4133C62.2167 46.0799 61.6322 44.9109 61.5043 43.9794C61.3217 42.5729 61.1025 41.7145 61.3217 40.034C61.5409 38.3536 62.5272 35.9609 62.5089 35.7782C62.4907 35.5956 62.2898 34.7371 60.2806 34.7188C58.2714 34.7006 56.5362 35.1024 56.3352 35.6321C56.1343 36.1618 55.9151 37.4038 55.495 38.6093C55.0749 39.8149 50.1981 50.701 48.9195 53.5139C48.2619 54.9569 47.6957 56.1076 47.2939 56.893C47.2939 56.893 47.2756 56.9478 47.2208 57.0391C46.8738 57.7149 46.6729 58.0802 46.6729 58.0802C46.6729 58.0802 46.6729 58.0802 46.6729 58.0985C46.3989 58.5917 46.1066 59.0483 45.9605 59.0483C45.8509 59.0483 45.65 57.7332 45.997 55.9432C46.7276 52.1623 48.4629 46.2808 48.4446 46.0799C48.4446 45.9703 48.7734 44.9474 47.3121 44.4177C45.8874 43.888 45.376 44.7648 45.2482 44.7648C45.1203 44.7648 45.029 45.0753 45.029 45.0753C45.029 45.0753 46.6181 38.4632 41.9969 38.4632C39.111 38.4632 35.1291 41.6231 33.1565 44.4725C31.9144 45.1484 29.2659 46.5913 26.4348 48.1439C25.3571 48.7466 24.243 49.3494 23.2018 49.9156C23.1288 49.8426 23.0557 49.7512 22.9826 49.6782C17.3934 43.7054 7.05523 39.4861 7.4936 31.4676C7.65799 28.5451 8.66258 20.8737 27.3481 11.5583C42.7275 3.97817 54.9653 6.07869 57.0841 10.7364C60.1162 17.385 50.5269 29.7324 34.636 31.5224C28.5719 32.1982 25.3937 29.8602 24.59 28.9835C23.7498 28.0702 23.6219 28.0154 23.3114 28.1981C22.8 28.4721 23.1288 29.294 23.3114 29.7689C23.7863 31.0109 25.7407 33.2028 29.0468 34.2804C31.9692 35.2302 39.0745 35.7599 47.6774 32.4356C57.3033 28.7095 64.8286 18.353 62.6185 9.67697C60.4084 0.873055 45.7961 -2.03114 31.9692 2.88225C23.7498 5.80471 14.8363 10.4076 8.42513 16.3986C0.808465 23.5221 -0.397049 29.7141 0.096116 32.3078C1.86786 41.5135 14.5623 47.5046 19.6401 51.9431C19.3844 52.0892 19.1469 52.2171 18.946 52.3267C16.4071 53.587 6.72645 58.6465 4.31542 63.9982C1.57561 70.0623 4.75379 74.4095 6.85431 74.994C13.3751 76.8023 20.0784 73.551 23.6767 68.181C27.275 62.811 26.8366 55.8336 25.1745 52.6372C25.1562 52.6006 25.138 52.5641 25.1014 52.5276C25.759 52.144 26.4348 51.7422 27.0924 51.3586C28.3892 50.5914 29.6678 49.8791 30.7637 49.2946C30.1427 50.9933 29.686 53.0207 29.4669 55.9432C29.1929 59.3771 30.5993 63.8338 32.4441 65.5873C33.2661 66.3545 34.2341 66.3727 34.8551 66.3727C37.0105 66.3727 37.9785 64.5827 39.0562 62.4639C40.3713 59.8703 41.5585 56.8565 41.5585 56.8565C41.5585 56.8565 40.079 65.0028 44.0974 65.0028C45.5587 65.0028 47.0382 63.1032 47.6957 62.1352C47.6957 62.1534 47.6957 62.1534 47.6957 62.1534C47.6957 62.1534 47.7322 62.0986 47.8053 61.9708C47.9514 61.7333 48.0428 61.5872 48.0428 61.5872C48.0428 61.5872 48.0428 61.5689 48.0428 61.5507C48.6273 60.5278 49.9424 58.2081 51.8968 54.3541C54.4174 49.3859 56.8467 43.1757 56.8467 43.1757C56.8467 43.1757 57.0659 44.6917 57.8147 47.2123C58.2531 48.6918 59.1664 50.3175 59.897 51.8883C59.3125 52.7102 58.9472 53.1669 58.9472 53.1669C58.9472 53.1669 58.9472 53.1669 58.9655 53.1851C58.4906 53.8061 57.9791 54.482 57.4129 55.1395C55.422 57.514 53.0475 60.2356 52.7187 61.021C52.3351 61.9525 52.4265 62.6283 53.1571 63.1763C53.6868 63.5781 54.6366 63.6329 55.6046 63.5781C57.3946 63.4503 58.6549 63.0119 59.276 62.7379C60.244 62.3909 61.3765 61.8612 62.4359 61.0758C64.3903 59.6328 65.5775 57.5688 65.4679 54.8473C65.4131 53.3495 64.92 51.8517 64.3172 50.4453C64.4999 50.1896 64.6643 49.9339 64.8469 49.6782C67.9338 45.1666 70.3265 40.2167 70.3265 40.2167C70.3265 40.2167 70.5457 41.7327 71.2946 44.2534C71.6599 45.5319 72.4088 46.9201 73.0663 48.2717C70.1621 50.628 68.3721 53.3678 67.7328 55.1578C66.5821 58.4821 67.4771 59.9798 69.1758 60.3269C69.943 60.4913 71.0389 60.126 71.8426 59.7789C72.8654 59.4501 74.0709 58.8839 75.2216 58.0437C77.176 56.6007 79.0574 54.5916 78.9478 51.87C78.893 50.628 78.5642 49.4042 78.1076 48.2169C80.5734 47.1941 83.7516 46.6279 87.8065 47.1028C96.5008 48.1256 98.2178 53.5504 97.889 55.8336C97.5602 58.1168 95.7337 59.3588 95.1309 59.7424C94.5282 60.126 94.3273 60.2538 94.382 60.5278C94.4551 60.9296 94.7474 60.9114 95.2588 60.8383C95.9711 60.7105 99.8251 58.9935 99.9895 54.7925C100.264 49.4225 95.1492 43.5593 86.1078 43.6141ZM19.0373 66.2266C16.1514 69.3683 12.133 70.5555 10.3978 69.5509C8.53473 68.4733 9.26534 63.8338 12.8088 60.5095C14.9641 58.4821 17.7405 56.6007 19.5853 55.45C20.0054 55.1943 20.6264 54.829 21.3753 54.3724C21.5032 54.2993 21.5762 54.2628 21.5762 54.2628C21.7223 54.1715 21.8685 54.0801 22.0146 53.9888C23.3114 58.7378 22.0694 62.9206 19.0373 66.2266ZM40.0425 51.9431C39.0379 54.3906 36.9374 60.6557 35.6588 60.3086C34.5629 60.0164 33.8871 55.2674 35.4396 50.5732C36.2251 48.2169 37.8872 45.4041 38.8553 44.3081C40.4261 42.5547 42.1613 41.9702 42.5814 42.6825C43.1111 43.6141 40.6635 50.4088 40.0425 51.9431ZM57.3764 60.2356C56.9563 60.4547 56.5544 60.6009 56.3718 60.4913C56.2439 60.4182 56.5544 60.126 56.5544 60.126C56.5544 60.126 58.728 57.788 59.5865 56.7286C60.0796 56.1076 60.6641 55.377 61.2852 54.555C61.2852 54.6281 61.2852 54.7194 61.2852 54.7925C61.2852 57.5871 58.5819 59.4684 57.3764 60.2356ZM70.7466 57.1852C70.4361 56.9661 70.4909 56.2354 71.532 53.9523C71.9339 53.0573 72.8837 51.5595 74.5093 50.1165C74.692 50.701 74.8198 51.2673 74.8016 51.797C74.7833 55.3222 72.2627 56.6373 70.7466 57.1852Z" fill="#CD6799"/>
</svg>
