<svg width="100" height="100" viewBox="0 0 100 100" fill="none" xmlns="http://www.w3.org/2000/svg">
<path d="M98.7616 14.801L52.6448 98.6947C51.6926 100.427 49.2464 100.437 48.28 98.7134L1.249 14.8088C0.195944 12.9307 1.77476 10.6554 3.86707 11.0362L50.0333 19.4307C50.3278 19.4843 50.6294 19.4838 50.9237 19.4292L96.1243 11.0479C98.2097 10.6613 99.7958 12.919 98.7616 14.801Z" fill="url(#paint0_linear_1208_2179)"/>
<path d="M72.0245 0.0246207L37.8971 6.8278C37.6244 6.88215 37.3772 7.02714 37.1943 7.23999C37.0115 7.45285 36.9034 7.72148 36.8869 8.00367L34.7877 44.074C34.7762 44.2718 34.8101 44.4697 34.8869 44.6518C34.9636 44.834 35.081 44.9954 35.2298 45.1233C35.3786 45.2513 35.5546 45.3421 35.744 45.3888C35.9333 45.4354 36.1307 45.4364 36.3205 45.3919L45.8222 43.1611C46.7111 42.9524 47.5146 43.749 47.3316 44.6584L44.5088 58.7216C44.3189 59.6681 45.1922 60.4772 46.1006 60.1964L51.9695 58.3826C52.8792 58.1017 53.7535 58.9132 53.561 59.8604L49.075 81.9503C48.7943 83.3321 50.6009 84.0855 51.354 82.901L51.8576 82.1098L79.6666 25.6495C80.1325 24.7042 79.3291 23.6262 78.3091 23.8268L68.5282 25.747C67.6094 25.9273 66.8274 25.0565 67.0867 24.142L73.4702 1.62925C73.7298 0.712429 72.9448 -0.158743 72.0248 0.0246207H72.0245Z" fill="url(#paint1_linear_1208_2179)"/>
<defs>
<linearGradient id="paint0_linear_1208_2179" x1="0.100703" y1="17.8048" x2="50.9511" y2="85.6876" gradientUnits="userSpaceOnUse">
<stop stop-color="#41D1FF"/>
<stop offset="1" stop-color="#BD34FE"/>
</linearGradient>
<linearGradient id="paint1_linear_1208_2179" x1="54.312" y1="1.87182" x2="64.8938" y2="73.2241" gradientUnits="userSpaceOnUse">
<stop stop-color="#FFEA83"/>
<stop offset="0.083" stop-color="#FFDD35"/>
<stop offset="1" stop-color="#FFA800"/>
</linearGradient>
</defs>
</svg>
