<svg width="90" height="100" viewBox="0 0 90 100" fill="none" xmlns="http://www.w3.org/2000/svg">
<path d="M45 0L0.808311 25V75L45 100L89.1917 75V25L45 0Z" fill="white"/>
<path d="M8.70007 73.2749L43.5417 92.9833V77.6333L21.8334 65.6916L8.70007 73.2749ZM6.31674 71.1166V29.8999L19.0667 37.2583V63.7499L6.31674 71.1166ZM81.4417 73.2749L46.6001 92.9833V77.6333L68.3084 65.6916L81.4417 73.2749ZM83.8251 71.1166V29.8999L71.0751 37.2583V63.7499L83.8251 71.1166ZM82.3334 27.2333L46.6001 7.0166V21.8583L69.4917 34.4499L69.6667 34.5499L82.3334 27.2333ZM7.8084 27.2333L43.5417 7.0166V21.8583L20.6501 34.4499L20.4751 34.5499L7.8084 27.2333Z" fill="#8ED6FB"/>
<path d="M46.5999 74.1416L68.0166 62.3666V39.0333L46.5999 51.4V74.1416ZM43.5416 74.1416L22.1249 62.3666V39.0333L43.5416 51.4V74.1416ZM66.5666 36.3333L45.0666 24.5083L23.5666 36.3333L45.0666 48.75L66.5666 36.3333Z" fill="#1C78C0"/>
</svg>
