<svg width="323" height="56" viewBox="0 0 323 56" fill="none" xmlns="http://www.w3.org/2000/svg">
<rect x="0.146698" width="322.29" height="56" rx="22" fill="#F3F4F6"/>
<rect x="6.1467" y="5.7749" width="43.2902" height="44.4502" rx="16" fill="#E5E7EB"/>
<path fill-rule="evenodd" clip-rule="evenodd" d="M20.1467 21.6525C20.1467 20.2265 21.6757 19.3225 22.9257 20.0095L34.4657 26.3575C35.7607 27.0695 35.7607 28.9305 34.4657 29.6425L22.9267 35.9905C21.6767 36.6775 20.1477 35.7735 20.1477 34.3475L20.1467 21.6525Z" fill="#FBBF24"/>
<path d="M61.699 29.1251C61.6335 29.0251 61.568 28.8251 61.5025 28.6251C61.437 28.4251 61.437 28.2251 61.437 28.0251C61.437 27.6251 61.5025 27.2251 61.699 26.9251C62.0266 26.3251 62.6818 26.3251 63.0749 26.9251C63.2059 27.2251 63.337 27.6251 63.337 28.0251C63.337 28.2251 63.337 28.4251 63.2714 28.6251C63.2059 28.8251 63.1404 29.0251 63.0749 29.1251C62.8783 29.3251 62.6163 29.5251 62.3542 29.5251C62.0921 29.5251 61.8301 29.3251 61.699 29.1251Z" fill="#FCD34D"/>
<path d="M65.7369 28.5V27.5C65.7369 26.7 66.2036 26 66.7369 26C67.2703 26 67.7369 26.7 67.7369 27.5V28.5C67.7369 29.3 67.2703 30 66.7369 30C66.2036 30 65.7369 29.3 65.7369 28.5Z" fill="#FCD34D"/>
<path d="M70.737 29.418C70.6036 29.318 70.4703 29.218 70.4036 29.118C70.2703 28.818 70.137 28.418 70.137 28.018C70.137 27.618 70.2036 27.218 70.4036 26.918C70.4036 26.818 70.4703 26.818 70.537 26.718C70.6036 26.718 70.6703 26.618 70.737 26.618C70.8036 26.518 70.8703 26.518 70.937 26.518C71.2703 26.418 71.6036 26.518 71.8703 26.918C71.937 26.918 71.937 27.018 72.0036 27.118C72.0036 27.218 72.0703 27.318 72.0703 27.418C72.137 27.518 72.137 27.618 72.137 27.718C72.137 27.818 72.137 27.918 72.137 28.018C72.137 28.418 72.0703 28.818 71.8703 29.118C71.6703 29.318 71.4036 29.518 71.137 29.518C71.0036 29.518 70.8703 29.518 70.737 29.418Z" fill="#FCD34D"/>
<path d="M74.537 28.5V27.5C74.537 26.7 75.0036 26 75.537 26C76.0703 26 76.537 26.7 76.537 27.5V28.5C76.537 29.3 76.0703 30 75.537 30C75.0036 30 74.537 29.3 74.537 28.5Z" fill="#FCD34D"/>
<path d="M79.537 29.4C79.4036 29.3 79.2703 29.2 79.2036 29.1C79.137 29 79.0703 28.8 79.0036 28.6C78.937 28.4 78.937 28.2 78.937 28C78.937 27.9 78.937 27.8 78.937 27.7C78.937 27.6 79.0036 27.5 79.0036 27.4C79.0036 27.3 79.0703 27.2 79.0703 27.1C79.137 27 79.137 27 79.2036 26.9C79.2036 26.8 79.2703 26.8 79.337 26.7C79.4036 26.7 79.4703 26.6 79.537 26.6C79.6036 26.5 79.6703 26.5 79.737 26.5C79.8703 26.5 80.0036 26.5 80.137 26.5C80.2036 26.5 80.2703 26.6 80.337 26.6C80.4036 26.6 80.4703 26.6 80.537 26.7C80.6036 26.8 80.6036 26.8 80.6703 26.9C80.737 26.9 80.737 27 80.8036 27.1C80.8036 27.2 80.8703 27.3 80.8703 27.4C80.937 27.5 80.937 27.6 80.937 27.7C80.937 27.8 80.937 27.9 80.937 28C80.937 28.2 80.937 28.4 80.8703 28.6C80.8036 28.8 80.737 29 80.6703 29.1C80.4703 29.3 80.2036 29.5 79.937 29.5C79.8036 29.5 79.6703 29.5 79.537 29.4Z" fill="#FCD34D"/>
<path d="M83.3369 29.5V26.5C83.3369 25.7 83.8036 25 84.3369 25C84.8703 25 85.3369 25.7 85.3369 26.5V29.5C85.3369 30.3 84.8703 31 84.3369 31C83.8036 31 83.3369 30.3 83.3369 29.5Z" fill="#FCD34D"/>
<path d="M87.7369 31V25C87.7369 24.2 88.2036 23.5 88.7369 23.5C89.2703 23.5 89.7369 24.2 89.7369 25V31C89.7369 31.8 89.2703 32.5 88.7369 32.5C88.2036 32.5 87.7369 31.8 87.7369 31Z" fill="#FCD34D"/>
<path d="M92.137 30.8824V25.1176C92.137 24.7882 92.6036 24.5 93.137 24.5C93.6703 24.5 94.137 24.7882 94.137 25.1176V30.8824C94.137 31.2118 93.6703 31.5 93.137 31.5C92.6036 31.5 92.137 31.2118 92.137 30.8824Z" fill="#FCD34D"/>
<path d="M96.537 32.5V23.5C96.537 22.7 97.0036 22 97.537 22C98.0703 22 98.537 22.7 98.537 23.5V32.5C98.537 33.3 98.0703 34 97.537 34C97.0036 34 96.537 33.3 96.537 32.5Z" fill="#FCD34D"/>
<path d="M100.937 31.0227V24.9773C100.937 24.7227 101.404 24.5 101.937 24.5C102.47 24.5 102.937 24.7227 102.937 24.9773V31.0227C102.937 31.2773 102.47 31.5 101.937 31.5C101.404 31.5 100.937 31.2773 100.937 31.0227Z" fill="#FCD34D"/>
<path d="M105.337 43.566V12.434C105.337 11.9358 105.804 11.5 106.337 11.5C106.87 11.5 107.337 11.9358 107.337 12.434V43.566C107.337 44.0642 106.87 44.5 106.337 44.5C105.804 44.5 105.337 44.0642 105.337 43.566Z" fill="#FCD34D"/>
<path d="M109.737 38.1081V17.8919C109.737 17.4162 110.204 17 110.737 17C111.27 17 111.737 17.4162 111.737 17.8919V38.1081C111.737 38.5838 111.27 39 110.737 39C110.204 39 109.737 38.5838 109.737 38.1081Z" fill="#FCD34D"/>
<path d="M114.137 36.1818V19.8182C114.137 19.3818 114.604 19 115.137 19C115.67 19 116.137 19.3818 116.137 19.8182V36.1818C116.137 36.6182 115.67 37 115.137 37C114.604 37 114.137 36.6182 114.137 36.1818Z" fill="#FCD34D"/>
<path d="M118.537 35.1429V20.8571C118.537 20.6667 119.004 20.5 119.537 20.5C120.07 20.5 120.537 20.6667 120.537 20.8571V35.1429C120.537 35.3333 120.07 35.5 119.537 35.5C119.004 35.5 118.537 35.3333 118.537 35.1429Z" fill="#FCD34D"/>
<path d="M122.937 42.1509V13.8491C122.937 13.3962 123.404 13 123.937 13C124.47 13 124.937 13.3962 124.937 13.8491V42.1509C124.937 42.6038 124.47 43 123.937 43C123.404 43 122.937 42.6038 122.937 42.1509Z" fill="#FCD34D"/>
<path d="M127.337 31.8095V24.1905C127.337 24.0889 127.804 24 128.337 24C128.87 24 129.337 24.0889 129.337 24.1905V31.8095C129.337 31.9111 128.87 32 128.337 32C127.804 32 127.337 31.9111 127.337 31.8095Z" fill="#FCD34D"/>
<path d="M131.737 38.1081V17.8919C131.737 17.4162 132.204 17 132.737 17C133.27 17 133.737 17.4162 133.737 17.8919V38.1081C133.737 38.5838 133.27 39 132.737 39C132.204 39 131.737 38.5838 131.737 38.1081Z" fill="#FCD34D"/>
<path d="M136.399 29.1251C136.268 28.8251 136.137 28.4251 136.137 28.0251C136.137 27.6251 136.202 27.2251 136.399 26.9251C136.727 26.3251 137.382 26.3251 137.775 26.9251C137.906 27.2251 138.037 27.6251 138.037 28.0251C138.037 28.4251 137.971 28.8251 137.775 29.1251C137.578 29.3251 137.316 29.5251 137.054 29.5251C136.792 29.5251 136.53 29.3251 136.399 29.1251Z" fill="#FCD34D"/>
<path d="M140.437 28.5V27.5C140.437 26.7 140.904 26 141.437 26C141.97 26 142.437 26.7 142.437 27.5V28.5C142.437 29.3 141.97 30 141.437 30C140.904 30 140.437 29.3 140.437 28.5Z" fill="#FCD34D"/>
<path d="M145.099 29.1251C145.034 29.0251 144.968 28.8251 144.902 28.6251C144.837 28.4251 144.837 28.2251 144.837 28.0251C144.837 27.6251 144.902 27.2251 145.099 26.9251C145.427 26.3251 146.082 26.3251 146.475 26.9251C146.606 27.2251 146.737 27.6251 146.737 28.0251C146.737 28.2251 146.737 28.4251 146.671 28.6251C146.606 28.8251 146.54 29.0251 146.475 29.1251C146.278 29.3251 146.016 29.5251 145.754 29.5251C145.492 29.5251 145.23 29.3251 145.099 29.1251Z" fill="#FCD34D"/>
<path d="M149.137 28.5V27.5C149.137 26.7 149.604 26 150.137 26C150.67 26 151.137 26.7 151.137 27.5V28.5C151.137 29.3 150.67 30 150.137 30C149.604 30 149.137 29.3 149.137 28.5Z" fill="#FBBF24"/>
<path d="M154.137 29.418C154.004 29.318 153.87 29.218 153.804 29.118C153.67 28.818 153.537 28.418 153.537 28.018C153.537 27.618 153.604 27.218 153.804 26.918C153.804 26.818 153.87 26.818 153.937 26.718C154.004 26.718 154.07 26.618 154.137 26.618C154.204 26.518 154.27 26.518 154.337 26.518C154.67 26.418 155.004 26.518 155.27 26.918C155.337 26.918 155.337 27.018 155.404 27.118C155.404 27.218 155.47 27.318 155.47 27.418C155.537 27.518 155.537 27.618 155.537 27.718C155.537 27.818 155.537 27.918 155.537 28.018C155.537 28.418 155.47 28.818 155.27 29.118C155.07 29.318 154.804 29.518 154.537 29.518C154.404 29.518 154.27 29.518 154.137 29.418Z" fill="#FCD34D"/>
<path d="M157.937 28.5V27.5C157.937 26.7 158.404 26 158.937 26C159.47 26 159.937 26.7 159.937 27.5V28.5C159.937 29.3 159.47 30 158.937 30C158.404 30 157.937 29.3 157.937 28.5Z" fill="#FCD34D"/>
<path d="M162.937 29.4C162.804 29.3 162.67 29.2 162.604 29.1C162.537 29 162.47 28.8 162.404 28.6C162.337 28.4 162.337 28.2 162.337 28C162.337 27.9 162.337 27.8 162.337 27.7C162.337 27.6 162.404 27.5 162.404 27.4C162.404 27.3 162.47 27.2 162.47 27.1C162.537 27 162.537 27 162.604 26.9C162.604 26.8 162.67 26.8 162.737 26.7C162.804 26.7 162.87 26.6 162.937 26.6C163.004 26.5 163.07 26.5 163.137 26.5C163.27 26.5 163.404 26.5 163.537 26.5C163.604 26.5 163.67 26.6 163.737 26.6C163.804 26.6 163.87 26.6 163.937 26.7C164.004 26.8 164.004 26.8 164.07 26.9C164.137 26.9 164.137 27 164.204 27.1C164.204 27.2 164.27 27.3 164.27 27.4C164.337 27.5 164.337 27.6 164.337 27.7C164.337 27.8 164.337 27.9 164.337 28C164.337 28.2 164.337 28.4 164.27 28.6C164.204 28.8 164.137 29 164.07 29.1C163.87 29.3 163.604 29.5 163.337 29.5C163.204 29.5 163.07 29.5 162.937 29.4Z" fill="#FCD34D"/>
<path d="M166.737 29.5V26.5C166.737 25.7 167.204 25 167.737 25C168.27 25 168.737 25.7 168.737 26.5V29.5C168.737 30.3 168.27 31 167.737 31C167.204 31 166.737 30.3 166.737 29.5Z" fill="#D1D5DB"/>
<path d="M171.137 31V25C171.137 24.2 171.604 23.5 172.137 23.5C172.67 23.5 173.137 24.2 173.137 25V31C173.137 31.8 172.67 32.5 172.137 32.5C171.604 32.5 171.137 31.8 171.137 31Z" fill="#D1D5DB"/>
<path d="M175.537 35V21C175.537 20.2 176.004 19.5 176.537 19.5C177.07 19.5 177.537 20.2 177.537 21V35C177.537 35.8 177.07 36.5 176.537 36.5C176.004 36.5 175.537 35.8 175.537 35Z" fill="#D1D5DB"/>
<path d="M179.937 32.5V23.5C179.937 22.7 180.404 22 180.937 22C181.47 22 181.937 22.7 181.937 23.5V32.5C181.937 33.3 181.47 34 180.937 34C180.404 34 179.937 33.3 179.937 32.5Z" fill="#D1D5DB"/>
<path d="M184.337 37.5V18.5C184.337 17.7 184.804 17 185.337 17C185.87 17 186.337 17.7 186.337 18.5V37.5C186.337 38.3 185.87 39 185.337 39C184.804 39 184.337 38.3 184.337 37.5Z" fill="#D1D5DB"/>
<path d="M188.737 38.1081V17.8919C188.737 17.4162 189.204 17 189.737 17C190.27 17 190.737 17.4162 190.737 17.8919V38.1081C190.737 38.5838 190.27 39 189.737 39C189.204 39 188.737 38.5838 188.737 38.1081Z" fill="#D1D5DB"/>
<path d="M193.137 45.9245V10.0755C193.137 9.50189 193.604 9 194.137 9C194.67 9 195.137 9.50189 195.137 10.0755V45.9245C195.137 46.4981 194.67 47 194.137 47C193.604 47 193.137 46.4981 193.137 45.9245Z" fill="#D1D5DB"/>
<path d="M197.537 41.3333V14.6667C197.537 14.3111 198.004 14 198.537 14C199.07 14 199.537 14.3111 199.537 14.6667V41.3333C199.537 41.6889 199.07 42 198.537 42C198.004 42 197.537 41.6889 197.537 41.3333Z" fill="#D1D5DB"/>
<path d="M201.937 36.1818V19.8182C201.937 19.3818 202.404 19 202.937 19C203.47 19 203.937 19.3818 203.937 19.8182V36.1818C203.937 36.6182 203.47 37 202.937 37C202.404 37 201.937 36.6182 201.937 36.1818Z" fill="#D1D5DB"/>
<path d="M206.337 31V25C206.337 24.2 206.804 23.5 207.337 23.5C207.87 23.5 208.337 24.2 208.337 25V31C208.337 31.8 207.87 32.5 207.337 32.5C206.804 32.5 206.337 31.8 206.337 31Z" fill="#D1D5DB"/>
<path d="M210.737 32.5V23.5C210.737 22.7 211.204 22 211.737 22C212.27 22 212.737 22.7 212.737 23.5V32.5C212.737 33.3 212.27 34 211.737 34C211.204 34 210.737 33.3 210.737 32.5Z" fill="#D1D5DB"/>
<path d="M215.137 36.1818V19.8182C215.137 19.3818 215.604 19 216.137 19C216.67 19 217.137 19.3818 217.137 19.8182V36.1818C217.137 36.6182 216.67 37 216.137 37C215.604 37 215.137 36.6182 215.137 36.1818Z" fill="#D1D5DB"/>
<path d="M219.537 45.9245V10.0755C219.537 9.50189 220.004 9 220.537 9C221.07 9 221.537 9.50189 221.537 10.0755V45.9245C221.537 46.4981 221.07 47 220.537 47C220.004 47 219.537 46.4981 219.537 45.9245Z" fill="#D1D5DB"/>
<path d="M223.937 42.2857V13.7143C223.937 13.3333 224.404 13 224.937 13C225.47 13 225.937 13.3333 225.937 13.7143V42.2857C225.937 42.6667 225.47 43 224.937 43C224.404 43 223.937 42.6667 223.937 42.2857Z" fill="#D1D5DB"/>
<path d="M228.599 29.1251C228.468 28.8251 228.337 28.4251 228.337 28.0251C228.337 27.6251 228.402 27.2251 228.599 26.9251C228.927 26.3251 229.582 26.3251 229.975 26.9251C230.106 27.2251 230.237 27.6251 230.237 28.0251C230.237 28.4251 230.171 28.8251 229.975 29.1251C229.778 29.3251 229.516 29.5251 229.254 29.5251C228.992 29.5251 228.73 29.3251 228.599 29.1251Z" fill="#D1D5DB"/>
<path d="M232.637 28.5V27.5C232.637 26.7 233.104 26 233.637 26C234.17 26 234.637 26.7 234.637 27.5V28.5C234.637 29.3 234.17 30 233.637 30C233.104 30 232.637 29.3 232.637 28.5Z" fill="#D1D5DB"/>
<path d="M239.037 10.0755L239.037 45.9245C239.037 46.4981 238.57 47 238.037 47C237.504 47 237.037 46.4981 237.037 45.9245L237.037 10.0755C237.037 9.50189 237.504 9 238.037 9C238.57 9 239.037 9.50189 239.037 10.0755Z" fill="#D1D5DB"/>
<path d="M243.437 24.1905L243.437 31.8095C243.437 31.9111 242.97 32 242.437 32C241.904 32 241.437 31.9111 241.437 31.8095L241.437 24.1905C241.437 24.0889 241.904 24 242.437 24C242.97 24 243.437 24.0889 243.437 24.1905Z" fill="#D1D5DB"/>
<path d="M247.837 17.8919L247.837 38.1081C247.837 38.5838 247.37 39 246.837 39C246.304 39 245.837 38.5838 245.837 38.1081L245.837 17.8919C245.837 17.4162 246.304 17 246.837 17C247.37 17 247.837 17.4162 247.837 17.8919Z" fill="#D1D5DB"/>
<path d="M251.875 26.8749C252.006 27.1749 252.137 27.5749 252.137 27.9749C252.137 28.3749 252.071 28.7749 251.875 29.0749C251.547 29.6749 250.892 29.6749 250.499 29.0749C250.368 28.7749 250.237 28.3749 250.237 27.9749C250.237 27.5749 250.302 27.1749 250.499 26.8749C250.696 26.6749 250.958 26.4749 251.22 26.4749C251.482 26.4749 251.744 26.6749 251.875 26.8749Z" fill="#D1D5DB"/>
<path d="M256.537 27.5L256.537 28.5C256.537 29.3 256.07 30 255.537 30C255.004 30 254.537 29.3 254.537 28.5L254.537 27.5C254.537 26.7 255.004 26 255.537 26C256.07 26 256.537 26.7 256.537 27.5Z" fill="#D1D5DB"/>
<path d="M260.575 26.8749C260.64 26.9749 260.706 27.1749 260.771 27.3749C260.837 27.5749 260.837 27.7749 260.837 27.9749C260.837 28.3749 260.771 28.7749 260.575 29.0749C260.247 29.6749 259.592 29.6749 259.199 29.0749C259.068 28.7749 258.937 28.3749 258.937 27.9749C258.937 27.7749 258.937 27.5749 259.002 27.3749C259.068 27.1749 259.133 26.9749 259.199 26.8749C259.396 26.6749 259.658 26.4749 259.92 26.4749C260.182 26.4749 260.444 26.6749 260.575 26.8749Z" fill="#D1D5DB"/>
<path d="M265.237 27.5L265.237 28.5C265.237 29.3 264.77 30 264.237 30C263.704 30 263.237 29.3 263.237 28.5L263.237 27.5C263.237 26.7 263.704 26 264.237 26C264.77 26 265.237 26.7 265.237 27.5Z" fill="#D1D5DB"/>
<path d="M269.037 26.582C269.17 26.682 269.304 26.782 269.37 26.882C269.504 27.182 269.637 27.582 269.637 27.982C269.637 28.382 269.57 28.782 269.37 29.082C269.37 29.182 269.304 29.182 269.237 29.282C269.17 29.282 269.104 29.382 269.037 29.382C268.97 29.482 268.904 29.482 268.837 29.482C268.504 29.582 268.17 29.482 267.904 29.082C267.837 29.082 267.837 28.982 267.77 28.882C267.77 28.782 267.704 28.682 267.704 28.582C267.637 28.482 267.637 28.382 267.637 28.282C267.637 28.182 267.637 28.082 267.637 27.982C267.637 27.582 267.704 27.182 267.904 26.882C268.104 26.682 268.37 26.482 268.637 26.482C268.77 26.482 268.904 26.482 269.037 26.582Z" fill="#D1D5DB"/>
<path d="M274.037 27.5L274.037 28.5C274.037 29.3 273.57 30 273.037 30C272.504 30 272.037 29.3 272.037 28.5L272.037 27.5C272.037 26.7 272.504 26 273.037 26C273.57 26 274.037 26.7 274.037 27.5Z" fill="#D1D5DB"/>
<path d="M277.837 26.6C277.97 26.7 278.104 26.8 278.17 26.9C278.237 27 278.304 27.2 278.37 27.4C278.437 27.6 278.437 27.8 278.437 28C278.437 28.1 278.437 28.2 278.437 28.3C278.437 28.4 278.37 28.5 278.37 28.6C278.37 28.7 278.304 28.8 278.304 28.9C278.237 29 278.237 29 278.17 29.1C278.17 29.2 278.104 29.2 278.037 29.3C277.97 29.3 277.904 29.4 277.837 29.4C277.77 29.5 277.704 29.5 277.637 29.5C277.504 29.5 277.37 29.5 277.237 29.5C277.17 29.5 277.104 29.4 277.037 29.4C276.97 29.4 276.904 29.4 276.837 29.3C276.77 29.2 276.77 29.2 276.704 29.1C276.637 29.1 276.637 29 276.57 28.9C276.57 28.8 276.504 28.7 276.504 28.6C276.437 28.5 276.437 28.4 276.437 28.3C276.437 28.2 276.437 28.1 276.437 28C276.437 27.8 276.437 27.6 276.504 27.4C276.57 27.2 276.637 27 276.704 26.9C276.904 26.7 277.17 26.5 277.437 26.5C277.57 26.5 277.704 26.5 277.837 26.6Z" fill="#D1D5DB"/>
<path d="M282.837 26.5L282.837 29.5C282.837 30.3 282.37 31 281.837 31C281.304 31 280.837 30.3 280.837 29.5L280.837 26.5C280.837 25.7 281.304 25 281.837 25C282.37 25 282.837 25.7 282.837 26.5Z" fill="#D1D5DB"/>
<path d="M287.237 25L287.237 31C287.237 31.8 286.77 32.5 286.237 32.5C285.704 32.5 285.237 31.8 285.237 31L285.237 25C285.237 24.2 285.704 23.5 286.237 23.5C286.77 23.5 287.237 24.2 287.237 25Z" fill="#D1D5DB"/>
<path d="M291.637 21L291.637 35C291.637 35.8 291.17 36.5 290.637 36.5C290.104 36.5 289.637 35.8 289.637 35L289.637 21C289.637 20.2 290.104 19.5 290.637 19.5C291.17 19.5 291.637 20.2 291.637 21Z" fill="#D1D5DB"/>
<path d="M296.037 23.5L296.037 32.5C296.037 33.3 295.57 34 295.037 34C294.504 34 294.037 33.3 294.037 32.5L294.037 23.5C294.037 22.7 294.504 22 295.037 22C295.57 22 296.037 22.7 296.037 23.5Z" fill="#D1D5DB"/>
<path d="M300.437 18.5L300.437 37.5C300.437 38.3 299.97 39 299.437 39C298.904 39 298.437 38.3 298.437 37.5L298.437 18.5C298.437 17.7 298.904 17 299.437 17C299.97 17 300.437 17.7 300.437 18.5Z" fill="#D1D5DB"/>
</svg>
